<?xml version="1.0" standalone="no"?>
<!DOCTYPE svg PUBLIC "-//W3C//DTD SVG 1.1//EN" "http://www.w3.org/Graphics/SVG/1.1/DTD/svg11.dtd">
<svg xmlns="http://www.w3.org/2000/svg"><metadata>This SVG WebFont was generated by YouWorkForThem.
Copyright Â© 2018 by Connary Fagen. All rights reserved.</metadata><defs><font horiz-adv-x="1157" id="ywftsvg"><font-face ascent="1638" bbox="-498 -639 2144 1858" cap-height="1272" descent="-410" font-family="" font-stretch="normal" font-weight="700" panose-1="0 0 8 0 0 0 0 0 0 0" underline-position="0" underline-thickness="0" unicode-range="U+0020-FB02" units-per-em="2048" x-height="924"/><missing-glyph d="M864 1638v-2109h-667v2109h667zM702 1497h-348v-70h138v-77h-140v-70h350v70h-139v77h139v70zM563 1225h-211v-219h350v71h-139v148zM492 1153v-76h-70v76h70zM702 948h-350v-69h140v-78h-140v-70h211v148h139v69zM702 821h-69v-139h-281v-72h350v211zM702 565h-210v-119 h71v50h70v-101h-211v170h-70v-239h350v239zM702 201h-350v-240h350v240zM633 131v-100h-211v100h211zM702 -88h-350v-70h148l-148 -98v-70h350v70h-215l148 98h67v70z" horiz-adv-x="1054"/><glyph d="M20 -442q-131 0 -191 53t-60 129q0 59 32.5 92t79.5 33q41 0 70 -27.5t29 -79.5q0 -23 6 -49t27.5 -52t56 -26t57.5 19.5t38 76t18 79t14 102.5q2 18 4 29l104 837q4 37 -6 51.5t-41 14.5h-127l8 49l117 20q68 10 76 74q25 188 131 285.5t274 97.5q131 0 191.5 -53 t60.5 -129q0 -59 -32.5 -92t-79.5 -33q-41 0 -70 27.5t-29 78.5q0 23 -6 49.5t-27.5 52t-56.5 25.5q-16 0 -30.5 -5t-25.5 -18.5t-19.5 -25.5t-15.5 -34.5t-11 -38t-9.5 -45t-7.5 -45t-6 -48.5t-6 -45q-4 -37 13.5 -50t54.5 -13h192l-14 -84h-201q-35 0 -51 -13.5t-21 -52.5 l-104 -833q-25 -188 -131.5 -285.5t-274.5 -97.5zM1094 -12q-68 0 -116 48t-38 124l80 559q8 61 -30 85.5t-97 -1.5l10 63q88 72 195 72q68 0 116 -48t37 -124l-80 -559q-8 -61 30 -86t97 2l-10 -64q-92 -71 -194 -71z" glyph-name="uniFB01" horiz-adv-x="1370" unicode="fi"/><glyph d="M20 -442q-131 0 -191 53t-60 129q0 59 32.5 92t79.5 33q41 0 70 -27.5t29 -79.5q0 -23 6 -49t27.5 -52t56 -26t57.5 19.5t38 76t18 79t14 102.5q2 18 4 29l104 837q4 37 -6 51.5t-41 14.5h-127l8 49l117 20q68 10 76 74q25 197 160 305.5t323 108.5q180 0 307 -93.5 t105 -271.5l-105 -825q-8 -61 30 -86t97 2l-10 -64q-86 -72 -199 -71q-82 0 -120.5 46t-28.5 126l108 872q16 139 -46 215t-156 76q-199 0 -240 -336q-4 -37 13.5 -50t54.5 -13h192l-14 -84h-201q-35 0 -51 -13.5t-21 -52.5l-104 -833q-25 -188 -131.5 -285.5t-274.5 -97.5z " glyph-name="uniFB02" horiz-adv-x="1310" unicode="fl"/><glyph d="M1397 1366q131 0 191.5 -53t60.5 -129q0 -59 -33 -92t-80 -33q-41 0 -69.5 27.5t-28.5 78.5q0 23 -6.5 49.5t-28 52t-55.5 25.5q-16 0 -30.5 -5t-26 -18.5t-19.5 -25.5t-15.5 -34.5t-11.5 -38t-9 -45t-7 -45t-6 -48.5t-6 -45q-4 -37 13 -50t54 -13h193l-15 -84h-200 q-35 0 -51.5 -13.5t-20.5 -52.5l-105 -833q-25 -188 -131 -285.5t-274 -97.5q-131 0 -191.5 53t-60.5 129q0 59 33 92t80 33q41 0 69.5 -27.5t28.5 -79.5q0 -23 6 -49t27.5 -52t56.5 -26t57.5 19.5t38 76t18.5 79t13 102.5q2 18 4 29l105 837q4 37 -6.5 51.5t-40.5 14.5 h-127l8 49l116 20q68 10 76 74q4 37 8 49q16 139 -46 215t-156 76q-199 0 -240 -336q-4 -37 13.5 -50t54.5 -13h110l-14 -84h-119q-35 0 -51 -13.5t-21 -52.5l-104 -833q-25 -188 -131.5 -285.5t-274.5 -97.5q-131 0 -191 53t-60 129q0 59 32.5 92t79.5 33q41 0 70 -27.5 t29 -79.5q0 -23 6 -49t27.5 -52t56 -26t57.5 19.5t38 76t18 79t14 102.5q2 18 4 29l104 837q4 37 -6 51.5t-41 14.5h-127l8 49l117 20q68 10 76 74q27 197 161 305.5t322 108.5q211 0 326 -113q100 82 256 82z" glyph-name="f_f.liga" horiz-adv-x="1540" unicode="ff"/><glyph d="M864 1638v-2109h-667v2109h667zM702 1497h-348v-70h138v-77h-140v-70h350v70h-139v77h139v70zM563 1225h-211v-219h350v71h-139v148zM492 1153v-76h-70v76h70zM702 948h-350v-69h140v-78h-140v-70h211v148h139v69zM702 821h-69v-139h-281v-72h350v211zM702 565h-210v-119 h71v50h70v-101h-211v170h-70v-239h350v239zM702 201h-350v-240h350v240zM633 131v-100h-211v100h211zM702 -88h-350v-70h148l-148 -98v-70h350v70h-215l148 98h67v70z" glyph-name=".notdef" horiz-adv-x="1054"/><glyph glyph-name="glyph1" horiz-adv-x="0"/><glyph glyph-name="glyph2" horiz-adv-x="681"/><glyph glyph-name="space" horiz-adv-x="368" unicode=" "/><glyph d="M170 414q20 186 3 414.5t-7 312.5q8 74 55 119t110.5 45t97.5 -45.5t26 -118.5q-10 -84 -83 -315.5t-100 -411.5h-102zM190.5 -12q-57.5 0 -98.5 42t-41 99t41 98t98.5 41t98.5 -41t41 -98t-41 -99t-98.5 -42z" glyph-name="exclam" horiz-adv-x="452" unicode="!"/><glyph d="M164 940l2 274q0 137 108 138q57 0 85 -37t6 -103l-91 -272q-18 -51 -61 -51q-49 0 -49 51zM451 940l2 274q0 137 108 138q57 0 85 -37t5 -103l-90 -272q-18 -51 -61 -51q-49 0 -49 51z" glyph-name="quotedbl" horiz-adv-x="634" unicode="&quot;"/><glyph d="M1051 883h-240l-117 -453h215v-82h-235l-107 -409h-86l107 409h-236l-106 -409h-86l106 409h-219v82h240l116 453h-215v82h236l106 411h86l-106 -411h235l107 411h86l-107 -411h220v-82zM608 430l117 453h-236l-116 -453h235z" glyph-name="numbersign" horiz-adv-x="1050" unicode="#"/><glyph d="M557 821q63 -23 97 -36t90.5 -43.5t86 -62.5t54 -84t24.5 -116q0 -166 -132 -257t-324 -95l-17 -127h-55l16 127q-205 12 -315 94q-27 94 -11.5 190.5t70.5 96.5q14 0 20.5 -8t12.5 -33q51 -209 234 -250l45 369l-27 8q-295 98 -295 332q0 150 115.5 246t290.5 106 l16 133h55l-16 -131q205 -6 315 -90q27 -94 11.5 -189.5t-70.5 -95.5q-27 0 -33 39q-18 106 -82.5 170t-150.5 78l-45 -365zM340 1014q0 -104 143 -166l43 348q-86 -2 -136 -52t-50 -130zM475 211q98 0 151.5 50t53.5 130q0 63 -45 103.5t-129 70.5l-43 -354h12z" glyph-name="dollar" horiz-adv-x="980" unicode="$"/><glyph d="M1135 1272h100l-961 -1272h-198l985 1184q-59 -45 -125 -55.5t-109 0t-114 36.5q10 -37 10 -75q0 -154 -110.5 -271t-254.5 -117q-100 0 -149 55.5t-49 145.5q0 154 111.5 268.5t254.5 114.5q88 0 174 -23.5t136.5 -42t128.5 -10t170 61.5zM399 776q70 0 113 100.5 t43 219.5q0 117 -74 116q-72 0 -113.5 -101t-41.5 -212q-1 -123 73 -123zM1026 561q98 0 147.5 -54t49.5 -142q0 -154 -111 -271t-254 -117q-100 0 -149.5 55.5t-49.5 145.5q0 154 112 268.5t255 114.5zM899 51q70 0 113 100.5t43 219.5q0 117 -74 116q-72 0 -114 -101 t-42 -212q0 -123 74 -123z" glyph-name="percent" horiz-adv-x="1339" unicode="%"/><glyph d="M606 -31q-225 0 -379.5 108.5t-154.5 282.5q0 147 109.5 259t246.5 112q-70 16 -115 86t-45 156q0 147 130 239.5t313 92.5q135 0 219 -53.5t84 -143.5q0 -59 -37 -103t-94 -44q-47 0 -74 31.5t-21 86.5q6 61 -23.5 106.5t-86.5 45.5q-86 0 -132 -72t-46 -172 q0 -88 41 -162.5t133 -105.5l-35 -68q-135 35 -227.5 -63.5t-92.5 -245.5q0 -129 79 -213t223 -84q166 0 274.5 108.5t108.5 262.5q0 66 -30 106.5t-85 40.5q-70 0 -102.5 -51t-0.5 -96h-65q-39 35 -39 80q0 39 27.5 73.5t50 51t76.5 49.5l231 141q66 41 89.5 57.5t66.5 51 t58 69.5t15 76q0 66 -45 93.5t-121 2.5l-20 58q80 53 184 53q92 0 160 -54.5t68 -150.5q0 -98 -87 -186t-162 -127t-233 -109q-33 -16 -49 -22q131 -10 193.5 -74t62.5 -160q0 -184 -198.5 -302t-442.5 -118z" glyph-name="ampersand" horiz-adv-x="1531" unicode="&amp;"/><glyph d="M164 940l2 274q0 137 108 138q57 0 85 -37t6 -103l-91 -272q-18 -51 -61 -51q-49 0 -49 51z" glyph-name="quotesingle" horiz-adv-x="348" unicode="'"/><glyph d="M336 594q-37 -268 4 -509t141 -398q27 -27 -8 -27h-51q-20 0 -33 23q-174 152 -244.5 395.5t-33.5 539.5q37 287 167 529t340 399q12 6 37 6h50q18 0 25 -10t-3 -26q-145 -150 -251.5 -394.5t-139.5 -527.5z" glyph-name="parenleft" horiz-adv-x="653" unicode="("/><glyph d="M385 606q35 274 -21.5 519t-175.5 401q-8 10 -0.5 18t27.5 8h53q23 0 37 -14q193 -154 271.5 -396.5t42 -535.5t-175 -535.5t-365.5 -396.5q-20 -14 -41 -14h-57q-39 0 -7 37q154 158 267.5 398.5t144.5 510.5z" glyph-name="parenright" horiz-adv-x="692" unicode=")"/><glyph d="M365 1059l-35 160q20 78 92 86q59 -10 59 -74l-80 -160q-4 -8 -8 -14q-20 -29 -28 2zM338 1044q10 -14 -5.5 -31.5t-33.5 -13.5l-147 35q-43 41 -7 105q49 70 107 41zM432 1036l123 140q63 29 98 -17q12 -74 -43 -117l-157 -38q-18 -4 -26.5 7t5.5 25zM453 971l149 -33 q41 -45 4 -107q-49 -70 -104 -40l-84 135q-10 14 4.5 31.5t30.5 13.5zM301 967q18 4 24.5 -7.5t-8.5 -25.5l-118 -139q-66 -29 -99 16q-12 76 43 119zM348 903q4 10 10 19q23 23 29 -7l35 -159q-20 -78 -92 -86q-59 10 -60 73z" glyph-name="asterisk" horiz-adv-x="624" unicode="*"/><glyph d="M872 555l-8 -80h-338l-43 -340h-80l43 340h-340l9 80h340l43 340h80l-43 -340h337z" glyph-name="plus" horiz-adv-x="964" unicode="+"/><glyph d="M92 -244l-37 45q98 76 115 152q8 33 -25 33q-51 0 -88 38.5t-37 92.5q0 68 43 109.5t113 41.5q68 0 108 -44t40 -113q0 -102 -67 -198t-165 -157z" glyph-name="comma" horiz-adv-x="430" unicode=","/><glyph d="M119 588h553l-17 -129h-553z" glyph-name="hyphen" horiz-adv-x="757" unicode="-"/><glyph d="M172 -12q-57 0 -98 42t-41 99t41 98t98 41t98 -41t41 -98t-41 -99t-98 -42z" glyph-name="period" horiz-adv-x="423" unicode="."/><glyph d="M14 0l707 1313h149l-706 -1313h-150z" glyph-name="slash" horiz-adv-x="837" unicode="/"/><glyph d="M535 -20q-213 0 -331 154.5t-118 389.5q0 311 172 546t438 235q213 0 331 -155t118 -390q0 -201 -75 -378t-217 -289.5t-318 -112.5zM545 76q115 0 196.5 124t115.5 290.5t34 347.5q0 371 -207 370q-88 0 -156.5 -70.5t-108.5 -185t-60.5 -244.5t-20.5 -264 q0 -368 207 -368z" glyph-name="zero" horiz-adv-x="1187" unicode="0"/><glyph d="M4 0l8 70q100 6 140.5 32.5t48.5 92.5l98 792q8 57 -6 77.5t-60 12.5l-90 -14l9 67l333 150q35 14 58.5 3t19.5 -36l-129 -1052q-8 -66 25 -92.5t131 -32.5l-8 -70h-578z" glyph-name="one" horiz-adv-x="700" unicode="1"/><glyph d="M25 0q14 115 76.5 220.5t145.5 180t179 152.5t178 141.5t141.5 144.5t69.5 162q10 88 -31 156t-137 68q-88 0 -150.5 -60.5t-72.5 -150.5q-4 -37 4 -81t4 -69q-6 -57 -47 -84.5t-90 -27.5q-61 0 -96 42t-35 113q0 178 148.5 288t359.5 110q199 0 308.5 -95.5t88.5 -259.5 q-12 -111 -86 -197.5t-180.5 -148t-219 -116t-226 -128t-177.5 -157.5h459q137 0 203.5 29.5t103.5 113.5h66l-60 -217q-29 -94 -8 -129h-919z" glyph-name="two" horiz-adv-x="1107" unicode="2"/><glyph d="M483 -20q-184 0 -306 86t-122 235q0 82 37 130t107 48q59 0 78.5 -27.5t19.5 -94t6 -95.5q10 -39 21.5 -67.5t33 -63.5t59.5 -53.5t89 -18.5q133 0 220 121t87 266q0 100 -49 156.5t-133 56.5q-68 0 -144 -38l-16 71q178 61 256 131t78 205q0 92 -45 144.5t-133 52.5 q-180 0 -203 -219q-14 -133 -129 -134q-51 0 -75.5 31t-24.5 78q0 141 139 232.5t338 91.5q176 0 269 -73t93 -192q0 -106 -70.5 -180t-183.5 -106q102 6 192.5 -70t90.5 -223q0 -205 -173.5 -343t-406.5 -138z" glyph-name="three" horiz-adv-x="1148" unicode="3"/><glyph d="M838 342l-19 -147q-8 -66 21.5 -92.5t115.5 -32.5l-8 -70h-540l10 70q86 6 123 32.5t45 92.5l18 147h-530l-21 133l672 830l227 -33l-92 -742h201l-23 -188h-200zM254 530h373l80 648l-476 -586q-20 -27 -13 -44.5t36 -17.5z" glyph-name="four" horiz-adv-x="1134" unicode="4"/><glyph d="M473 -23q-180 0 -300 85t-120 231q0 84 36 135t108 51q47 0 68.5 -21.5t23.5 -48t3 -73.5t7 -76q8 -39 19.5 -68.5t32 -63.5t57 -52.5t86.5 -18.5q135 0 211.5 121t76.5 287q0 137 -66.5 224t-185.5 87q-80 0 -157.5 -39t-126.5 -110h-60l127 643h572l153 28l-55 -251 h-643l-57 -297q141 123 344 122q164 0 290.5 -94t126.5 -278q0 -231 -163.5 -377t-407.5 -146z" glyph-name="five" horiz-adv-x="1116" unicode="5"/><glyph d="M500 -20q-211 0 -314.5 134t-103.5 363q0 215 74.5 401.5t224 306.5t340.5 120q162 0 240 -76l-46 -60q-90 49 -163 50q-96 0 -171 -47.5t-122 -127t-74 -168t-39 -188.5q43 47 130 94t198 47q147 0 247.5 -93t100.5 -263q0 -207 -150.5 -350t-371.5 -143zM522 59 q121 0 189.5 119t68.5 275q0 125 -50 196.5t-146 71.5q-121 0 -198 -105.5t-77 -259.5q0 -123 52 -210t161 -87z" glyph-name="six" horiz-adv-x="1085" unicode="6"/><glyph d="M164 0l721 1049h-363q-135 0 -203.5 -26t-130.5 -99h-59l156 364l157 -16h648l-773 -1272h-153z" glyph-name="seven" horiz-adv-x="1040" unicode="7"/><glyph d="M825 715q227 -100 228 -301q0 -195 -160 -314.5t-395 -119.5q-205 0 -324 90t-119 239q0 238 248 369q-102 96 -102 235q0 180 143 286t332 106q158 0 262 -76t104 -203q0 -196 -217 -311zM668 1225q-121 0 -176.5 -72t-55.5 -160q0 -141 170 -200l105 -37 q150 98 149 272q0 80 -43 138.5t-149 58.5zM514 59q102 0 171 55.5t91.5 116t22.5 113.5q0 63 -43 109.5t-146 81.5l-155 53q-31 10 -68 28q-131 -102 -131 -280q0 -117 64.5 -197t193.5 -80z" glyph-name="eight" horiz-adv-x="1132" unicode="8"/><glyph d="M631 1305q211 0 314.5 -134.5t103.5 -363.5q0 -215 -75 -401.5t-224.5 -306t-339.5 -119.5q-162 0 -240 75l45 60q90 -49 164 -49q96 0 171 47t122 126.5t73.5 168t38.5 188.5q-43 -47 -130 -94t-197 -47q-147 0 -247.5 93t-100.5 263q0 207 150.5 350.5t371.5 143.5z M608 1225q-121 0 -189.5 -119t-68.5 -275q0 -125 50.5 -196.5t146.5 -71.5q121 0 197.5 105.5t76.5 259.5q0 123 -52 210t-161 87z" glyph-name="nine" horiz-adv-x="1085" unicode="9"/><glyph d="M252 643q-57 0 -98 42t-41 99.5t41 98.5t98 41t98 -41t41 -98.5t-41 -99.5t-98 -42zM176 -12q-57 0 -98 42t-41 99t41 98t98 41t98 -41t41 -98t-41 -99t-98 -42z" glyph-name="colon" horiz-adv-x="428" unicode=":"/><glyph d="M243.5 641q-57.5 0 -98.5 42t-41 99.5t41 98.5t98.5 41t98.5 -41t41 -98.5t-41 -99.5t-98.5 -42zM92 -244l-37 45q98 76 115 152q8 33 -25 33q-51 0 -88 38.5t-37 92.5q0 68 43 109.5t113 41.5q68 0 108 -44t40 -113q0 -102 -67 -198t-165 -157z" glyph-name="semicolon" horiz-adv-x="428" unicode=";"/><glyph d="M102 459l13 110l809 336l-11 -88l-718 -303l645 -303l-11 -88z" glyph-name="less" horiz-adv-x="972" unicode="&lt;"/><glyph d="M137 739h758l-8 -80h-758zM92 371h758l-8 -80h-758z" glyph-name="equal" horiz-adv-x="964" unicode="="/><glyph d="M885 569l-13 -110l-809 -336l11 88l719 303l-646 303l11 88z" glyph-name="greater" horiz-adv-x="974" unicode=">"/><glyph d="M133 954q18 152 144 251.5t317 99.5q176 0 273.5 -87.5t80.5 -232.5q-10 -82 -53 -145.5t-100.5 -107.5t-115.5 -88t-107.5 -108.5t-65.5 -146.5h-94q2 127 48 224.5t101 146.5t106.5 114.5t61.5 135.5q10 84 -38 141t-136 57q-76 0 -130 -44t-63 -115 q-6 -45 15.5 -102.5t17.5 -86.5q-6 -47 -47 -79.5t-90 -32.5q-61 0 -99 55t-26 151zM444.5 -12q-57.5 0 -98.5 42t-41 99t41 98t98.5 41t98.5 -41t41 -98t-41 -99t-98.5 -42z" glyph-name="question" horiz-adv-x="956" unicode="?"/><glyph d="M903 -131q-102 -39 -248 -39q-262 0 -428 166t-166 422q0 313 225.5 541.5t536.5 228.5q262 0 427 -159t165 -411q0 -205 -97 -351t-267 -146q-158 0 -193 141q-41 -57 -113.5 -99t-156.5 -42t-144.5 44t-60.5 132q0 119 107.5 181.5t308.5 96.5q66 12 69 56 q20 195 -92 194q-90 0 -106 -120q-6 -45 -40 -71t-77 -26q-39 0 -62.5 21.5t-23.5 58.5q0 94 116.5 150.5t245.5 56.5q266 0 234 -279l-41 -340q-4 -35 9 -56t40 -21q63 0 99 128t36 269q0 223 -103.5 371.5t-289.5 148.5q-242 0 -391.5 -197.5t-149.5 -476.5 q0 -227 112 -383.5t314 -156.5q106 0 195 24zM680 223q55 0 103 40t55 110l8 78q4 33 -6.5 48t-44.5 9q-90 -14 -146.5 -65.5t-56.5 -120.5q0 -99 88 -99z" glyph-name="at" horiz-adv-x="1462" unicode="@"/><glyph d="M-16 0l8 68q80 16 126 59t93 131l438 811q59 111 74 203l147 14l297 -979q31 -100 42.5 -132t40 -65.5t75.5 -43.5l-8 -66h-520l8 68q84 12 105.5 55t-5.5 106l-22 72q-18 55 -101 55h-321q-82 0 -117 -63l-29 -51q-82 -145 109 -174l-8 -68h-432zM475 449h316 q47 0 34 45l-114 376q-8 27 -24.5 28t-29.5 -21l-206 -381q-10 -23 -3 -35t27 -12z" glyph-name="A" horiz-adv-x="1415" unicode="A"/><glyph d="M6 0l8 68q135 18 150 122l108 891q14 104 -118 123l8 68h586q481 0 481 -275q0 -125 -89 -203.5t-237 -105.5q317 -49 318 -297q0 -174 -141.5 -282.5t-348.5 -108.5q-35 0 -180 9t-289.5 9t-255.5 -18zM616 727h91q119 0 182 75t63 189q0 199 -204 199h-74 q-125 0 -137 -109l-29 -245q-6 -57 19.5 -83t88.5 -26zM496 90h141q152 0 229.5 81t77.5 220q0 133 -85 194.5t-271 61.5q-102 0 -117 -108l-45 -367q-10 -82 70 -82z" glyph-name="B" horiz-adv-x="1304" unicode="B"/><glyph d="M655 -20q-246 0 -411.5 153.5t-165.5 419.5q0 315 224 533.5t542 218.5q207 0 322.5 -92.5t115.5 -215.5q0 -78 -45 -137t-127 -59q-63 0 -97 36.5t-34 96.5q0 156 -43 225.5t-158 69.5q-123 0 -218 -89t-140 -219t-45 -272q0 -238 126 -373t310 -135q190 0 342 158 l41 -39q-66 -102 -205 -191t-334 -89z" glyph-name="C" horiz-adv-x="1290" unicode="C"/><glyph d="M6 0l8 68q135 18 150 122l108 891q14 104 -118 123l8 68h536q612 0 613 -527q0 -330 -199 -535.5t-528 -205.5q-37 0 -157 6t-175 6q-111 0 -246 -16zM557 86q150 0 259.5 100.5t158.5 249t49 320.5q0 213 -83 323.5t-241 110.5h-26q-123 0 -137 -109l-109 -891 q-12 -104 129 -104z" glyph-name="D" horiz-adv-x="1366" unicode="D"/><glyph d="M6 0l8 68q135 18 150 122l108 891q14 104 -118 123l8 68h928q39 0 38 -41q0 -100 15 -234h-45q-35 96 -85 139.5t-141 43.5h-200q-63 0 -95 -26t-40 -83l-35 -272q-8 -57 19.5 -83t90.5 -26h127q100 0 140.5 32t62.5 114h37l-47 -383h-37q-4 80 -36 112.5t-132 32.5h-127 q-63 0 -95 -25.5t-40 -83.5l-37 -290q-8 -57 20.5 -83t102.5 -26l217 2q109 2 156 33t133 145h45q-59 -129 -86 -235q-10 -35 -47 -35h-963z" glyph-name="E" horiz-adv-x="1165" unicode="E"/><glyph d="M6 0l8 68q135 18 150 122l108 891q14 104 -118 123l8 68h928q39 0 38 -41q0 -100 15 -234h-45q-35 96 -85 139.5t-141 43.5h-200q-63 0 -96 -26t-39 -83l-35 -272q-6 -57 20.5 -83t89.5 -26h127q100 0 139.5 29t59.5 96h37l-41 -342h-37q-6 66 -39 95.5t-131 29.5h-127 q-63 0 -95 -25.5t-40 -83.5l-37 -299q-8 -57 24.5 -84.5t114.5 -37.5l-8 -68h-553z" glyph-name="F" horiz-adv-x="1118" unicode="F"/><glyph d="M805 586l528 2l-6 -49q-78 -10 -104.5 -34t-34.5 -93l-49 -412q-45 35 -101.5 39t-105.5 -10.5t-131 -31.5t-156 -17q-238 0 -402.5 154.5t-164.5 418.5q0 317 225 534.5t545 217.5q207 0 322.5 -91.5t115.5 -214.5q0 -78 -49 -129t-131 -51q-70 0 -92.5 39t-22.5 117 q0 254 -211 254q-184 0 -294.5 -178.5t-110.5 -413.5q0 -242 123 -399.5t295 -157.5q113 0 131 86l28 246q8 70 -20.5 93t-132.5 34z" glyph-name="G" horiz-adv-x="1347" unicode="G"/><glyph d="M946 1272h533l-9 -68q-135 -18 -149 -123l-109 -891q-14 -104 119 -122l-8 -68h-532l8 68q135 18 149 122l39 322q2 33 -18.5 48t-55.5 15h-356q-82 0 -90 -67l25 205l-64 -523q-14 -104 119 -122l-8 -68h-533l8 68q135 18 150 122l108 891q14 104 -118 123l8 68h532 l-8 -68q-135 -18 -149 -123l-41 -340q-2 -31 18.5 -47t56.5 -16h353q84 0 92 67l-4 -32l45 368q14 104 -119 123zM496 745v-2v2z" glyph-name="H" horiz-adv-x="1441" unicode="H"/><glyph d="M6 0l8 68q135 18 150 122l108 891q14 104 -118 123l8 68h532l-8 -68q-135 -18 -149 -123l-109 -891q-14 -104 119 -122l-8 -68h-533z" glyph-name="I" horiz-adv-x="657" unicode="I"/><glyph d="M209 -20q-127 0 -206 54t-79 146q0 68 41 112t109 44q113 0 96 -139q-16 -143 70 -144q76 0 90 137l110 891q6 57 -26.5 85t-112.5 38l8 68h553l-8 -68q-70 -10 -105.5 -37.5t-43.5 -85.5l-95 -768q-14 -121 -82.5 -199.5t-148.5 -106t-170 -27.5z" glyph-name="J" horiz-adv-x="823" unicode="J"/><glyph d="M852 827q-43 -43 -45 -81.5t29 -81.5l241 -402q61 -100 115.5 -140t124.5 -54l-8 -68h-582l8 68q133 31 72 135l-156 262q-66 111 -123 53l-32 -33q-18 -18 -27.5 -38.5t-11.5 -34t-8 -54.5l-21 -168q-14 -104 119 -122l-8 -68h-533l8 68q135 18 150 122l108 891 q14 104 -118 123l8 68h532l-8 -68q-135 -18 -149 -123l-62 -512l529 506q51 53 31.5 89t-83.5 40l9 68h438l-8 -68q-66 -4 -146 -41t-141 -96z" glyph-name="K" horiz-adv-x="1406" unicode="K"/><glyph d="M6 0l8 68q135 18 150 122l108 891q14 104 -118 123l8 68h532l-8 -68q-135 -18 -149 -123l-109 -891q-8 -59 22.5 -87.5t108.5 -24.5l205 10q92 4 147.5 36t102.5 97l49 72h61l-49 -125q-37 -96 -41 -168h-1028z" glyph-name="L" horiz-adv-x="1185" unicode="L"/><glyph d="M1339 1272h400l-8 -68q-70 -10 -106 -37.5t-44 -85.5l-111 -891q-14 -104 119 -122l-8 -68h-532l8 68q70 10 105.5 37.5t43.5 84.5l103 840l-529 -911h-78l-321 903l-102 -832q-14 -104 120 -122l-8 -68h-385l8 68q135 18 150 122l108 891q14 104 -118 123l8 68h399 l297 -836z" glyph-name="M" horiz-adv-x="1699" unicode="M"/><glyph d="M1032 1272h383l-8 -68q-70 -10 -105.5 -37.5t-44.5 -85.5l-133 -1081h-104l-647 950l-94 -760q-14 -104 118 -122l-8 -68h-383l8 68q135 18 150 122l108 891q14 104 -118 123l8 68h321l578 -852l82 661q14 104 -119 123z" glyph-name="N" horiz-adv-x="1376" unicode="N"/><glyph d="M627 -20q-233 0 -392 150.5t-159 401.5q0 322 216 547.5t525 225.5q233 0 392 -150.5t159 -402.5q0 -319 -217 -545.5t-524 -226.5zM698 76q123 0 209 96t123 231.5t37 286.5q0 229 -89 373.5t-233 144.5q-123 0 -209.5 -97t-122.5 -231.5t-36 -287.5q0 -229 89 -372.5 t232 -143.5z" glyph-name="O" horiz-adv-x="1400" unicode="O"/><glyph d="M6 0l8 68q135 18 150 122l108 891q14 104 -118 123l8 68h583q244 0 368 -91t124 -266q0 -213 -165 -334.5t-427 -121.5h-78q-59 0 -85.5 -25.5t-32.5 -83.5l-21 -160q-8 -57 24.5 -84.5t114.5 -37.5l-8 -68h-553zM580 561h77q158 0 238 100.5t80 260.5q0 123 -56.5 185 t-185.5 62h-100q-84 0 -96 -96l-50 -403q-8 -57 14 -83t79 -26z" glyph-name="P" horiz-adv-x="1236" unicode="P"/><glyph d="M1171 43q55 0 80 -39t19 -98q-10 -102 -107.5 -172t-228.5 -70q-170 0 -285 115l-207 209q-45 45 -84 45t-58 -29t-26 -70q-8 -51 -43.5 -81.5t-83.5 -30.5q-51 0 -79.5 36t-20.5 91q18 131 186 182q-158 152 -157 401q0 322 216 547.5t525 225.5q233 0 392 -150.5 t159 -402.5q0 -299 -193.5 -519.5t-478.5 -248.5l146 -146q59 -59 99 -74.5t60.5 13t27.5 57.5t13 82q6 55 41 91t88 36zM745 1208q-123 0 -209.5 -97t-122.5 -231.5t-36 -287.5q0 -229 89 -372.5t232 -143.5q123 0 209 96t123 231.5t37 286.5q0 229 -89.5 373.5 t-232.5 144.5z" glyph-name="Q" horiz-adv-x="1400" unicode="Q"/><glyph d="M6 0l8 68q135 18 150 122l108 891q14 104 -118 123l8 68h635q203 0 319.5 -78t116.5 -221q0 -145 -92 -242.5t-246 -120.5q-10 -2 -12 -12t8 -12q86 -29 130 -86.5t71 -173.5q39 -170 65 -211q29 -47 78 -47l-10 -68h-105q-84 0 -139 18.5t-93 66.5t-59.5 105.5 t-46.5 157.5q-29 115 -69.5 160t-124.5 45q-66 0 -94.5 -25.5t-34.5 -83.5l-31 -254q-8 -57 24.5 -84.5t114.5 -37.5l-8 -68h-553zM592 655h86q131 0 207 88t76 226q0 201 -197 200h-131q-84 0 -96 -96l-39 -309q-8 -57 13.5 -83t80.5 -26z" glyph-name="R" horiz-adv-x="1325" unicode="R"/><glyph d="M481 -20q-125 0 -234.5 30.5t-172.5 77.5q-33 109 -14.5 218.5t81.5 109.5q16 0 23.5 -9.5t13.5 -35.5q35 -143 128 -219t220 -76q111 0 173.5 57t62.5 150q0 49 -21.5 84.5t-70.5 64.5t-87 44.5t-114 39.5q-340 113 -340 381q0 182 146.5 295t363.5 113q109 0 215.5 -29 t167.5 -74q31 -109 13.5 -218.5t-81.5 -109.5q-18 0 -26 9.5t-13 36.5q-25 137 -115.5 212.5t-205.5 75.5q-102 0 -162.5 -58t-60.5 -151q0 -84 61.5 -132t185.5 -91q70 -25 111 -40t104.5 -51t99.5 -73t63.5 -97t27.5 -132q0 -193 -158 -298t-385 -105z" glyph-name="S" horiz-adv-x="1107" unicode="S"/><glyph d="M1247 1343q43 0 72 -31.5t29 -80.5q0 -100 -105.5 -142t-281.5 -6l-74 15l-2 -13l-111 -895q-8 -57 28 -84.5t132 -37.5l-8 -68h-613l9 68q96 8 138 35.5t50 86.5l104 834q8 72 -8 103.5t-63 41.5h-2q-231 47 -232 -28q0 -12 17.5 -41t17.5 -49q0 -47 -29.5 -70 t-68.5 -23q-53 0 -89 37t-36 99q0 109 117.5 156.5t298.5 11.5l419 -86q242 -49 242 16q0 12 -16.5 34.5t-16.5 47.5q0 29 23.5 49t58.5 20z" glyph-name="T" horiz-adv-x="1296" unicode="T"/><glyph d="M643 -20q-233 0 -357 139t-89 422l65 540q14 104 -119 123l9 68h534l-8 -68q-70 -10 -105.5 -37.5t-44.5 -85.5l-63 -512q-55 -457 254 -456q145 0 248.5 108.5t130.5 335.5l63 524q14 102 -127 123l8 68h394l-9 -68q-141 -20 -155 -123l-70 -561q-31 -254 -175 -397 t-384 -143z" glyph-name="U" horiz-adv-x="1386" unicode="U"/><glyph d="M584 0l-295 965q-47 156 -72 188q-29 41 -84 53l8 66h518l-8 -68q-84 -12 -104.5 -55t6.5 -107l195 -643q4 -18 14 -24t20.5 -1t18.5 21l342 635q80 145 -111 174l8 68h433l-9 -68q-78 -16 -124 -59t-93 -131l-438 -811q-66 -123 -74 -203h-151z" glyph-name="V" horiz-adv-x="1413" unicode="V"/><glyph d="M543 0l-258 965q-35 135 -59.5 180t-92.5 61l8 66h508l-8 -68q-84 -12 -104.5 -55t2.5 -107l163 -630q4 -16 13.5 -22.5t19.5 -0.5t19 23l157 325q47 94 62.5 154.5t-2.5 128.5q-25 94 -51.5 133t-85.5 53l8 66h508l-9 -68q-84 -12 -104 -55t2 -107l164 -630 q4 -16 13 -22.5t19.5 -0.5t18.5 23l301 618q72 147 -108 174l8 68h432l-8 -68q-80 -16 -127 -59t-92 -131l-400 -811q-63 -127 -76 -203h-141l-205 768l-278 -565q-63 -127 -76 -203h-141z" glyph-name="W" horiz-adv-x="2027" unicode="W"/><glyph d="M1415 1204q-80 -6 -201.5 -99t-339.5 -345l-53 -64l242 -428q106 -188 217 -200l-8 -68h-555l8 68q70 8 92.5 46t-8.5 89l-174 309q-346 -365 -270 -428q16 -14 49 -16l-8 -68h-422l8 68q80 6 201.5 99t338.5 345l62 72l-236 417q-109 190 -221 203l8 68h557l-8 -68 q-70 -8 -92 -46t8 -89l170 -301q348 371 254 426q-16 8 -41 10l8 68h422z" glyph-name="X" horiz-adv-x="1370" unicode="X"/><glyph d="M295 0l8 68q96 8 138 35.5t51 86.5l34 275q10 82 -22 149l-189 381q-53 109 -92 155t-100 54l8 68h533l-9 -68q-72 -10 -91 -46t16 -116l170 -352q8 -20 26 0l262 354q49 66 32 109t-95 51l8 68h395l-8 -68q-66 -6 -117 -51t-112 -127l-295 -401q-43 -59 -55 -160 l-35 -275q-8 -57 28.5 -84.5t130.5 -37.5l-8 -68h-612z" glyph-name="Y" horiz-adv-x="1308" unicode="Y"/><glyph d="M-27 0l916 1188l-369 -2q-115 0 -177 -49.5t-128 -161.5h-68l101 297h1001l-915 -1188l414 2q121 0 178 48t139 183h68l-113 -317h-1047z" glyph-name="Z" horiz-adv-x="1191" unicode="Z"/><glyph d="M420 1413l-205 -1612l176 -39q41 -8 37 -38l-8 -64l-422 29l231 1837l430 28l-10 -75q-2 -20 -41 -27z" glyph-name="bracketleft" horiz-adv-x="575" unicode="["/><glyph d="M711 0h-150l-385 1313h150z" glyph-name="backslash" horiz-adv-x="839" unicode="\"/><glyph d="M410 1413l-193 39q-20 4 -30.5 12.5t-8.5 20.5l8 69l461 -28l-225 -1837l-469 -29l8 70q6 27 47 32l205 39z" glyph-name="bracketright" horiz-adv-x="608" unicode="]"/><glyph d="M522 1395q20 20 42 18t32 -18l242 -391q18 -31 3.5 -55.5t-44.5 -24.5h-25q-27 0 -65 43l-177 207l-225 -207q-43 -43 -80 -43h-24q-29 0 -36 24.5t17 55.5z" glyph-name="asciicircum" horiz-adv-x="888" unicode="^"/><glyph d="M43 -41h1049l-17 -121h-1048z" glyph-name="underscore" horiz-adv-x="1255" unicode="_"/><glyph d="M616 1174q37 -41 10.5 -72t-69.5 -4l-248 147q-68 41 -88 87t21 100q80 82 182 -35z" glyph-name="grave" horiz-adv-x="659" unicode="`"/><glyph d="M391 -12q-139 0 -238.5 96t-99.5 281q0 238 159 407.5t384 169.5q55 0 111.5 -12t91.5 -23.5t91 -9.5t124 27l-88 -709q-8 -63 29.5 -91t97.5 -1l-11 -64q-86 -72 -198 -71q-111 0 -146 100q-6 16 -11 21.5t-16.5 1t-27.5 -20.5q-102 -102 -252 -102zM504 123 q82 0 143.5 66.5t77.5 199.5l20 170q18 150 -26.5 227.5t-128.5 77.5q-123 0 -204 -137t-81 -311q0 -143 56.5 -218t142.5 -75z" glyph-name="a" horiz-adv-x="1124" unicode="a"/><glyph d="M756 946q113 0 210 -105.5t97 -279.5q0 -223 -160 -398t-409 -175q-162 0 -269.5 78.5t-87.5 232.5l99 774q12 98 -14.5 130t-106.5 32l10 70q209 0 371 41l-47 -367q-6 -70 6 -97.5t43.5 -20.5t67.5 25.5t90.5 39t99.5 20.5zM530 61q121 0 202 135.5t81 313.5 q0 137 -52 226t-138 89q-78 0 -145.5 -78.5t-90.5 -254.5l33 262l-49 -389q-18 -145 26.5 -224.5t132.5 -79.5z" glyph-name="b" horiz-adv-x="1116" unicode="b"/><glyph d="M463 -12q-172 0 -289 111.5t-117 295.5q0 94 34 190.5t96.5 177.5t163 132t220.5 51q150 0 230 -70.5t80 -168.5q0 -57 -29 -98.5t-90 -41.5q-49 0 -72.5 27t-23.5 65q0 14 5 43t5 41q0 43 -36 86t-112 43q-113 0 -175 -107.5t-62 -268.5q0 -166 69.5 -267.5 t208.5 -101.5q135 0 215 80l39 -51q-53 -66 -147 -117t-213 -51z" glyph-name="c" horiz-adv-x="911" unicode="c"/><glyph d="M391 -12q-139 0 -238.5 96t-99.5 281q0 233 152.5 405t351.5 172q51 0 102.5 -13.5t74 -21.5t38.5 4.5t23 59.5l12 102q12 98 -14.5 130t-106.5 32l10 70q209 0 371 41l-141 -1131q-8 -63 29.5 -91t97.5 -1l-11 -64q-86 -72 -198 -71q-111 0 -146 100q-6 16 -11 21.5 t-16.5 1t-27.5 -20.5q-102 -102 -252 -102zM504 123q82 0 143.5 66.5t77.5 199.5l23 182q18 143 -28 217t-130 74q-125 0 -205 -137t-80 -315q0 -137 56.5 -212t142.5 -75z" glyph-name="d" horiz-adv-x="1114" unicode="d"/><glyph d="M383 381q-90 -16 -45 -113q72 -141 231 -141q135 0 215 80l39 -51q-53 -66 -147 -117t-215 -51q-170 0 -287 111.5t-117 295.5q0 94 34 190.5t97.5 177.5t164 132t220.5 51q154 0 238 -72.5t84 -183.5q0 -115 -100.5 -184.5t-319.5 -108.5zM543 872q-117 0 -182.5 -101 t-69.5 -257q2 -74 88 -61l41 6q88 14 145.5 42.5t82 65.5t31.5 66t7 63q0 176 -143 176z" glyph-name="e" horiz-adv-x="929" unicode="e"/><glyph d="M20 -442q-131 0 -191 53t-60 129q0 59 32.5 92t79.5 33q41 0 70 -27.5t29 -79.5q0 -23 6 -49t27.5 -52t56 -26t57.5 19.5t38 76t18 79t14 102.5q2 18 4 29l104 837q4 37 -6 51.5t-41 14.5h-127l8 49l117 20q68 10 76 74q25 188 131 285.5t274 97.5q131 0 191.5 -53 t60.5 -129q0 -59 -32.5 -92t-79.5 -33q-41 0 -70 27.5t-29 78.5q0 23 -6 49.5t-27.5 52t-56.5 25.5q-16 0 -30.5 -5t-25.5 -18.5t-19.5 -25.5t-15.5 -34.5t-11 -38t-9.5 -45t-7.5 -45t-6 -48.5t-6 -45q-4 -37 13.5 -50t54.5 -13h192l-14 -84h-201q-35 0 -51 -13.5t-21 -52.5 l-104 -833q-25 -188 -131.5 -285.5t-274.5 -97.5z" glyph-name="f" horiz-adv-x="880" unicode="f"/><glyph d="M340 -410q-143 0 -235.5 53.5t-92.5 147.5q0 59 34 92t81 33q41 0 71.5 -27.5t30.5 -76.5q0 -147 146 -148q129 0 205.5 94.5t99.5 268.5l8 67q2 20 -12 19q-12 -2 -33 -23q-102 -102 -252 -102q-139 0 -238.5 96t-99.5 281q0 238 159 407.5t384 169.5q55 0 111.5 -12 t91.5 -23.5t91 -9.5t124 27l-109 -871q-29 -231 -191.5 -347t-373.5 -116zM504 123q82 0 143.5 66.5t77.5 199.5l20 170q18 150 -26.5 227.5t-128.5 77.5q-123 0 -204 -137t-81 -311q0 -143 56.5 -218t142.5 -75z" glyph-name="g" horiz-adv-x="1058" unicode="g"/><glyph d="M885 -12q-70 0 -119 48t-39 124l47 350q18 141 -9.5 207.5t-117.5 66.5q-98 0 -173 -94t-91 -233l-57 -457h-228l138 1073q12 98 -14.5 130t-106.5 32l10 70q209 0 371 41l-74 -584q-4 -37 4 -35q4 0 57 59q147 160 305 160q113 0 177.5 -84t40.5 -282l-48 -369 q-8 -66 31 -90.5t98 2.5l-10 -64q-90 -71 -192 -71z" glyph-name="h" horiz-adv-x="1159" unicode="h"/><glyph d="M331.5 1081q-59.5 0 -102.5 42t-43 102q0 61 43 103t102.5 42t101.5 -42t42 -103q0 -59 -42 -101.5t-101.5 -42.5zM262 -12q-68 0 -116 48t-37 124l79 559q8 61 -29.5 85.5t-97.5 -1.5l11 63q86 72 194 72q68 0 116 -48t38 -124l-80 -559q-8 -61 30 -86t97 2l-10 -64 q-93 -71 -195 -71z" glyph-name="i" horiz-adv-x="538" unicode="i"/><glyph d="M378.5 1081q-59.5 0 -102.5 42t-43 102q0 61 43 103t102.5 42t101.5 -42t42 -103q0 -59 -42 -101.5t-101.5 -42.5zM-29 -410q-125 0 -187.5 54.5t-62.5 130.5q0 57 35 90t82 33q41 0 70 -28t29 -77q0 -129 77 -129q59 0 85 79t44 228l93 748q8 61 -30 85.5t-97 -1.5 l10 63q86 72 194 72q68 0 115 -48t39 -124l-96 -774q-25 -199 -130.5 -300.5t-269.5 -101.5z" glyph-name="j" horiz-adv-x="563" unicode="j"/><glyph d="M831 221q45 -53 67 -76.5t58.5 -48t75.5 -26.5l-10 -70h-264l-367 451q367 133 367 268q0 41 -28 65.5t-71 24.5q-92 0 -166.5 -85t-99.5 -187l-67 -537h-228l138 1073q12 98 -14.5 130t-106.5 32l10 70q209 0 371 41l-68 -529q0 -47 59 -16q14 10 56 35q170 106 262 110 q70 0 116 -42t46 -111q0 -156 -301 -293q-47 -20 -13 -64z" glyph-name="k" horiz-adv-x="1081" unicode="k"/><glyph d="M270 -12q-82 0 -121.5 46t-29.5 126l117 913q12 98 -14.5 130t-106.5 32l10 70q211 0 373 41l-146 -1139q-8 -61 30 -86t97 2l-10 -64q-86 -71 -199 -71z" glyph-name="l" horiz-adv-x="540" unicode="l"/><glyph d="M1487 -12q-70 0 -118 48t-38 124l47 350q18 145 -9.5 209.5t-117.5 64.5q-100 0 -175 -98t-91 -246l-53 -440h-225l65 510q18 145 -9.5 209.5t-117.5 64.5q-102 0 -176 -102t-92 -256l-51 -426h-226l88 719q8 61 -29.5 85.5t-97.5 -1.5l11 63q90 72 192 72q68 0 112 -46 t44 -130q0 -37 10 -35q8 0 62 59q141 160 294 160q178 0 215 -184q12 -63 48 -37q12 8 47 47q109 123 196 156q49 18 101 18q113 0 177 -84t40 -282l-47 -369q-8 -66 30.5 -90.5t98.5 2.5l-11 -64q-90 -71 -194 -71z" glyph-name="m" horiz-adv-x="1763" unicode="m"/><glyph d="M883 -12q-70 0 -119 48t-39 124l47 350q18 145 -9.5 209.5t-117.5 64.5q-102 0 -176 -102t-92 -256l-51 -426h-226l88 719q8 61 -29.5 85.5t-97.5 -1.5l11 63q90 72 192 72q68 0 112 -46t44 -130q0 -37 10 -35q8 0 62 59q141 160 294 160q113 0 177.5 -84t40.5 -282 l-48 -369q-8 -66 31 -90.5t98 2.5l-10 -64q-90 -71 -192 -71z" glyph-name="n" unicode="n"/><glyph d="M469 -12q-180 0 -296 111.5t-116 297.5q0 211 144.5 380t365.5 169q180 0 297 -111.5t117 -297.5q0 -211 -145.5 -380t-366.5 -169zM510 61q113 0 166 128t53 298q0 166 -52 275.5t-151 109.5q-113 0 -166 -128t-53 -298q0 -166 52.5 -275.5t150.5 -109.5z" glyph-name="o" horiz-adv-x="1036" unicode="o"/><glyph d="M45 -410l143 1129q8 61 -29.5 85.5t-97.5 -1.5l11 63q86 72 194 72q61 0 105.5 -41t46.5 -90q2 -29 10 -29q4 0 49 49q115 119 258 119q135 0 230.5 -101.5t95.5 -277.5q0 -229 -154.5 -404t-351.5 -175q-57 0 -110.5 20.5t-73 32.5t-33.5 -4.5t-23 -81.5l-10 -92 q-12 -98 14.5 -130t106.5 -32l-10 -70q-201 0 -371 -41zM528 61q121 0 202 135.5t81 313.5q0 139 -50 227t-136 88q-78 0 -147.5 -78.5t-92.5 -254.5l-18 -144q-14 -137 30.5 -212t130.5 -75z" glyph-name="p" horiz-adv-x="1114" unicode="p"/><glyph d="M627 -410l61 496q4 27 -12 27q-12 -2 -33 -23q-102 -102 -252 -102q-139 0 -238.5 96t-99.5 281q0 238 159 407.5t384 169.5q55 0 111.5 -12t91.5 -23.5t91 -9.5t124 27l-127 -1061q-12 -98 14.5 -130t106.5 -32l-11 -70q-200 0 -370 -41zM504 123q82 0 141.5 66.5 t77.5 199.5l22 170q18 150 -26.5 227.5t-128.5 77.5q-123 0 -204 -138t-81 -312q0 -141 56.5 -216t142.5 -75z" glyph-name="q" horiz-adv-x="1101" unicode="q"/><glyph d="M100 0l88 719q8 61 -29.5 85.5t-97.5 -1.5l11 63q90 72 192 72q68 0 112 -46t44 -130q0 -35 10 -35q8 0 55 57q133 162 271 162q61 0 97 -28.5t36 -75.5q0 -96 -160 -160h-2q0 104 -92 104q-96 0 -168 -103t-90 -257l-51 -426h-226z" glyph-name="r" horiz-adv-x="884" unicode="r"/><glyph d="M348 -12q-156 0 -240.5 70.5t-84.5 162.5q0 45 22.5 80t73.5 35q35 0 52 -13.5t19.5 -27.5t2.5 -43v-6q0 -90 45 -142.5t122 -52.5q82 0 118 44t36 95q0 45 -43 88.5t-103.5 82t-121 82.5t-103.5 108.5t-43 140.5q0 111 92.5 182.5t248 71.5t232.5 -68.5t77 -158.5 q0 -98 -101 -98q-74 0 -74 71q0 86 -34.5 139.5t-106.5 53.5q-61 0 -89 -35t-28 -80q0 -53 44.5 -100t105.5 -84t123.5 -78t106.5 -101.5t44 -134.5q0 -117 -109.5 -200.5t-283.5 -83.5z" glyph-name="s" horiz-adv-x="817" unicode="s"/><glyph d="M383 -12q-262 0 -223 315l59 481q4 31 -6 43.5t-41 12.5h-84l6 59q131 10 204 70.5t108 175.5h83l-20 -166q-8 -55 49 -55h180l-10 -84h-180q-55 0 -64 -56l-63 -528q-18 -170 82 -170q63 0 110 33l27 -64q-86 -67 -217 -67z" glyph-name="t" horiz-adv-x="679" unicode="t"/><glyph d="M360 -12q-113 0 -177 82t-40 276l47 369q8 66 -30.5 90t-98.5 -2l11 63q90 72 192 72q70 0 119 -48t39 -124l-47 -350q-18 -139 9.5 -202.5t117.5 -63.5q104 0 177 98t91 252l27 215q8 66 -31 90t-98 -2l10 63q90 72 192 72q70 0 118 -48t40 -124l-70 -559q-8 -61 30 -86 t97 2l-10 -64q-90 -72 -192 -71q-68 0 -112 46t-44 130q0 37 -10 37q-8 0 -62 -60q-141 -153 -295 -153z" glyph-name="u" unicode="u"/><glyph d="M403 0l-170 713q-16 72 -59 95t-102 -5l10 63q86 72 190 72q78 0 121 -50t66 -151l119 -512q6 -25 21 -27.5t32 17.5q131 184 215 397q49 125 -5.5 175.5t-133.5 15.5l10 63q100 72 186 72q63 0 88 -44t16.5 -102.5t-36.5 -121.5q-68 -152 -199 -349.5t-260 -320.5h-109z " glyph-name="v" horiz-adv-x="1028" unicode="v"/><glyph d="M391 0l-158 713q-14 70 -59 94t-102 -4l10 63q86 72 188 72q78 0 122 -50t65 -151l108 -512q4 -25 20.5 -27.5t32.5 17.5q102 143 187 348q27 66 30 118t-10.5 81t-37 44t-52 13t-53.5 -16l10 63q86 72 189 72q78 0 122 -50t64 -151l109 -512q4 -25 20 -27.5t33 17.5 q109 152 205 397q49 125 -5.5 175.5t-134.5 15.5l11 63q100 72 186 72q63 0 88 -44t16.5 -102.5t-36.5 -121.5q-70 -158 -196 -353.5t-253 -316.5h-109l-118 541q-182 -348 -383 -541h-109z" glyph-name="w" horiz-adv-x="1615" unicode="w"/><glyph d="M852 938q61 0 94 -29.5t33 -72.5q0 -31 -21.5 -54.5t-56.5 -23.5q-33 0 -60.5 39t-45.5 39q-53 0 -183 -222l-45 -75l144 -326q61 -139 166 -86l-11 -64q-88 -72 -186 -71q-39 0 -66.5 11t-51 47t-33 54.5t-37.5 83.5l-56 125l-63 -106q-68 -117 -122 -166t-128 -49 q-63 0 -95 26.5t-32 67.5q0 31 21.5 54.5t56.5 23.5q33 0 60.5 -35t45.5 -35q53 0 182 221l41 72l-145 330q-61 139 -166 86l10 63q88 72 187 72q39 0 66.5 -11.5t51 -47t33 -54t37.5 -84.5l58 -131l67 113q68 117 122 166t128 49z" glyph-name="x" horiz-adv-x="974" unicode="x"/><glyph d="M-10 -410q-63 0 -110.5 43t-47.5 113q0 57 35 96t96 39q47 0 68.5 -24.5t20.5 -53t8.5 -53t35.5 -24.5q139 0 332 243l-182 744q-16 72 -59.5 95t-102.5 -5l10 63q86 72 191 72q78 0 121 -50t65 -151l119 -512q6 -25 21.5 -27.5t31.5 17.5q131 184 215 397 q49 125 -5 175.5t-134 15.5l10 63q100 72 186 72q63 0 88 -44t17 -102.5t-37 -121.5q-86 -195 -266 -444t-389 -442.5t-338 -193.5z" glyph-name="y" horiz-adv-x="1040" unicode="y"/><glyph d="M-6 0l637 840h-172q-154 0 -210 -36t-93 -126h-64l70 246h792l-637 -840h187q154 0 210 36t93 126h63l-69 -246h-807z" glyph-name="z" horiz-adv-x="937" unicode="z"/><glyph d="M369 82q-25 -145 -20 -240.5t59 -128.5l-74 -51q-86 39 -129 107.5t-46 148.5t7 176l45 359q6 45 -12.5 64.5t-89.5 55.5l6 68q78 37 104.5 60.5t30.5 68.5l47 358q20 160 75.5 263.5t192.5 160.5l70 -59q-63 -33 -88 -116t-47 -261l-39 -307q-18 -158 -178 -203l-9 -6 q156 -45 136 -211z" glyph-name="braceleft" horiz-adv-x="559" unicode="{"/><glyph d="M350 1638h76l-256 -2078h-76z" glyph-name="bar" horiz-adv-x="485" unicode="|"/><glyph d="M96 88l37 307q20 162 191 207l2 6q-162 45 -142 207l39 307q25 145 19 242.5t-64 130.5l82 55q129 -57 163 -162.5t13 -265.5l-43 -358q-6 -45 15.5 -66.5t95.5 -58.5l-8 -68q-82 -37 -109 -58t-33 -67l-45 -358q-20 -160 -79.5 -265.5t-202.5 -162.5l-68 55 q66 33 90 114t47 259z" glyph-name="braceright" horiz-adv-x="573" unicode="}"/><glyph d="M954 614q-14 -121 -86.5 -186.5t-183.5 -65.5q-96 0 -226 73t-179 73q-41 0 -74 -25.5t-39 -72.5h-70q14 121 87 186.5t184 65.5q96 0 226 -73t179 -73q43 0 75 24.5t38 73.5h69z" glyph-name="asciitilde" horiz-adv-x="1038" unicode="~"/><glyph d="M262 938q57 0 98 -42t41 -99.5t-41 -98.5t-98 -41t-98 41t-41 98.5t41 99.5t98 42zM283 512q-20 -186 -3 -414.5t7 -312.5q-8 -74 -55.5 -119t-111 -45t-97 45t-25.5 119q10 84 83 315.5t99 411.5h103z" glyph-name="exclamdown" horiz-adv-x="452" unicode="¡"/><glyph d="M762 567q-49 0 -72.5 27t-23.5 65q0 14 5 43t5 41q0 49 -37 86l-252 -632q74 -70 182 -70q135 0 215 80l39 -51q-53 -66 -147 -117t-213 -51q-80 0 -148 24l-55 -137h-53l61 158q-96 47 -153.5 141t-57.5 221q0 94 34 190.5t96.5 177.5t163 132t220.5 51q23 0 60 -4 l47 121h53l-51 -129q98 -23 149.5 -86.5t51.5 -140.5q0 -57 -29 -98.5t-90 -41.5zM291 496q0 -156 61 -254l246 618q-31 12 -70 12q-113 0 -175 -107t-62 -269z" glyph-name="cent" horiz-adv-x="911" unicode="¢"/><glyph d="M631 203q135 0 201.5 29.5t103.5 113.5h65l-59 -217q-27 -90 -8 -129h-905l18 150q109 63 159 119.5t50 136.5q0 33 -6 65h-166l6 55h146q-8 29 -35 110t-40.5 142.5t-13.5 120.5q0 186 141.5 296t358.5 110q195 0 302.5 -89.5t107.5 -226.5q0 -106 -51.5 -171.5 t-128.5 -65.5q-45 0 -79 23.5t-34 72.5q0 33 24.5 88t24.5 108q0 80 -46 130.5t-128 50.5q-106 0 -164.5 -82t-58.5 -180q0 -74 47 -217.5t47 -219.5h315l-6 -55h-313q-16 -94 -85 -156.5t-173 -111.5h383z" glyph-name="sterling" horiz-adv-x="1097" unicode="£"/><glyph d="M973 520q0 -168 -115 -307l121 -143l-102 -95l-121 144q-117 -80 -246 -80q-131 0 -223 80l-154 -144l-80 95l154 143q-51 90 -51 199q0 168 110 305l-114 139l100 96l117 -139q117 80 245 80q133 0 230 -84l153 143l78 -96l-153 -141q51 -86 51 -195zM289 426 q0 -109 66.5 -182.5t170.5 -73.5q123 0 218.5 102.5t95.5 233.5q0 106 -69 181t-173 75q-125 0 -217 -101.5t-92 -234.5z" glyph-name="currency" horiz-adv-x="1130" unicode="¤"/><glyph d="M983 1272h395l-8 -68q-66 -6 -117 -51t-112 -127l-295 -401q-18 -27 -37 -66h276l-6 -55h-282l-6 -39l-11 -86h283l-6 -55h-285l-16 -134q-8 -57 28.5 -84.5t130.5 -37.5l-8 -68h-612l8 68q96 8 138 35.5t51 86.5l16 134h-283l6 55h285l10 86q2 14 2 39h-280l6 55h270 q-4 18 -20 55l-189 381q-53 109 -92 155t-100 54l8 68h533l-9 -68q-72 -10 -91 -46t16 -116l170 -352q8 -20 26 0l262 354q49 66 32 109t-95 51z" glyph-name="yen" horiz-adv-x="1308" unicode="¥"/><glyph d="M262 924l88 714h76l-88 -714h-76zM94 -440l88 714h76l-88 -714h-76z" glyph-name="brokenbar" horiz-adv-x="485" unicode="¦"/><glyph d="M940 481q0 -207 -178 -282q117 -92 117 -230q0 -186 -143.5 -282.5t-352.5 -96.5q-109 0 -207 28t-158 71q-31 100 -14.5 198.5t74.5 98.5q16 0 22 -7.5t13 -33.5q29 -131 115.5 -199t205.5 -68q96 0 152.5 52.5t56.5 136.5q0 35 -16.5 64.5t-35 47t-63.5 39t-69.5 30.5 t-83.5 30q-305 106 -305 338q0 195 174 278q-113 92 -113 230q0 172 130 276.5t327 104.5q102 0 199.5 -26t152.5 -67q29 -100 12.5 -198.5t-73.5 -98.5q-14 0 -21.5 8.5t-13.5 30.5q-25 127 -107 195t-186 68q-90 0 -145.5 -51.5t-55.5 -137.5q0 -76 55.5 -120t169.5 -83 q80 -27 127.5 -47t111 -61t95 -99.5t31.5 -136.5zM514 313q92 -33 148 -57q43 49 43 125q0 35 -16.5 64.5t-36 47t-62.5 38t-68.5 29.5t-83.5 30q-72 27 -110 47q-41 -47 -41 -121q0 -76 56 -120t171 -83z" glyph-name="section" horiz-adv-x="1013" unicode="§"/><glyph d="M342 1081q-59 0 -102 42t-43 102q0 61 43 103t102 42t101 -42t42 -103q0 -59 -42 -101.5t-101 -42.5zM782.5 1081q-59.5 0 -102.5 42t-43 102q0 61 43 103t102.5 42t101.5 -42t42 -103q0 -59 -42 -101.5t-101.5 -42.5z" glyph-name="dieresis" horiz-adv-x="935" unicode="¨"/><glyph d="M645 -20q-252 0 -409.5 160.5t-157.5 412.5q0 305 215 528.5t516 223.5q250 0 407.5 -161t157.5 -409q0 -309 -213 -532t-516 -223zM653 49q268 0 459 200t191 474q0 223 -140.5 367.5t-363.5 144.5q-268 0 -458.5 -200.5t-190.5 -475.5q0 -221 141 -365.5t362 -144.5z M700 252q-141 0 -239.5 86t-98.5 237q0 207 134.5 323t304.5 116q117 0 188.5 -56.5t71.5 -132.5q0 -51 -26.5 -88t-78.5 -37q-49 0 -70.5 30t-17.5 71q14 57 -13.5 100t-84.5 43q-94 0 -144.5 -92t-50.5 -213q0 -125 62.5 -197.5t169.5 -72.5q94 0 170 86l37 -37 q-37 -61 -119 -113.5t-195 -52.5z" glyph-name="copyright" horiz-adv-x="1406" unicode="©"/><glyph d="M332 668q-86 -2 -140.5 36.5t-44.5 120.5q10 80 96.5 131.5t305.5 83.5l2 19q18 166 -74 166q-72 0 -82 -70q-14 -90 -110 -90q-37 0 -54.5 20.5t-13.5 49.5q8 68 102.5 108.5t204.5 40.5q113 0 159 -53t32 -170l-27 -225q-6 -49 6.5 -64.5t57.5 0.5l-9 -67 q-59 -41 -130.5 -24t-80.5 95q-71 -106 -200 -108zM383 758q55 0 98 44t51 107l9 68q-90 -14 -142.5 -43t-64.5 -51.5t-17 -55.5q-8 -69 66 -69zM154 469l10 84h510l-10 -84h-510z" glyph-name="ordfeminine" horiz-adv-x="815" unicode="ª"/><glyph d="M102 469l351 295l36 -43l-192 -252l131 -252l-47 -43zM422 469l350 295l37 -43l-193 -252l132 -252l-48 -43z" glyph-name="guillemotleft" horiz-adv-x="880" unicode="«"/><glyph d="M1040 780l-61 -487h-80l51 407h-819l10 80h899z" glyph-name="logicalnot" horiz-adv-x="1103" unicode="¬"/><glyph d="M119 588h553l-17 -129h-553z" glyph-name="uni00AD" horiz-adv-x="757" unicode="­"/><glyph d="M645 -20q-252 0 -409.5 160.5t-157.5 412.5q0 305 215 528.5t516 223.5q250 0 407.5 -161t157.5 -409q0 -309 -213 -532t-516 -223zM653 49q268 0 459 200t191 474q0 223 -140.5 367.5t-363.5 144.5q-268 0 -458.5 -200.5t-190.5 -475.5q0 -221 141 -365.5t362 -144.5z M319 256l7 47q76 12 84 76l65 526q8 63 -67 76l6 47h383q125 0 194.5 -48t69.5 -136q0 -166 -207 -219q-6 -2 -6 -7.5t6 -7.5q104 -27 121 -155q6 -49 12 -77t22.5 -51.5t43.5 -23.5l-6 -47h-62q-98 0 -139 47t-62 164q-12 68 -37.5 95.5t-76.5 27.5q-72 0 -80 -66l-19 -145 q-8 -63 70 -76l-6 -47h-316zM672 655h51q90 0 131 57.5t41 133.5q0 117 -119 117h-80q-53 0 -59 -58l-23 -184q-4 -39 6.5 -52.5t51.5 -13.5z" glyph-name="registered" horiz-adv-x="1406" unicode="®"/><glyph d="M205 1294q2 35 45 35h579q20 0 29.5 -8t7.5 -27l-8 -65q-2 -35 -45 -35h-580q-20 0 -29 8t-7 27z" glyph-name="macron" horiz-adv-x="866" unicode="¯"/><glyph d="M389 813q-92 0 -153.5 62.5t-61.5 152.5q0 111 83 194t192 83q92 0 152.5 -62.5t60.5 -152.5q0 -109 -83.5 -193t-189.5 -84zM401 913q66 0 109 50.5t43 117.5q0 53 -32 88t-85 35q-66 0 -108.5 -50t-42.5 -118q0 -53 31.5 -88t84.5 -35z" glyph-name="degree" horiz-adv-x="688" unicode="°"/><glyph d="M559 762h338l-8 -80h-338l-43 -340h-80l43 340h-340l8 80h340l43 340h80zM49 23l8 79h758l-8 -79h-758z" glyph-name="plusminus" horiz-adv-x="964" unicode="±"/><glyph d="M471 793l-348 6q45 147 217 260q96 53 104 121q2 27 -14 44t-41 17q-61 0 -78 -57q-8 -16 -5 -39t-1 -39q-25 -43 -76 -21.5t-45 66.5q8 70 61.5 116t141.5 46q86 0 127 -45t31 -123q-2 -14 -6 -27.5t-12.5 -27t-13.5 -22.5t-18.5 -20.5t-19.5 -17.5t-22.5 -17.5 t-20.5 -14.5t-23.5 -15t-21.5 -14q-49 -25 -69.5 -41.5t-32.5 -46.5l139 6q25 0 43 22l18 21h60l-35 -115q-8 -22 -39 -22z" glyph-name="uni00B2" horiz-adv-x="569" unicode="²"/><glyph d="M311 784q-90 0 -138 52.5t-40 121.5q6 39 51 39q25 0 36 -9t13.5 -24.5t2.5 -33v-33.5q16 -45 71 -45q41 0 73 36t36 77q6 39 -10.5 55t-43 12t-63.5 -22l-23 63l48 25q74 27 82 100q4 23 -8.5 35t-41.5 12q-37 0 -58.5 -41t-14.5 -82l-86 21q-23 10 -19 39q4 57 54.5 95 t129.5 38q84 0 126 -43t36 -94q-8 -51 -65 -80q86 -31 71 -144q-10 -74 -70.5 -122t-148.5 -48z" glyph-name="uni00B3" horiz-adv-x="550" unicode="³"/><glyph d="M207 1174l192 223q102 117 183 35q41 -53 20.5 -99.5t-88.5 -87.5l-248 -147q-43 -27 -69.5 4t10.5 72z" glyph-name="acute" horiz-adv-x="602" unicode="´"/><glyph d="M1645 1204q-139 -18 -150 -123l-133 -1081q-14 -104 119 -123l-8 -67h-1000l8 67q135 18 150 123l37 309q8 57 -12.5 83t-80.5 26h-69q-195 0 -297.5 100t-102.5 266q0 221 138.5 354.5t367.5 133.5h1041zM1098 0l133 1081q6 57 -18.5 90t-67.5 33q-45 0 -78 -32.5 t-39 -90.5l-133 -1081q-8 -57 16.5 -90t69.5 -33t77 33t40 90z" glyph-name="paragraph" horiz-adv-x="1613" unicode="¶"/><glyph d="M262 471q-57 0 -98 42t-41 99.5t41 98.5t98 41t98 -41t41 -98.5t-41 -99.5t-98 -42z" glyph-name="periodcentered" horiz-adv-x="485" unicode="·"/><glyph d="M231 -471q-102 0 -163.5 41t-61.5 100q0 70 62.5 96.5t107.5 -26.5q-6 -49 9.5 -93t64.5 -44q53 0 87 50t34 109q0 76 -70 76q-16 0 -47 -8t-47 -8q-33 0 -43 22.5t8 51.5l64 104h159l-53 -92q78 6 136.5 -37t58.5 -117q0 -100 -92.5 -162.5t-213.5 -62.5z" glyph-name="cedilla" horiz-adv-x="727" unicode="¸"/><glyph d="M106 803l9 67q53 4 59 43l37 287l-61 -20l10 80l110 53q27 12 49.5 -4.5t18.5 -34.5l-47 -373q0 -6 1 -10t2 -7t5 -5t6 -3.5t8 -2.5t8.5 -1t9.5 -1t9 -1l-6 -67h-228z" glyph-name="uni00B9" horiz-adv-x="354" unicode="¹"/><glyph d="M432 670q-115 0 -191.5 72.5t-76.5 191.5q0 156 103.5 253t242.5 97q115 0 189.5 -72.5t74.5 -191.5q0 -154 -102.5 -252t-239.5 -98zM459 737q61 0 104 68.5t43 193.5q0 94 -34.5 157t-90.5 63q-59 0 -104 -71t-45 -192q0 -94 36 -156.5t91 -62.5zM154 469l10 84h510 l-10 -84h-510z" glyph-name="ordmasculine" horiz-adv-x="811" unicode="º"/><glyph d="M461 469l-350 -295l-37 43l192 252l-131 252l47 43zM780 469l-350 -295l-37 43l193 252l-131 252l47 43z" glyph-name="guillemotright" horiz-adv-x="882" unicode="»"/><glyph d="M340 870l-6 -67h-228l9 67q53 4 59 43l37 287l-61 -20l10 80l110 53q27 12 49.5 -4.5t18.5 -34.5l-47 -373q0 -6 1 -10t2 -7t5 -5t6 -3.5t8 -2.5t8.5 -1t9.5 -1t9 -1zM993 1303h129l-972 -1313h-130zM1020 477l-33 -262h60l-11 -82h-59l-8 -67q-2 -16 7 -23.5t34 -7.5 l-4 -47h-213l2 47q49 0 53 43l8 55h-182l8 78l262 295q18 23 49 9.5t27 -38.5zM776 215h90l17 117z" glyph-name="onequarter" horiz-adv-x="1159" unicode="¼"/><glyph d="M106 803l9 67q53 4 59 43l37 287l-61 -20l10 80l110 53q27 12 49.5 -4.5t18.5 -34.5l-47 -373q0 -6 1 -10t2 -7t5 -5t6 -3.5t8 -2.5t8.5 -1t9.5 -1t9 -1l-6 -67h-228zM20 -10l973 1313h129l-972 -1313h-130zM1034 -12l-348 6q45 147 217 260q96 53 105 121q2 27 -14.5 44 t-41.5 17q-61 0 -78 -57q-8 -16 -5 -39t-1 -39q-25 -43 -76 -21.5t-44 66.5q8 70 61 116t141 46q86 0 127 -45t31 -123q-2 -14 -6 -27.5t-12.5 -27t-13.5 -22.5t-18.5 -20.5t-19.5 -17.5t-22.5 -17t-20.5 -14.5t-23.5 -15.5t-21.5 -14q-49 -25 -69.5 -41.5t-32.5 -46.5 l139 6q25 0 43 22l19 21h59l-35 -115q-8 -22 -39 -22z" glyph-name="onehalf" horiz-adv-x="1230" unicode="½"/><glyph d="M530 954q-10 -74 -70.5 -122t-148.5 -48q-90 0 -138 52.5t-40 121.5q6 39 51 39q25 0 36 -9t13.5 -24.5t2.5 -33v-33.5q16 -45 71 -45q41 0 73 36t36 77q6 39 -10.5 55t-43 12t-63.5 -22l-23 63l48 25q74 27 82 100q4 23 -8.5 35t-41.5 12q-37 0 -58.5 -41t-14.5 -82 l-86 21q-23 10 -19 39q4 57 54.5 95t129.5 38q84 0 126 -43t36 -94q-8 -51 -65 -80q85 -31 71 -144zM1212 1303h129l-972 -1313h-129zM1260 477l-33 -262h59l-10 -82h-59l-9 -67q-2 -16 7.5 -23.5t33.5 -7.5l-4 -47h-213l2 47q49 0 53 43l9 55h-183l9 78l262 295 q18 23 49 9.5t27 -38.5zM1016 215h90l16 117z" glyph-name="threequarters" horiz-adv-x="1398" unicode="¾"/><glyph d="M512 938q57 0 98 -42t41 -99.5t-41 -98.5t-98 -41t-98 41t-41 98.5t41 99.5t98 42zM823 -29q-18 -152 -144 -251t-317 -99q-176 0 -273 87t-81 233q10 82 53 145.5t100.5 107.5t116 88t107.5 108.5t66 146.5h94q-2 -127 -48 -224.5t-101.5 -146.5t-106.5 -114.5 t-62 -135.5q-10 -84 38 -141.5t136 -57.5q76 0 130.5 44t62.5 116q6 45 -15.5 102.5t-17.5 86.5q6 47 47 79.5t90 32.5q61 0 99 -55.5t26 -151.5z" glyph-name="questiondown" horiz-adv-x="954" unicode="¿"/><glyph d="M967 1522q37 -41 10 -72t-70 -4l-248 147q-68 41 -88 87t21 100q80 82 182 -35zM-16 0l8 68q80 16 126 59t93 131l438 811q59 111 74 203l147 14l297 -979q31 -100 42.5 -132t40 -65.5t75.5 -43.5l-8 -66h-520l8 68q84 12 105.5 55t-5.5 106l-22 72q-18 55 -101 55h-321 q-82 0 -117 -63l-29 -51q-82 -145 109 -174l-8 -68h-432zM475 449h316q47 0 34 45l-114 376q-8 27 -24.5 28t-29.5 -21l-206 -381q-10 -23 -3 -35t27 -12z" glyph-name="Agrave" horiz-adv-x="1415" unicode="À"/><glyph d="M723 1522l192 223q102 117 183 35q41 -53 20.5 -99.5t-88.5 -87.5l-248 -147q-43 -27 -69.5 4t10.5 72zM-16 0l8 68q80 16 126 59t93 131l438 811q59 111 74 203l147 14l297 -979q31 -100 42.5 -132t40 -65.5t75.5 -43.5l-8 -66h-520l8 68q84 12 105.5 55t-5.5 106 l-22 72q-18 55 -101 55h-321q-82 0 -117 -63l-29 -51q-82 -145 109 -174l-8 -68h-432zM475 449h316q47 0 34 45l-114 376q-8 27 -24.5 28t-29.5 -21l-206 -381q-10 -23 -3 -35t27 -12z" glyph-name="Aacute" horiz-adv-x="1415" unicode="Á"/><glyph d="M887 1782l239 -332l-45 -45l-219 172l-260 -172l-35 45zM-16 0l8 68q80 16 126 59t93 131l438 811q59 111 74 203l147 14l297 -979q31 -100 42.5 -132t40 -65.5t75.5 -43.5l-8 -66h-520l8 68q84 12 105.5 55t-5.5 106l-22 72q-18 55 -101 55h-321q-82 0 -117 -63l-29 -51 q-82 -145 109 -174l-8 -68h-432zM475 449h316q47 0 34 45l-114 376q-8 27 -24.5 28t-29.5 -21l-206 -381q-10 -23 -3 -35t27 -12z" glyph-name="Acircumflex" horiz-adv-x="1415" unicode="Â"/><glyph d="M1010 1446q-92 0 -216 69.5t-169 69.5q-39 0 -71 -24.5t-38 -69.5h-65q14 115 83.5 178.5t174.5 63.5q92 0 216 -70t169 -70q41 0 71.5 22.5t36.5 72.5h66q-14 -115 -83 -178.5t-175 -63.5zM-16 0l8 68q80 16 126 59t93 131l438 811q59 111 74 203l147 14l297 -979 q31 -100 42.5 -132t40 -65.5t75.5 -43.5l-8 -66h-520l8 68q84 12 105.5 55t-5.5 106l-22 72q-18 55 -101 55h-321q-82 0 -117 -63l-29 -51q-82 -145 109 -174l-8 -68h-432zM475 449h316q47 0 34 45l-114 376q-8 27 -24.5 28t-29.5 -21l-206 -381q-10 -23 -3 -35t27 -12z" glyph-name="Atilde" horiz-adv-x="1415" unicode="Ã"/><glyph d="M620.5 1430q-59.5 0 -102.5 41.5t-43 101.5q0 61 43 103t102.5 42t101.5 -42t42 -103q0 -59 -42 -101t-101.5 -42zM1060.5 1430q-59.5 0 -102.5 41.5t-43 101.5q0 61 43 103t102.5 42t101.5 -42t42 -103q0 -59 -42 -101t-101.5 -42zM-16 0l8 68q80 16 126 59t93 131 l438 811q59 111 74 203l147 14l297 -979q31 -100 42.5 -132t40 -65.5t75.5 -43.5l-8 -66h-520l8 68q84 12 105.5 55t-5.5 106l-22 72q-18 55 -101 55h-321q-82 0 -117 -63l-29 -51q-82 -145 109 -174l-8 -68h-432zM475 449h316q47 0 34 45l-114 376q-8 27 -24.5 28 t-29.5 -21l-206 -381q-10 -23 -3 -35t27 -12z" glyph-name="Adieresis" horiz-adv-x="1415" unicode="Ä"/><glyph d="M848 1454q-88 0 -148.5 58.5t-60.5 142.5t60.5 143.5t148.5 59.5t148.5 -59.5t60.5 -143.5t-60.5 -142.5t-148.5 -58.5zM848 1563q41 0 65.5 25.5t24.5 66.5q0 39 -24.5 66.5t-65.5 27.5t-65.5 -27.5t-24.5 -66.5q0 -41 24.5 -66.5t65.5 -25.5zM-16 0l8 68q80 16 126 59 t93 131l438 811q59 111 74 203l147 14l297 -979q31 -100 42.5 -132t40 -65.5t75.5 -43.5l-8 -66h-520l8 68q84 12 105.5 55t-5.5 106l-22 72q-18 55 -101 55h-321q-82 0 -117 -63l-29 -51q-82 -145 109 -174l-8 -68h-432zM475 449h316q47 0 34 45l-114 376q-8 27 -24.5 28 t-29.5 -21l-206 -381q-10 -23 -3 -35t27 -12z" glyph-name="Aring" horiz-adv-x="1415" unicode="Å"/><glyph d="M1511 92q109 2 156 33t133 145h45q-59 -129 -86 -235q-10 -35 -47 -35h-962l8 68q135 18 149 122l23 181h-391q-76 0 -127 -70l-76 -100q-45 -68 -22.5 -95.5t118.5 -39.5l-8 -66h-440l8 66q82 16 125 41.5t96 97.5l635 858q31 41 44 72.5t13 47t-8 21.5l8 68h928 q39 0 39 -41q0 -100 14 -234h-45q-35 96 -85 139.5t-140 43.5h-201q-63 0 -95 -26t-40 -83l-35 -272q-8 -57 19.5 -83t91.5 -26h127q100 0 140 32t63 114h36l-47 -383h-37q-4 80 -35.5 112.5t-132.5 32.5h-127q-63 0 -94.5 -25.5t-40.5 -83.5l-37 -290q-8 -57 21 -83 t102 -26zM606 463h334l76 618q6 37 -6 62q-4 -35 -47 -94l-394 -533q-18 -29 -7 -41t44 -12z" glyph-name="AE" horiz-adv-x="1908" unicode="Æ"/><glyph d="M778 1229q-123 0 -218 -89t-140 -219t-45 -272q0 -238 126 -373t310 -135q190 0 342 158l41 -39q-63 -96 -194.5 -184t-313.5 -96l-41 -72q78 6 136.5 -37t58.5 -117q0 -100 -92.5 -162.5t-212.5 -62.5q-102 0 -164 41t-62 100q0 70 62.5 96.5t107.5 -26.5 q-6 -49 9.5 -93t64.5 -44q53 0 87 50t34 109q0 76 -70 76q-16 0 -47 -8t-47 -8q-33 0 -43 22.5t8 51.5l57 94q-201 37 -327.5 185.5t-126.5 377.5q0 315 224 533.5t542 218.5q207 0 322.5 -92.5t115.5 -215.5q0 -78 -45 -137t-127 -59q-63 0 -97 36.5t-34 96.5 q0 156 -43 225.5t-158 69.5z" glyph-name="Ccedilla" horiz-adv-x="1290" unicode="Ç"/><glyph d="M842 1522q37 -41 10 -72t-70 -4l-247 147q-68 41 -88.5 87t20.5 100q80 82 182 -35zM6 0l8 68q135 18 150 122l108 891q14 104 -118 123l8 68h928q39 0 38 -41q0 -100 15 -234h-45q-35 96 -85 139.5t-141 43.5h-200q-63 0 -95 -26t-40 -83l-35 -272q-8 -57 19.5 -83 t90.5 -26h127q100 0 140.5 32t62.5 114h37l-47 -383h-37q-4 80 -36 112.5t-132 32.5h-127q-63 0 -95 -25.5t-40 -83.5l-37 -290q-8 -57 20.5 -83t102.5 -26l217 2q109 2 156 33t133 145h45q-59 -129 -86 -235q-10 -35 -47 -35h-963z" glyph-name="Egrave" horiz-adv-x="1165" unicode="È"/><glyph d="M598 1522l193 223q102 117 182 35q41 -53 20.5 -99.5t-88.5 -87.5l-248 -147q-43 -27 -69.5 4t10.5 72zM6 0l8 68q135 18 150 122l108 891q14 104 -118 123l8 68h928q39 0 38 -41q0 -100 15 -234h-45q-35 96 -85 139.5t-141 43.5h-200q-63 0 -95 -26t-40 -83l-35 -272 q-8 -57 19.5 -83t90.5 -26h127q100 0 140.5 32t62.5 114h37l-47 -383h-37q-4 80 -36 112.5t-132 32.5h-127q-63 0 -95 -25.5t-40 -83.5l-37 -290q-8 -57 20.5 -83t102.5 -26l217 2q109 2 156 33t133 145h45q-59 -129 -86 -235q-10 -35 -47 -35h-963z" glyph-name="Eacute" horiz-adv-x="1165" unicode="É"/><glyph d="M762 1782l239 -332l-45 -45l-219 172l-260 -172l-35 45zM6 0l8 68q135 18 150 122l108 891q14 104 -118 123l8 68h928q39 0 38 -41q0 -100 15 -234h-45q-35 96 -85 139.5t-141 43.5h-200q-63 0 -95 -26t-40 -83l-35 -272q-8 -57 19.5 -83t90.5 -26h127q100 0 140.5 32 t62.5 114h37l-47 -383h-37q-4 80 -36 112.5t-132 32.5h-127q-63 0 -95 -25.5t-40 -83.5l-37 -290q-8 -57 20.5 -83t102.5 -26l217 2q109 2 156 33t133 145h45q-59 -129 -86 -235q-10 -35 -47 -35h-963z" glyph-name="Ecircumflex" horiz-adv-x="1165" unicode="Ê"/><glyph d="M495.5 1430q-59.5 0 -102.5 41.5t-43 101.5q0 61 43 103t102.5 42t101.5 -42t42 -103q0 -59 -42 -101t-101.5 -42zM936 1430q-59 0 -102 41.5t-43 101.5q0 61 43 103t102 42t101 -42t42 -103q0 -59 -42 -101t-101 -42zM6 0l8 68q135 18 150 122l108 891q14 104 -118 123 l8 68h928q39 0 38 -41q0 -100 15 -234h-45q-35 96 -85 139.5t-141 43.5h-200q-63 0 -95 -26t-40 -83l-35 -272q-8 -57 19.5 -83t90.5 -26h127q100 0 140.5 32t62.5 114h37l-47 -383h-37q-4 80 -36 112.5t-132 32.5h-127q-63 0 -95 -25.5t-40 -83.5l-37 -290q-8 -57 20.5 -83 t102.5 -26l217 2q109 2 156 33t133 145h45q-59 -129 -86 -235q-10 -35 -47 -35h-963z" glyph-name="Edieresis" horiz-adv-x="1165" unicode="Ë"/><glyph d="M588 1522q37 -41 10 -72t-70 -4l-247 147q-68 41 -88.5 87t20.5 100q80 82 182 -35zM6 0l8 68q135 18 150 122l108 891q14 104 -118 123l8 68h532l-8 -68q-135 -18 -149 -123l-109 -891q-14 -104 119 -122l-8 -68h-533z" glyph-name="Igrave" horiz-adv-x="657" unicode="Ì"/><glyph d="M344 1522l193 223q102 117 182 35q41 -53 20.5 -99.5t-88.5 -87.5l-248 -147q-43 -27 -69.5 4t10.5 72zM6 0l8 68q135 18 150 122l108 891q14 104 -118 123l8 68h532l-8 -68q-135 -18 -149 -123l-109 -891q-14 -104 119 -122l-8 -68h-533z" glyph-name="Iacute" horiz-adv-x="657" unicode="Í"/><glyph d="M508 1782l240 -332l-46 -45l-219 172l-260 -172l-35 45zM6 0l8 68q135 18 150 122l108 891q14 104 -118 123l8 68h532l-8 -68q-135 -18 -149 -123l-109 -891q-14 -104 119 -122l-8 -68h-533z" glyph-name="Icircumflex" horiz-adv-x="657" unicode="Î"/><glyph d="M241.5 1430q-59.5 0 -102.5 41.5t-43 101.5q0 61 43 103t102.5 42t101.5 -42t42 -103q0 -59 -42 -101t-101.5 -42zM682 1430q-59 0 -102 41.5t-43 101.5q0 61 43 103t102 42t101 -42t42 -103q0 -59 -42 -101t-101 -42zM6 0l8 68q135 18 150 122l108 891q14 104 -118 123 l8 68h532l-8 -68q-135 -18 -149 -123l-109 -891q-14 -104 119 -122l-8 -68h-533z" glyph-name="Idieresis" horiz-adv-x="657" unicode="Ï"/><glyph d="M698 1272q612 0 613 -527q0 -330 -199 -535.5t-528 -205.5q-37 0 -157 6t-175 6q-111 0 -246 -16l8 68q135 18 150 122l49 410h-133l8 72h135l49 409q14 104 -118 123l8 68h536zM557 86q150 0 259.5 100.5t158.5 249t49 320.5q0 213 -83 323.5t-241 110.5h-26 q-123 0 -137 -109l-50 -409h236l-8 -72h-238l-49 -410q-12 -104 129 -104z" glyph-name="Eth" horiz-adv-x="1366" unicode="Ð"/><glyph d="M604 1585q-39 0 -70.5 -24.5t-37.5 -69.5h-66q14 115 84 178.5t174 63.5q92 0 216 -70t169 -70q41 0 72 22.5t37 72.5h65q-14 -115 -82.5 -178.5t-175.5 -63.5q-92 0 -216 69.5t-169 69.5zM1032 1272h383l-8 -68q-70 -10 -105.5 -37.5t-44.5 -85.5l-133 -1081h-104 l-647 950l-94 -760q-14 -104 118 -122l-8 -68h-383l8 68q135 18 150 122l108 891q14 104 -118 123l8 68h321l578 -852l82 661q14 104 -119 123z" glyph-name="Ntilde" horiz-adv-x="1376" unicode="Ñ"/><glyph d="M958 1522q37 -41 10.5 -72t-69.5 -4l-248 147q-68 41 -88 87t21 100q80 82 182 -35zM627 -20q-233 0 -392 150.5t-159 401.5q0 322 216 547.5t525 225.5q233 0 392 -150.5t159 -402.5q0 -319 -217 -545.5t-524 -226.5zM698 76q123 0 209 96t123 231.5t37 286.5 q0 229 -89 373.5t-233 144.5q-123 0 -209.5 -97t-122.5 -231.5t-36 -287.5q0 -229 89 -372.5t232 -143.5z" glyph-name="Ograve" horiz-adv-x="1400" unicode="Ò"/><glyph d="M715 1522l192 223q102 117 183 35q41 -53 20.5 -99.5t-88.5 -87.5l-248 -147q-43 -27 -69.5 4t10.5 72zM627 -20q-233 0 -392 150.5t-159 401.5q0 322 216 547.5t525 225.5q233 0 392 -150.5t159 -402.5q0 -319 -217 -545.5t-524 -226.5zM698 76q123 0 209 96t123 231.5 t37 286.5q0 229 -89 373.5t-233 144.5q-123 0 -209.5 -97t-122.5 -231.5t-36 -287.5q0 -229 89 -372.5t232 -143.5z" glyph-name="Oacute" horiz-adv-x="1400" unicode="Ó"/><glyph d="M879 1782l239 -332l-45 -45l-219 172l-260 -172l-35 45zM627 -20q-233 0 -392 150.5t-159 401.5q0 322 216 547.5t525 225.5q233 0 392 -150.5t159 -402.5q0 -319 -217 -545.5t-524 -226.5zM698 76q123 0 209 96t123 231.5t37 286.5q0 229 -89 373.5t-233 144.5 q-123 0 -209.5 -97t-122.5 -231.5t-36 -287.5q0 -229 89 -372.5t232 -143.5z" glyph-name="Ocircumflex" horiz-adv-x="1400" unicode="Ô"/><glyph d="M1001 1446q-92 0 -215.5 69.5t-169.5 69.5q-39 0 -70.5 -24.5t-37.5 -69.5h-66q14 115 84 178.5t174 63.5q92 0 216 -70t169 -70q41 0 72 22.5t37 72.5h66q-14 -115 -83.5 -178.5t-175.5 -63.5zM627 -20q-233 0 -392 150.5t-159 401.5q0 322 216 547.5t525 225.5 q233 0 392 -150.5t159 -402.5q0 -319 -217 -545.5t-524 -226.5zM698 76q123 0 209 96t123 231.5t37 286.5q0 229 -89 373.5t-233 144.5q-123 0 -209.5 -97t-122.5 -231.5t-36 -287.5q0 -229 89 -372.5t232 -143.5z" glyph-name="Otilde" horiz-adv-x="1400" unicode="Õ"/><glyph d="M612.5 1430q-59.5 0 -102.5 41.5t-43 101.5q0 61 43 103t102.5 42t101.5 -42t42 -103q0 -59 -42 -101t-101.5 -42zM1052.5 1430q-59.5 0 -102.5 41.5t-43 101.5q0 61 43 103t102.5 42t101.5 -42t42 -103q0 -59 -42 -101t-101.5 -42zM627 -20q-233 0 -392 150.5 t-159 401.5q0 322 216 547.5t525 225.5q233 0 392 -150.5t159 -402.5q0 -319 -217 -545.5t-524 -226.5zM698 76q123 0 209 96t123 231.5t37 286.5q0 229 -89 373.5t-233 144.5q-123 0 -209.5 -97t-122.5 -231.5t-36 -287.5q0 -229 89 -372.5t232 -143.5z" glyph-name="Odieresis" horiz-adv-x="1400" unicode="Ö"/><glyph d="M733 756l-268 -240l211 -242l-66 -55l-211 240l-268 -240l-47 55l268 240l-213 242l66 55l211 -240l270 242z" glyph-name="multiply" horiz-adv-x="800" unicode="×"/><glyph d="M1229 1135q139 -152 139 -383q0 -319 -217 -545.5t-524 -226.5q-217 0 -369 129l-102 -107l-35 33l102 106q-147 152 -147 391q0 322 216 547.5t525 225.5q223 0 379 -138l92 99l35 -33zM377 592q0 -139 35 -250l606 639q-41 106 -111.5 166.5t-161.5 60.5 q-123 0 -209.5 -97t-122.5 -231t-36 -288zM698 76q123 0 209 96t123 231.5t37 286.5q0 135 -31 240l-606 -639q88 -215 268 -215z" glyph-name="Oslash" horiz-adv-x="1400" unicode="Ø"/><glyph d="M952 1522q37 -41 10.5 -72t-69.5 -4l-248 147q-68 41 -88 87t21 100q80 82 182 -35zM643 -20q-233 0 -357 139t-89 422l65 540q14 104 -119 123l9 68h534l-8 -68q-70 -10 -105.5 -37.5t-44.5 -85.5l-63 -512q-55 -457 254 -456q145 0 248.5 108.5t130.5 335.5l63 524 q14 102 -127 123l8 68h394l-9 -68q-141 -20 -155 -123l-70 -561q-31 -254 -175 -397t-384 -143z" glyph-name="Ugrave" horiz-adv-x="1386" unicode="Ù"/><glyph d="M709 1522l192 223q102 117 182 35q41 -53 20.5 -99.5t-87.5 -87.5l-248 -147q-43 -27 -69.5 4t10.5 72zM643 -20q-233 0 -357 139t-89 422l65 540q14 104 -119 123l9 68h534l-8 -68q-70 -10 -105.5 -37.5t-44.5 -85.5l-63 -512q-55 -457 254 -456q145 0 248.5 108.5 t130.5 335.5l63 524q14 102 -127 123l8 68h394l-9 -68q-141 -20 -155 -123l-70 -561q-31 -254 -175 -397t-384 -143z" glyph-name="Uacute" horiz-adv-x="1386" unicode="Ú"/><glyph d="M872 1782l240 -332l-45 -45l-219 172l-260 -172l-35 45zM643 -20q-233 0 -357 139t-89 422l65 540q14 104 -119 123l9 68h534l-8 -68q-70 -10 -105.5 -37.5t-44.5 -85.5l-63 -512q-55 -457 254 -456q145 0 248.5 108.5t130.5 335.5l63 524q14 102 -127 123l8 68h394 l-9 -68q-141 -20 -155 -123l-70 -561q-31 -254 -175 -397t-384 -143z" glyph-name="Ucircumflex" horiz-adv-x="1386" unicode="Û"/><glyph d="M606.5 1430q-59.5 0 -102.5 41.5t-43 101.5q0 61 43 103t102.5 42t101.5 -42t42 -103q0 -59 -42 -101t-101.5 -42zM1046.5 1430q-59.5 0 -102.5 41.5t-43 101.5q0 61 43 103t102.5 42t101.5 -42t42 -103q0 -59 -42 -101t-101.5 -42zM643 -20q-233 0 -357 139t-89 422 l65 540q14 104 -119 123l9 68h534l-8 -68q-70 -10 -105.5 -37.5t-44.5 -85.5l-63 -512q-55 -457 254 -456q145 0 248.5 108.5t130.5 335.5l63 524q14 102 -127 123l8 68h394l-9 -68q-141 -20 -155 -123l-70 -561q-31 -254 -175 -397t-384 -143z" glyph-name="Udieresis" horiz-adv-x="1386" unicode="Ü"/><glyph d="M670 1522l192 223q102 117 182 35q41 -53 20.5 -99.5t-87.5 -87.5l-248 -147q-43 -27 -69.5 4t10.5 72zM295 0l8 68q96 8 138 35.5t51 86.5l34 275q10 82 -22 149l-189 381q-53 109 -92 155t-100 54l8 68h533l-9 -68q-72 -10 -91 -46t16 -116l170 -352q8 -20 26 0 l262 354q49 66 32 109t-95 51l8 68h395l-8 -68q-66 -6 -117 -51t-112 -127l-295 -401q-43 -59 -55 -160l-35 -275q-8 -57 28.5 -84.5t130.5 -37.5l-8 -68h-612z" glyph-name="Yacute" horiz-adv-x="1308" unicode="Ý"/><glyph d="M715 1018q258 0 374.5 -102.5t94 -278.5t-163.5 -278.5t-399 -102.5h-78q-96 0 -117 -82q-2 -47 28.5 -71.5t92.5 -34.5l-8 -68h-533l8 68q135 18 150 122l108 891q14 104 -118 123l8 68h532l-8 -68q-123 -16 -145 -102q-2 -43 20.5 -63.5t75.5 -20.5h78zM919.5 637 q16.5 133 -28.5 205.5t-189 72.5h-77q-59 0 -86 -25.5t-35 -82.5l-10 -82l-25 -207l-6 -51q-6 -59 13.5 -84t78.5 -25h78q143 0 206.5 73t80 206z" glyph-name="Thorn" horiz-adv-x="1214" unicode="Þ"/><glyph d="M199 -10q-102 0 -179 55l9 70q119 -35 131 67l92 748q23 176 157 275.5t318 99.5q166 0 257 -79t91 -206q0 -104 -59.5 -185t-159.5 -130q113 -23 185.5 -96.5t72.5 -202.5q0 -197 -170 -302.5t-420 -105.5l11 78q162 8 247.5 100t85.5 238q0 233 -264 233l10 76 q106 0 175 93t69 214q0 86 -39 142.5t-127 56.5q-98 0 -143 -72t-64 -223l-94 -770q-22 -174 -192 -174z" glyph-name="germandbls" horiz-adv-x="1196" unicode="ß"/><glyph d="M780 1174q37 -41 10.5 -72t-69.5 -4l-248 147q-68 41 -88 87t21 100q80 82 182 -35zM391 -12q-139 0 -238.5 96t-99.5 281q0 238 159 407.5t384 169.5q55 0 111.5 -12t91.5 -23.5t91 -9.5t124 27l-88 -709q-8 -63 29.5 -91t97.5 -1l-11 -64q-86 -72 -198 -71 q-111 0 -146 100q-6 16 -11 21.5t-16.5 1t-27.5 -20.5q-102 -102 -252 -102zM504 123q82 0 143.5 66.5t77.5 199.5l20 170q18 150 -26.5 227.5t-128.5 77.5q-123 0 -204 -137t-81 -311q0 -143 56.5 -218t142.5 -75z" glyph-name="agrave" horiz-adv-x="1124" unicode="à"/><glyph d="M537 1174l192 223q102 117 182 35q41 -53 20.5 -99.5t-87.5 -87.5l-248 -147q-43 -27 -69.5 4t10.5 72zM391 -12q-139 0 -238.5 96t-99.5 281q0 238 159 407.5t384 169.5q55 0 111.5 -12t91.5 -23.5t91 -9.5t124 27l-88 -709q-8 -63 29.5 -91t97.5 -1l-11 -64 q-86 -72 -198 -71q-111 0 -146 100q-6 16 -11 21.5t-16.5 1t-27.5 -20.5q-102 -102 -252 -102zM504 123q82 0 143.5 66.5t77.5 199.5l20 170q18 150 -26.5 227.5t-128.5 77.5q-123 0 -204 -137t-81 -311q0 -143 56.5 -218t142.5 -75z" glyph-name="aacute" horiz-adv-x="1124" unicode="á"/><glyph d="M700 1434l240 -332l-45 -45l-219 172l-260 -172l-35 45zM391 -12q-139 0 -238.5 96t-99.5 281q0 238 159 407.5t384 169.5q55 0 111.5 -12t91.5 -23.5t91 -9.5t124 27l-88 -709q-8 -63 29.5 -91t97.5 -1l-11 -64q-86 -72 -198 -71q-111 0 -146 100q-6 16 -11 21.5 t-16.5 1t-27.5 -20.5q-102 -102 -252 -102zM504 123q82 0 143.5 66.5t77.5 199.5l20 170q18 150 -26.5 227.5t-128.5 77.5q-123 0 -204 -137t-81 -311q0 -143 56.5 -218t142.5 -75z" glyph-name="acircumflex" horiz-adv-x="1124" unicode="â"/><glyph d="M823 1098q-92 0 -216 69.5t-169 69.5q-39 0 -70.5 -24.5t-37.5 -69.5h-66q14 115 84 178t174 63q92 0 216 -69.5t169 -69.5q41 0 72 22.5t37 71.5h65q-14 -115 -83 -178t-175 -63zM391 -12q-139 0 -238.5 96t-99.5 281q0 238 159 407.5t384 169.5q55 0 111.5 -12 t91.5 -23.5t91 -9.5t124 27l-88 -709q-8 -63 29.5 -91t97.5 -1l-11 -64q-86 -72 -198 -71q-111 0 -146 100q-6 16 -11 21.5t-16.5 1t-27.5 -20.5q-102 -102 -252 -102zM504 123q82 0 143.5 66.5t77.5 199.5l20 170q18 150 -26.5 227.5t-128.5 77.5q-123 0 -204 -137 t-81 -311q0 -143 56.5 -218t142.5 -75z" glyph-name="atilde" horiz-adv-x="1124" unicode="ã"/><glyph d="M434.5 1081q-59.5 0 -102.5 42t-43 102q0 61 43 103t102.5 42t101.5 -42t42 -103q0 -59 -42 -101.5t-101.5 -42.5zM874.5 1081q-59.5 0 -102.5 42t-43 102q0 61 43 103t102.5 42t101.5 -42t42 -103q0 -59 -42 -101.5t-101.5 -42.5zM391 -12q-139 0 -238.5 96t-99.5 281 q0 238 159 407.5t384 169.5q55 0 111.5 -12t91.5 -23.5t91 -9.5t124 27l-88 -709q-8 -63 29.5 -91t97.5 -1l-11 -64q-86 -72 -198 -71q-111 0 -146 100q-6 16 -11 21.5t-16.5 1t-27.5 -20.5q-102 -102 -252 -102zM504 123q82 0 143.5 66.5t77.5 199.5l20 170 q18 150 -26.5 227.5t-128.5 77.5q-123 0 -204 -137t-81 -311q0 -143 56.5 -218t142.5 -75z" glyph-name="adieresis" horiz-adv-x="1124" unicode="ä"/><glyph d="M661.5 1106q-88.5 0 -148.5 58.5t-60 142.5t60 143t148.5 59t148.5 -59t60 -143t-60 -142.5t-148.5 -58.5zM661.5 1214q40.5 0 65.5 26t25 67q0 39 -25 66.5t-65.5 27.5t-65.5 -27.5t-25 -66.5q0 -41 25 -67t65.5 -26zM391 -12q-139 0 -238.5 96t-99.5 281 q0 238 159 407.5t384 169.5q55 0 111.5 -12t91.5 -23.5t91 -9.5t124 27l-88 -709q-8 -63 29.5 -91t97.5 -1l-11 -64q-86 -72 -198 -71q-111 0 -146 100q-6 16 -11 21.5t-16.5 1t-27.5 -20.5q-102 -102 -252 -102zM504 123q82 0 143.5 66.5t77.5 199.5l20 170 q18 150 -26.5 227.5t-128.5 77.5q-123 0 -204 -137t-81 -311q0 -143 56.5 -218t142.5 -75z" glyph-name="aring" horiz-adv-x="1124" unicode="å"/><glyph d="M963 381q-90 -16 -45 -113q70 -141 231 -141q135 0 215 80l39 -51q-53 -66 -147.5 -117t-215.5 -51q-211 0 -327 157q-25 31 -47.5 36t-41 -6t-42.5 -40q-53 -61 -140.5 -104t-183.5 -43q-109 0 -175.5 56t-51.5 169q16 129 142 207t409 119q43 6 60 21t20 54l2 27 q10 115 -21 170t-115 55q-125 0 -143 -147q-8 -61 -48 -93t-91 -32q-53 0 -78 32.5t-18 82.5q14 104 152 168.5t310 64.5q186 0 236 -100q131 104 305 104q154 0 238 -72.5t84 -183.5q0 -115 -100.5 -184.5t-319.5 -108.5zM1122 872q-117 0 -182.5 -101t-69.5 -257 q2 -74 88 -61l41 6q88 14 145.5 42.5t82 65.5t32 66t7.5 63q-1 176 -144 176zM635 401q4 37 -10.5 51.5t-59.5 10.5q-145 -14 -211.5 -69.5t-74.5 -114.5q-8 -61 25.5 -100.5t94.5 -39.5q96 0 155.5 57.5t72.5 145.5z" glyph-name="ae" horiz-adv-x="1509" unicode="æ"/><glyph d="M762 567q-49 0 -72.5 27t-23.5 65q0 14 5 43t5 41q0 43 -36 86t-112 43q-113 0 -175 -107.5t-62 -268.5q0 -166 69.5 -267.5t208.5 -101.5q135 0 215 80l39 -51q-119 -143 -305 -164l-47 -84q78 6 136.5 -37t58.5 -117q0 -100 -92.5 -162.5t-213.5 -62.5 q-102 0 -163.5 41t-61.5 100q0 70 62.5 96.5t107.5 -26.5q-6 -49 9.5 -93t64.5 -44q53 0 87 50t34 109q0 76 -70 76q-16 0 -47 -8t-47 -8q-33 0 -43 22.5t8 51.5l64 102q-137 31 -222.5 135.5t-85.5 261.5q0 94 34 190.5t96.5 177.5t163 132t220.5 51q150 0 230 -70.5 t80 -168.5q0 -57 -29 -98.5t-90 -41.5z" glyph-name="ccedilla" horiz-adv-x="911" unicode="ç"/><glyph d="M395 1245q-68 41 -88 87t21 100q80 82 182 -35l192 -223q37 -41 10.5 -72t-69.5 -4zM383 381q-90 -16 -45 -113q72 -141 231 -141q135 0 215 80l39 -51q-53 -66 -147 -117t-215 -51q-170 0 -287 111.5t-117 295.5q0 94 34 190.5t97.5 177.5t164 132t220.5 51 q154 0 238 -72.5t84 -183.5q0 -115 -100.5 -184.5t-319.5 -108.5zM543 872q-117 0 -182.5 -101t-69.5 -257q2 -74 88 -61l41 6q88 14 145.5 42.5t82 65.5t31.5 66t7 63q0 176 -143 176z" glyph-name="egrave" horiz-adv-x="929" unicode="è"/><glyph d="M518 1098q-43 -27 -69.5 4t10.5 72l192 223q102 117 183 35q41 -53 20.5 -99.5t-88.5 -87.5zM383 381q-90 -16 -45 -113q72 -141 231 -141q135 0 215 80l39 -51q-53 -66 -147 -117t-215 -51q-170 0 -287 111.5t-117 295.5q0 94 34 190.5t97.5 177.5t164 132t220.5 51 q154 0 238 -72.5t84 -183.5q0 -115 -100.5 -184.5t-319.5 -108.5zM543 872q-117 0 -182.5 -101t-69.5 -257q2 -74 88 -61l41 6q88 14 145.5 42.5t82 65.5t31.5 66t7 63q0 176 -143 176z" glyph-name="eacute" horiz-adv-x="929" unicode="é"/><glyph d="M598 1229l-260 -172l-35 45l320 332l239 -332l-45 -45zM383 381q-90 -16 -45 -113q72 -141 231 -141q135 0 215 80l39 -51q-53 -66 -147 -117t-215 -51q-170 0 -287 111.5t-117 295.5q0 94 34 190.5t97.5 177.5t164 132t220.5 51q154 0 238 -72.5t84 -183.5 q0 -115 -100.5 -184.5t-319.5 -108.5zM543 872q-117 0 -182.5 -101t-69.5 -257q2 -74 88 -61l41 6q88 14 145.5 42.5t82 65.5t31.5 66t7 63q0 176 -143 176z" glyph-name="ecircumflex" horiz-adv-x="929" unicode="ê"/><glyph d="M356.5 1081q-59.5 0 -102.5 42t-43 102q0 61 43 103t102.5 42t101.5 -42t42 -103q0 -59 -42 -101.5t-101.5 -42.5zM796.5 1370q59.5 0 101.5 -42t42 -103q0 -59 -42 -101.5t-101.5 -42.5t-102.5 42t-43 102q0 61 43 103t102.5 42zM573 946q154 0 238 -72.5t84 -183.5 q0 -115 -100.5 -184.5t-319.5 -108.5l-92 -16q-90 -16 -45 -113q72 -141 231 -141q135 0 215 80l39 -51q-53 -66 -147 -117t-215 -51q-170 0 -287 111.5t-117 295.5q0 94 34 190.5t97.5 177.5t163.5 132t221 51zM420 459q88 14 145.5 42.5t82 65.5t31.5 66t7 63 q0 176 -143 176q-117 0 -182.5 -101t-69.5 -257q2 -74 88 -61z" glyph-name="edieresis" horiz-adv-x="929" unicode="ë"/><glyph d="M485 1174q37 -41 10.5 -72t-69.5 -4l-248 147q-68 41 -88 87t21 100q80 82 182 -35zM262 -12q-68 0 -116 48t-37 124l79 559q8 61 -29.5 85.5t-97.5 -1.5l11 63q86 72 194 72q68 0 116 -48t38 -124l-80 -559q-8 -61 30 -86t97 2l-10 -64q-93 -71 -195 -71z" glyph-name="igrave" horiz-adv-x="538" unicode="ì"/><glyph d="M242 1174l192 223q102 117 182 35q41 -53 20.5 -99.5t-87.5 -87.5l-248 -147q-43 -27 -69.5 4t10.5 72zM262 -12q-68 0 -116 48t-37 124l79 559q8 61 -29.5 85.5t-97.5 -1.5l11 63q86 72 194 72q68 0 116 -48t38 -124l-80 -559q-8 -61 30 -86t97 2l-10 -64 q-93 -71 -195 -71z" glyph-name="iacute" horiz-adv-x="538" unicode="í"/><glyph d="M406 1434l239 -332l-45 -45l-219 172l-260 -172l-35 45zM262 -12q-68 0 -116 48t-37 124l79 559q8 61 -29.5 85.5t-97.5 -1.5l11 63q86 72 194 72q68 0 116 -48t38 -124l-80 -559q-8 -61 30 -86t97 2l-10 -64q-93 -71 -195 -71z" glyph-name="icircumflex" horiz-adv-x="538" unicode="î"/><glyph d="M139.5 1081q-59.5 0 -102.5 42t-43 102q0 61 43 103t102.5 42t101.5 -42t42 -103q0 -59 -42 -101.5t-101.5 -42.5zM579.5 1081q-59.5 0 -102.5 42t-43 102q0 61 43 103t102.5 42t101.5 -42t42 -103q0 -59 -42 -101.5t-101.5 -42.5zM262 -12q-68 0 -116 48t-37 124l79 559 q8 61 -29.5 85.5t-97.5 -1.5l11 63q86 72 194 72q68 0 116 -48t38 -124l-80 -559q-8 -61 30 -86t97 2l-10 -64q-93 -71 -195 -71z" glyph-name="idieresis" horiz-adv-x="538" unicode="ï"/><glyph d="M952 182q-6 -51 19.5 -67.5t95.5 0.5l-8 -70q-90 -55 -193 -55q-78 0 -116.5 39t-34.5 114q-129 -156 -322 -155q-147 0 -242.5 100t-95.5 279q0 233 142.5 404t349.5 171q49 0 95 -12t70.5 -24.5t46 -20.5t33 -1t17.5 36l12 104q4 35 2 51l-182 -51l-6 53l182 51 q-37 154 -244 144l9 71h49h51t48 -1t51.5 -4t46 -8t46 -13t40 -20.5t39 -29t30.5 -37t27 -46.5l143 41l6 -54l-133 -38q29 -111 6 -293zM524 131q76 0 138.5 53.5t76.5 167.5v-2l25 209q10 143 -55.5 219t-153.5 76q-115 0 -178.5 -115.5t-63.5 -275.5q0 -143 57.5 -237.5 t153.5 -94.5z" glyph-name="eth" horiz-adv-x="1130" unicode="ð"/><glyph d="M827 1098q-92 0 -216 69.5t-169 69.5q-39 0 -70.5 -24.5t-37.5 -69.5h-66q14 115 84 178t174 63q92 0 216 -69.5t169 -69.5q41 0 72 22.5t37 71.5h65q-14 -115 -83 -178t-175 -63zM883 -12q-70 0 -119 48t-39 124l47 350q18 145 -9.5 209.5t-117.5 64.5q-102 0 -176 -102 t-92 -256l-51 -426h-226l88 719q8 61 -29.5 85.5t-97.5 -1.5l11 63q90 72 192 72q68 0 112 -46t44 -130q0 -37 10 -35q8 0 62 59q141 160 294 160q113 0 177.5 -84t40.5 -282l-48 -369q-8 -66 31 -90.5t98 2.5l-10 -64q-90 -71 -192 -71z" glyph-name="ntilde" unicode="ñ"/><glyph d="M713 1174q37 -41 10 -72t-70 -4l-247 147q-68 41 -88.5 87t20.5 100q80 82 182 -35zM469 -12q-180 0 -296 111.5t-116 297.5q0 211 144.5 380t365.5 169q180 0 297 -111.5t117 -297.5q0 -211 -145.5 -380t-366.5 -169zM510 61q113 0 166 128t53 298q0 166 -52 275.5 t-151 109.5q-113 0 -166 -128t-53 -298q0 -166 52.5 -275.5t150.5 -109.5z" glyph-name="ograve" horiz-adv-x="1036" unicode="ò"/><glyph d="M465 1174l192 223q102 117 183 35q41 -53 20.5 -99.5t-88.5 -87.5l-248 -147q-43 -27 -69.5 4t10.5 72zM469 -12q-180 0 -296 111.5t-116 297.5q0 211 144.5 380t365.5 169q180 0 297 -111.5t117 -297.5q0 -211 -145.5 -380t-366.5 -169zM510 61q113 0 166 128t53 298 q0 166 -52 275.5t-151 109.5q-113 0 -166 -128t-53 -298q0 -166 52.5 -275.5t150.5 -109.5z" glyph-name="oacute" horiz-adv-x="1036" unicode="ó"/><glyph d="M596 1434l240 -332l-45 -45l-220 172l-260 -172l-35 45zM469 -12q-180 0 -296 111.5t-116 297.5q0 211 144.5 380t365.5 169q180 0 297 -111.5t117 -297.5q0 -211 -145.5 -380t-366.5 -169zM510 61q113 0 166 128t53 298q0 166 -52 275.5t-151 109.5q-113 0 -166 -128 t-53 -298q0 -166 52.5 -275.5t150.5 -109.5z" glyph-name="ocircumflex" horiz-adv-x="1036" unicode="ô"/><glyph d="M805 1098q-92 0 -216 69.5t-169 69.5q-39 0 -71 -24.5t-38 -69.5h-65q14 115 83.5 178t174.5 63q92 0 216 -69.5t169 -69.5q41 0 71.5 22.5t36.5 71.5h66q-14 -115 -83 -178t-175 -63zM469 -12q-180 0 -296 111.5t-116 297.5q0 211 144.5 380t365.5 169q180 0 297 -111.5 t117 -297.5q0 -211 -145.5 -380t-366.5 -169zM510 61q113 0 166 128t53 298q0 166 -52 275.5t-151 109.5q-113 0 -166 -128t-53 -298q0 -166 52.5 -275.5t150.5 -109.5z" glyph-name="otilde" horiz-adv-x="1036" unicode="õ"/><glyph d="M366.5 1081q-59.5 0 -102.5 42t-43 102q0 61 43 103t102.5 42t101.5 -42t42 -103q0 -59 -42 -101.5t-101.5 -42.5zM807 1081q-59 0 -102 42t-43 102q0 61 43 103t102 42t101 -42t42 -103q0 -59 -42 -101.5t-101 -42.5zM469 -12q-180 0 -296 111.5t-116 297.5 q0 211 144.5 380t365.5 169q180 0 297 -111.5t117 -297.5q0 -211 -145.5 -380t-366.5 -169zM510 61q113 0 166 128t53 298q0 166 -52 275.5t-151 109.5q-113 0 -166 -128t-53 -298q0 -166 52.5 -275.5t150.5 -109.5z" glyph-name="odieresis" horiz-adv-x="1036" unicode="ö"/><glyph d="M512 711q-49 0 -80 34.5t-24 83.5q6 47 45 82t88 35q47 0 77.5 -34.5t24.5 -82.5q-6 -49 -45 -83.5t-86 -34.5zM115 555h757l-8 -80h-758zM434 84q-49 0 -79.5 35t-24.5 84q6 47 45 81.5t88 34.5q47 0 77.5 -34.5t24.5 -81.5q-6 -49 -45 -84t-86 -35z" glyph-name="divide" horiz-adv-x="964" unicode="÷"/><glyph d="M883 815q98 -111 98 -278q0 -211 -145.5 -380t-366.5 -169q-166 0 -281 96l-77 -82l-35 33l80 84q-98 111 -99 278q0 211 144.5 380t365.5 169q170 0 281 -98l72 76l34 -33zM307 446q0 -82 12 -153l383 403q-51 176 -176 176q-113 0 -166 -128t-53 -298zM510 61 q113 0 166 128t53 298q0 82 -12 152l-383 -401q51 -177 176 -177z" glyph-name="oslash" horiz-adv-x="1028" unicode="ø"/><glyph d="M748 1174q37 -41 10 -72t-70 -4l-248 147q-68 41 -88 87t21 100q80 82 182 -35zM360 -12q-113 0 -177 82t-40 276l47 369q8 66 -30.5 90t-98.5 -2l11 63q90 72 192 72q70 0 119 -48t39 -124l-47 -350q-18 -139 9.5 -202.5t117.5 -63.5q104 0 177 98t91 252l27 215 q8 66 -31 90t-98 -2l10 63q90 72 192 72q70 0 118 -48t40 -124l-70 -559q-8 -61 30 -86t97 2l-10 -64q-90 -72 -192 -71q-68 0 -112 46t-44 130q0 37 -10 37q-8 0 -62 -60q-141 -153 -295 -153z" glyph-name="ugrave" unicode="ù"/><glyph d="M504 1174l192 223q102 117 183 35q41 -53 20.5 -99.5t-88.5 -87.5l-248 -147q-43 -27 -69.5 4t10.5 72zM360 -12q-113 0 -177 82t-40 276l47 369q8 66 -30.5 90t-98.5 -2l11 63q90 72 192 72q70 0 119 -48t39 -124l-47 -350q-18 -139 9.5 -202.5t117.5 -63.5 q104 0 177 98t91 252l27 215q8 66 -31 90t-98 -2l10 63q90 72 192 72q70 0 118 -48t40 -124l-70 -559q-8 -61 30 -86t97 2l-10 -64q-90 -72 -192 -71q-68 0 -112 46t-44 130q0 37 -10 37q-8 0 -62 -60q-141 -153 -295 -153z" glyph-name="uacute" unicode="ú"/><glyph d="M668 1434l239 -332l-45 -45l-219 172l-260 -172l-35 45zM360 -12q-113 0 -177 82t-40 276l47 369q8 66 -30.5 90t-98.5 -2l11 63q90 72 192 72q70 0 119 -48t39 -124l-47 -350q-18 -139 9.5 -202.5t117.5 -63.5q104 0 177 98t91 252l27 215q8 66 -31 90t-98 -2l10 63 q90 72 192 72q70 0 118 -48t40 -124l-70 -559q-8 -61 30 -86t97 2l-10 -64q-90 -72 -192 -71q-68 0 -112 46t-44 130q0 37 -10 37q-8 0 -62 -60q-141 -153 -295 -153z" glyph-name="ucircumflex" unicode="û"/><glyph d="M401.5 1081q-59.5 0 -102.5 42t-43 102q0 61 43 103t102.5 42t101.5 -42t42 -103q0 -59 -42 -101.5t-101.5 -42.5zM841.5 1081q-59.5 0 -102.5 42t-43 102q0 61 43 103t102.5 42t101.5 -42t42 -103q0 -59 -42 -101.5t-101.5 -42.5zM360 -12q-113 0 -177 82t-40 276 l47 369q8 66 -30.5 90t-98.5 -2l11 63q90 72 192 72q70 0 119 -48t39 -124l-47 -350q-18 -139 9.5 -202.5t117.5 -63.5q104 0 177 98t91 252l27 215q8 66 -31 90t-98 -2l10 63q90 72 192 72q70 0 118 -48t40 -124l-70 -559q-8 -61 30 -86t97 2l-10 -64q-90 -72 -192 -71 q-68 0 -112 46t-44 130q0 37 -10 37q-8 0 -62 -60q-141 -153 -295 -153z" glyph-name="udieresis" unicode="ü"/><glyph d="M553 1174l192 223q102 117 183 35q41 -53 20.5 -99.5t-88.5 -87.5l-248 -147q-43 -27 -69.5 4t10.5 72zM-10 -410q-63 0 -110.5 43t-47.5 113q0 57 35 96t96 39q47 0 68.5 -24.5t20.5 -53t8.5 -53t35.5 -24.5q139 0 332 243l-182 744q-16 72 -59.5 95t-102.5 -5l10 63 q86 72 191 72q78 0 121 -50t65 -151l119 -512q6 -25 21.5 -27.5t31.5 17.5q131 184 215 397q49 125 -5 175.5t-134 15.5l10 63q100 72 186 72q63 0 88 -44t17 -102.5t-37 -121.5q-86 -195 -266 -444t-389 -442.5t-338 -193.5z" glyph-name="yacute" horiz-adv-x="1040" unicode="ý"/><glyph d="M47 -410l189 1483q12 98 -14.5 130t-106.5 32l10 70q209 0 371 41l-68 -539q-4 -29 2 -29q2 0 45 47q115 121 262 121q135 0 230.5 -101.5t95.5 -277.5q0 -229 -154.5 -404t-351.5 -175q-57 0 -110.5 20.5t-73 32.5t-33.5 -4.5t-23 -81.5l-10 -92q-12 -98 14.5 -130 t106.5 -32l-10 -70q-201 0 -371 -41zM530 61q121 0 202 135.5t81 313.5q0 139 -50 227t-136 88q-78 0 -147.5 -78.5t-92.5 -254.5l-18 -144q-14 -137 30.5 -212t130.5 -75z" glyph-name="thorn" horiz-adv-x="1116" unicode="þ"/><glyph d="M454.5 1081q-59.5 0 -102.5 42t-43 102q0 61 43 103t102.5 42t101.5 -42t42 -103q0 -59 -42 -101.5t-101.5 -42.5zM895 1081q-59 0 -102 42t-43 102q0 61 43 103t102 42t101 -42t42 -103q0 -59 -42 -101.5t-101 -42.5zM-10 -410q-63 0 -110.5 43t-47.5 113q0 57 35 96 t96 39q47 0 68.5 -24.5t20.5 -53t8.5 -53t35.5 -24.5q139 0 332 243l-182 744q-16 72 -59.5 95t-102.5 -5l10 63q86 72 191 72q78 0 121 -50t65 -151l119 -512q6 -25 21.5 -27.5t31.5 17.5q131 184 215 397q49 125 -5 175.5t-134 15.5l10 63q100 72 186 72q63 0 88 -44 t17 -102.5t-37 -121.5q-86 -195 -266 -444t-389 -442.5t-338 -193.5z" glyph-name="ydieresis" horiz-adv-x="1040" unicode="ÿ"/><glyph d="M535 1642q2 35 45 35h579q20 0 29.5 -8t7.5 -27l-8 -65q-2 -35 -45 -35h-580q-20 0 -29.5 8.5t-7.5 26.5zM-16 0l8 68q80 16 126 59t93 131l438 811q59 111 74 203l147 14l297 -979q31 -100 42.5 -132t40 -65.5t75.5 -43.5l-8 -66h-520l8 68q84 12 105.5 55t-5.5 106 l-22 72q-18 55 -101 55h-321q-82 0 -117 -63l-29 -51q-82 -145 109 -174l-8 -68h-432zM475 449h316q47 0 34 45l-114 376q-8 27 -24.5 28t-29.5 -21l-206 -381q-10 -23 -3 -35t27 -12z" glyph-name="Amacron" horiz-adv-x="1415" unicode="Ā"/><glyph d="M348 1294q2 35 45 35h580q20 0 29.5 -8t7.5 -27l-9 -65q-2 -35 -45 -35h-579q-20 0 -29.5 8t-7.5 27zM391 -12q-139 0 -238.5 96t-99.5 281q0 238 159 407.5t384 169.5q55 0 111.5 -12t91.5 -23.5t91 -9.5t124 27l-88 -709q-8 -63 29.5 -91t97.5 -1l-11 -64 q-86 -72 -198 -71q-111 0 -146 100q-6 16 -11 21.5t-16.5 1t-27.5 -20.5q-102 -102 -252 -102zM504 123q82 0 143.5 66.5t77.5 199.5l20 170q18 150 -26.5 227.5t-128.5 77.5q-123 0 -204 -137t-81 -311q0 -143 56.5 -218t142.5 -75z" glyph-name="amacron" horiz-adv-x="1124" unicode="ā"/><glyph d="M856 1466q-121 0 -193.5 74t-56.5 201q2 23 21 22h53q14 0 16 -22q14 -119 178 -119q162 0 207 119q8 23 23 22h53q16 0 14 -22q-16 -127 -105 -201t-210 -74zM-16 0l8 68q80 16 126 59t93 131l438 811q59 111 74 203l147 14l297 -979q31 -100 42.5 -132t40 -65.5 t75.5 -43.5l-8 -66h-520l8 68q84 12 105.5 55t-5.5 106l-22 72q-18 55 -101 55h-321q-82 0 -117 -63l-29 -51q-82 -145 109 -174l-8 -68h-432zM475 449h316q47 0 34 45l-114 376q-8 27 -24.5 28t-29.5 -21l-206 -381q-10 -23 -3 -35t27 -12z" glyph-name="Abreve" horiz-adv-x="1415" unicode="Ă"/><glyph d="M670 1118q-121 0 -194 74t-56 201q2 23 20 22h54q14 0 16 -22q14 -119 178 -119q162 0 207 119q8 23 23 22h53q16 0 14 -22q-16 -127 -105 -201t-210 -74zM391 -12q-139 0 -238.5 96t-99.5 281q0 238 159 407.5t384 169.5q55 0 111.5 -12t91.5 -23.5t91 -9.5t124 27 l-88 -709q-8 -63 29.5 -91t97.5 -1l-11 -64q-86 -72 -198 -71q-111 0 -146 100q-6 16 -11 21.5t-16.5 1t-27.5 -20.5q-102 -102 -252 -102zM504 123q82 0 143.5 66.5t77.5 199.5l20 170q18 150 -26.5 227.5t-128.5 77.5q-123 0 -204 -137t-81 -311q0 -143 56.5 -218 t142.5 -75z" glyph-name="abreve" horiz-adv-x="1124" unicode="ă"/><glyph d="M1141 0q-213 -129 -213 -250q0 -47 28.5 -73.5t79.5 -26.5q104 0 156 112h84q-12 -35 -32.5 -67.5t-59.5 -74.5t-105.5 -67.5t-150.5 -25.5q-104 0 -172 43t-68 129q0 96 86 181t236 120h-213l8 68q84 12 105.5 55t-5.5 106l-22 72q-18 55 -101 55h-321q-82 0 -117 -63 l-29 -51q-82 -145 109 -174l-8 -68h-432l8 68q80 16 126 59t93 131l438 811q59 111 74 203l147 14l297 -979q31 -100 42.5 -132t40 -65.5t75.5 -43.5l-8 -66h-176zM791 449q47 0 34 45l-114 376q-8 27 -24.5 28t-29.5 -21l-206 -381q-10 -23 -3 -35t27 -12h316z" glyph-name="Aogonek" horiz-adv-x="1415" unicode="Ą"/><glyph d="M911 -4q-295 -86 -295 -213q0 -96 103 -96q98 0 149 112h86q-12 -33 -32.5 -66.5t-58.5 -75.5t-102.5 -67.5t-144.5 -25.5q-104 0 -171.5 44t-67.5 134q0 92 100.5 170t265.5 108q-27 23 -45 68q-6 16 -11 21.5t-16.5 1t-27.5 -20.5q-102 -102 -252 -102 q-139 0 -238.5 96t-99.5 281q0 238 159 407.5t384 169.5q55 0 111.5 -12t91.5 -23.5t91 -9.5t124 27l-88 -709q-8 -63 29.5 -91t97.5 -1l-11 -64q-57 -49 -131 -63zM725 389l20 170q18 150 -26.5 227.5t-128.5 77.5q-123 0 -204 -137t-81 -311q0 -143 56.5 -218t142.5 -75 q82 0 143.5 66.5t77.5 199.5z" glyph-name="aogonek" horiz-adv-x="1124" unicode="ą"/><glyph d="M680 1522l192 223q102 117 183 35q41 -53 20.5 -99.5t-88.5 -87.5l-248 -147q-43 -27 -69.5 4t10.5 72zM655 -20q-246 0 -411.5 153.5t-165.5 419.5q0 315 224 533.5t542 218.5q207 0 322.5 -92.5t115.5 -215.5q0 -78 -45 -137t-127 -59q-63 0 -97 36.5t-34 96.5 q0 156 -43 225.5t-158 69.5q-123 0 -218 -89t-140 -219t-45 -272q0 -238 126 -373t310 -135q190 0 342 158l41 -39q-66 -102 -205 -191t-334 -89z" glyph-name="Cacute" horiz-adv-x="1290" unicode="Ć"/><glyph d="M465 1174l192 223q102 117 183 35q41 -53 20.5 -99.5t-88.5 -87.5l-248 -147q-43 -27 -69.5 4t10.5 72zM463 -12q-172 0 -289 111.5t-117 295.5q0 94 34 190.5t96.5 177.5t163 132t220.5 51q150 0 230 -70.5t80 -168.5q0 -57 -29 -98.5t-90 -41.5q-49 0 -72.5 27 t-23.5 65q0 14 5 43t5 41q0 43 -36 86t-112 43q-113 0 -175 -107.5t-62 -268.5q0 -166 69.5 -267.5t208.5 -101.5q135 0 215 80l39 -51q-53 -66 -147 -117t-213 -51z" glyph-name="cacute" horiz-adv-x="911" unicode="ć"/><glyph d="M811 1430q-59 0 -102 41.5t-43 101.5q0 61 43 103t102 42t101 -42t42 -103q0 -59 -42 -101t-101 -42zM655 -20q-246 0 -411.5 153.5t-165.5 419.5q0 315 224 533.5t542 218.5q207 0 322.5 -92.5t115.5 -215.5q0 -78 -45 -137t-127 -59q-63 0 -97 36.5t-34 96.5 q0 156 -43 225.5t-158 69.5q-123 0 -218 -89t-140 -219t-45 -272q0 -238 126 -373t310 -135q190 0 342 158l41 -39q-66 -102 -205 -191t-334 -89z" glyph-name="Cdotaccent" horiz-adv-x="1290" unicode="Ċ"/><glyph d="M596 1081q-59 0 -102 42t-43 102q0 61 43 103t102 42t101 -42t42 -103q0 -59 -42 -101.5t-101 -42.5zM463 -12q-172 0 -289 111.5t-117 295.5q0 94 34 190.5t96.5 177.5t163 132t220.5 51q150 0 230 -70.5t80 -168.5q0 -57 -29 -98.5t-90 -41.5q-49 0 -72.5 27t-23.5 65 q0 14 5 43t5 41q0 43 -36 86t-112 43q-113 0 -175 -107.5t-62 -268.5q0 -166 69.5 -267.5t208.5 -101.5q135 0 215 80l39 -51q-53 -66 -147 -117t-213 -51z" glyph-name="cdotaccent" horiz-adv-x="911" unicode="ċ"/><glyph d="M788 1405l-239 332l45 45l219 -172l260 172l35 -45zM655 -20q-246 0 -411.5 153.5t-165.5 419.5q0 315 224 533.5t542 218.5q207 0 322.5 -92.5t115.5 -215.5q0 -78 -45 -137t-127 -59q-63 0 -97 36.5t-34 96.5q0 156 -43 225.5t-158 69.5q-123 0 -218 -89t-140 -219 t-45 -272q0 -238 126 -373t310 -135q190 0 342 158l41 -39q-66 -102 -205 -191t-334 -89z" glyph-name="Ccaron" horiz-adv-x="1290" unicode="Č"/><glyph d="M573 1057l-239 332l45 45l219 -172l260 172l35 -45zM463 -12q-172 0 -289 111.5t-117 295.5q0 94 34 190.5t96.5 177.5t163 132t220.5 51q150 0 230 -70.5t80 -168.5q0 -57 -29 -98.5t-90 -41.5q-49 0 -72.5 27t-23.5 65q0 14 5 43t5 41q0 43 -36 86t-112 43 q-113 0 -175 -107.5t-62 -268.5q0 -166 69.5 -267.5t208.5 -101.5q135 0 215 80l39 -51q-53 -66 -147 -117t-213 -51z" glyph-name="ccaron" horiz-adv-x="911" unicode="č"/><glyph d="M805 1405l-240 332l45 45l219 -172l261 172l34 -45zM6 0l8 68q135 18 150 122l108 891q14 104 -118 123l8 68h536q612 0 613 -527q0 -330 -199 -535.5t-528 -205.5q-37 0 -157 6t-175 6q-111 0 -246 -16zM557 86q150 0 259.5 100.5t158.5 249t49 320.5q0 213 -83 323.5 t-241 110.5h-26q-123 0 -137 -109l-109 -891q-12 -104 129 -104z" glyph-name="Dcaron" horiz-adv-x="1366" unicode="Ď"/><glyph d="M1161 979q-59 0 -49 68l25 184q16 121 123 121q55 0 76.5 -39t-9.5 -105l-86 -170q-29 -59 -80 -59zM391 -12q-139 0 -238.5 96t-99.5 281q0 233 152.5 405t351.5 172q51 0 102.5 -13.5t74 -21.5t38.5 4.5t23 59.5l12 102q12 98 -14.5 130t-106.5 32l10 70q209 0 371 41 l-141 -1131q-8 -63 29.5 -91t97.5 -1l-11 -64q-86 -72 -198 -71q-111 0 -146 100q-6 16 -11 21.5t-16.5 1t-27.5 -20.5q-102 -102 -252 -102zM504 123q82 0 143.5 66.5t77.5 199.5l23 182q18 143 -28 217t-130 74q-125 0 -205 -137t-80 -315q0 -137 56.5 -212t142.5 -75z " glyph-name="dcaron" horiz-adv-x="1224" unicode="ď"/><glyph d="M698 1272q612 0 613 -527q0 -330 -199 -535.5t-528 -205.5q-37 0 -157 6t-175 6q-111 0 -246 -16l8 68q135 18 150 122l49 410h-133l8 72h135l49 409q14 104 -118 123l8 68h536zM557 86q150 0 259.5 100.5t158.5 249t49 320.5q0 213 -83 323.5t-241 110.5h-26 q-123 0 -137 -109l-50 -409h236l-8 -72h-238l-49 -410q-12 -104 129 -104z" glyph-name="Dcroat" horiz-adv-x="1366" unicode="Đ"/><glyph d="M1028 1030l-102 -815q-8 -63 29.5 -91t97.5 -1l-11 -64q-86 -72 -198 -71q-111 0 -146 100q-6 16 -11 21.5t-16.5 1t-27.5 -20.5q-102 -102 -252 -102q-139 0 -238.5 96t-99.5 281q0 233 152.5 405t351.5 172q51 0 102.5 -13.5t74 -21.5t38.5 4.5t23 59.5l6 59h-273l9 72 h272q6 80 -21.5 106.5t-101.5 26.5l10 70q209 0 371 41l-31 -244h135l-8 -72h-135zM748 571q18 143 -28 217t-130 74q-125 0 -205 -137t-80 -315q0 -137 56.5 -212t142.5 -75q82 0 143.5 66.5t77.5 199.5z" glyph-name="dcroat" horiz-adv-x="1114" unicode="đ"/><glyph d="M410 1642q2 35 45 35h579q20 0 29.5 -8t7.5 -27l-8 -65q-2 -35 -45 -35h-580q-20 0 -29.5 8.5t-7.5 26.5zM6 0l8 68q135 18 150 122l108 891q14 104 -118 123l8 68h928q39 0 38 -41q0 -100 15 -234h-45q-35 96 -85 139.5t-141 43.5h-200q-63 0 -95 -26t-40 -83l-35 -272 q-8 -57 19.5 -83t90.5 -26h127q100 0 140.5 32t62.5 114h37l-47 -383h-37q-4 80 -36 112.5t-132 32.5h-127q-63 0 -95 -25.5t-40 -83.5l-37 -290q-8 -57 20.5 -83t102.5 -26l217 2q109 2 156 33t133 145h45q-59 -129 -86 -235q-10 -35 -47 -35h-963z" glyph-name="Emacron" horiz-adv-x="1165" unicode="Ē"/><glyph d="M895 1329q20 0 29.5 -8t7.5 -27l-8 -65q-2 -35 -45 -35h-580q-20 0 -29.5 8t-7.5 27l8 65q2 35 45 35h580zM573 946q154 0 238 -72.5t84 -183.5q0 -115 -100.5 -184.5t-319.5 -108.5l-92 -16q-90 -16 -45 -113q72 -141 231 -141q135 0 215 80l39 -51q-53 -66 -147 -117 t-215 -51q-170 0 -287 111.5t-117 295.5q0 94 34 190.5t97.5 177.5t163.5 132t221 51zM420 459q88 14 145.5 42.5t82 65.5t31.5 66t7 63q0 176 -143 176q-117 0 -182.5 -101t-69.5 -257q2 -74 88 -61z" glyph-name="emacron" horiz-adv-x="929" unicode="ē"/><glyph d="M729 1430q-59 0 -102 41.5t-43 101.5q0 61 43 103t102 42t101 -42t42 -103q0 -59 -42 -101t-101 -42zM6 0l8 68q135 18 150 122l108 891q14 104 -118 123l8 68h928q39 0 38 -41q0 -100 15 -234h-45q-35 96 -85 139.5t-141 43.5h-200q-63 0 -95 -26t-40 -83l-35 -272 q-8 -57 19.5 -83t90.5 -26h127q100 0 140.5 32t62.5 114h37l-47 -383h-37q-4 80 -36 112.5t-132 32.5h-127q-63 0 -95 -25.5t-40 -83.5l-37 -290q-8 -57 20.5 -83t102.5 -26l217 2q109 2 156 33t133 145h45q-59 -129 -86 -235q-10 -35 -47 -35h-963z" glyph-name="Edotaccent" horiz-adv-x="1165" unicode="Ė"/><glyph d="M589.5 1081q-59.5 0 -102.5 42t-43 102q0 61 43 103t102.5 42t101.5 -42t42 -103q0 -59 -42 -101.5t-101.5 -42.5zM383 381q-90 -16 -45 -113q72 -141 231 -141q135 0 215 80l39 -51q-53 -66 -147 -117t-215 -51q-170 0 -287 111.5t-117 295.5q0 94 34 190.5t97.5 177.5 t164 132t220.5 51q154 0 238 -72.5t84 -183.5q0 -115 -100.5 -184.5t-319.5 -108.5zM543 872q-117 0 -182.5 -101t-69.5 -257q2 -74 88 -61l41 6q88 14 145.5 42.5t82 65.5t31.5 66t7 63q0 176 -143 176z" glyph-name="edotaccent" horiz-adv-x="929" unicode="ė"/><glyph d="M768 92q109 2 156 33t133 145h45q-59 -129 -86 -235q-10 -35 -47 -35h-140q-213 -129 -213 -250q0 -47 29 -73.5t80 -26.5q104 0 156 112h84q-12 -35 -33 -67.5t-59.5 -74.5t-105.5 -67.5t-151 -25.5q-104 0 -171.5 43t-67.5 129q0 96 86 181t235 120h-692l8 68 q135 18 150 122l108 891q14 104 -118 123l8 68h928q39 0 38 -41q0 -100 15 -234h-45q-35 96 -85 139.5t-141 43.5h-200q-63 0 -95 -26t-40 -83l-35 -272q-8 -57 19.5 -83t90.5 -26h127q100 0 140.5 32t62.5 114h37l-47 -383h-37q-4 80 -36 112.5t-132 32.5h-127 q-63 0 -95 -25.5t-40 -83.5l-37 -290q-8 -57 20.5 -83t102.5 -26z" glyph-name="Eogonek" horiz-adv-x="1165" unicode="Ę"/><glyph d="M383 381q-90 -16 -45 -113q72 -141 231 -141q135 0 215 80l39 -51q-70 -86 -184 -133l-18 -7q-104 -43 -152.5 -105.5t-48.5 -123.5q0 -47 28.5 -73.5t75.5 -26.5q98 0 150 112h86q-12 -33 -32.5 -66.5t-58.5 -75.5t-102.5 -67.5t-144.5 -25.5q-104 0 -173 44t-69 134 q0 150 211 252q-145 23 -239.5 129t-94.5 272q0 94 34 190.5t97.5 177.5t164 132t220.5 51q154 0 238 -72.5t84 -183.5q0 -115 -100.5 -184.5t-319.5 -108.5zM543 872q-117 0 -182.5 -101t-69.5 -257q2 -74 88 -61l41 6q88 14 145.5 42.5t82 65.5t31.5 66t7 63 q0 176 -143 176z" glyph-name="eogonek" horiz-adv-x="929" unicode="ę"/><glyph d="M707 1405l-240 332l45 45l219 -172l260 172l35 -45zM6 0l8 68q135 18 150 122l108 891q14 104 -118 123l8 68h928q39 0 38 -41q0 -100 15 -234h-45q-35 96 -85 139.5t-141 43.5h-200q-63 0 -95 -26t-40 -83l-35 -272q-8 -57 19.5 -83t90.5 -26h127q100 0 140.5 32 t62.5 114h37l-47 -383h-37q-4 80 -36 112.5t-132 32.5h-127q-63 0 -95 -25.5t-40 -83.5l-37 -290q-8 -57 20.5 -83t102.5 -26l217 2q109 2 156 33t133 145h45q-59 -129 -86 -235q-10 -35 -47 -35h-963z" glyph-name="Ecaron" horiz-adv-x="1165" unicode="Ě"/><glyph d="M887 1389l-320 -332l-239 332l45 45l219 -172l260 172zM383 381q-90 -16 -45 -113q72 -141 231 -141q135 0 215 80l39 -51q-53 -66 -147 -117t-215 -51q-170 0 -287 111.5t-117 295.5q0 94 34 190.5t97.5 177.5t164 132t220.5 51q154 0 238 -72.5t84 -183.5 q0 -115 -100.5 -184.5t-319.5 -108.5zM543 872q-117 0 -182.5 -101t-69.5 -257q2 -74 88 -61l41 6q88 14 145.5 42.5t82 65.5t31.5 66t7 63q0 176 -143 176z" glyph-name="ecaron" horiz-adv-x="929" unicode="ě"/><glyph d="M821 1466q-121 0 -193.5 74t-56.5 201q2 23 21 22h53q14 0 17 -22q14 -119 178 -119q162 0 207 119q8 23 22 22h53q16 0 15 -22q-16 -127 -105.5 -201t-210.5 -74zM805 586l528 2l-6 -49q-78 -10 -104.5 -34t-34.5 -93l-49 -412q-45 35 -101.5 39t-105.5 -10.5 t-131 -31.5t-156 -17q-238 0 -402.5 154.5t-164.5 418.5q0 317 225 534.5t545 217.5q207 0 322.5 -91.5t115.5 -214.5q0 -78 -49 -129t-131 -51q-70 0 -92.5 39t-22.5 117q0 254 -211 254q-184 0 -294.5 -178.5t-110.5 -413.5q0 -242 123 -399.5t295 -157.5q113 0 131 86 l28 246q8 70 -20.5 93t-132.5 34z" glyph-name="Gbreve" horiz-adv-x="1347" unicode="Ğ"/><glyph d="M635 1118q-121 0 -193.5 74t-56.5 201q2 23 21 22h53q14 0 16 -22q14 -119 178 -119q162 0 207 119q8 23 23 22h53q16 0 14 -22q-16 -127 -105 -201t-210 -74zM340 -410q-143 0 -235.5 53.5t-92.5 147.5q0 59 34 92t81 33q41 0 71.5 -27.5t30.5 -76.5q0 -147 146 -148 q129 0 205.5 94.5t99.5 268.5l8 67q2 20 -12 19q-12 -2 -33 -23q-102 -102 -252 -102q-139 0 -238.5 96t-99.5 281q0 238 159 407.5t384 169.5q55 0 111.5 -12t91.5 -23.5t91 -9.5t124 27l-109 -871q-29 -231 -191.5 -347t-373.5 -116zM504 123q82 0 143.5 66.5t77.5 199.5 l20 170q18 150 -26.5 227.5t-128.5 77.5q-123 0 -204 -137t-81 -311q0 -143 56.5 -218t142.5 -75z" glyph-name="gbreve" horiz-adv-x="1058" unicode="ğ"/><glyph d="M819.5 1430q-59.5 0 -102.5 41.5t-43 101.5q0 61 43 103t102.5 42t101.5 -42t42 -103q0 -59 -42 -101t-101.5 -42zM805 586l528 2l-6 -49q-78 -10 -104.5 -34t-34.5 -93l-49 -412q-45 35 -101.5 39t-105.5 -10.5t-131 -31.5t-156 -17q-238 0 -402.5 154.5t-164.5 418.5 q0 317 225 534.5t545 217.5q207 0 322.5 -91.5t115.5 -214.5q0 -78 -49 -129t-131 -51q-70 0 -92.5 39t-22.5 117q0 254 -211 254q-184 0 -294.5 -178.5t-110.5 -413.5q0 -242 123 -399.5t295 -157.5q113 0 131 86l28 246q8 70 -20.5 93t-132.5 34z" glyph-name="Gdotaccent" horiz-adv-x="1347" unicode="Ġ"/><glyph d="M632.5 1081q-59.5 0 -102.5 42t-43 102q0 61 43 103t102.5 42t101.5 -42t42 -103q0 -59 -42 -101.5t-101.5 -42.5zM340 -410q-143 0 -235.5 53.5t-92.5 147.5q0 59 34 92t81 33q41 0 71.5 -27.5t30.5 -76.5q0 -147 146 -148q129 0 205.5 94.5t99.5 268.5l8 67 q2 20 -12 19q-12 -2 -33 -23q-102 -102 -252 -102q-139 0 -238.5 96t-99.5 281q0 238 159 407.5t384 169.5q55 0 111.5 -12t91.5 -23.5t91 -9.5t124 27l-109 -871q-29 -231 -191.5 -347t-373.5 -116zM504 123q82 0 143.5 66.5t77.5 199.5l20 170q18 150 -26.5 227.5 t-128.5 77.5q-123 0 -204 -137t-81 -311q0 -143 56.5 -218t142.5 -75z" glyph-name="gdotaccent" horiz-adv-x="1058" unicode="ġ"/><glyph d="M805 586l528 2l-6 -49q-78 -10 -104.5 -34t-34.5 -93l-49 -412q-45 35 -101.5 39t-105.5 -10.5t-131 -31.5t-156 -17q-238 0 -402.5 154.5t-164.5 418.5q0 317 225 534.5t545 217.5q207 0 322.5 -91.5t115.5 -214.5q0 -78 -49 -129t-131 -51q-70 0 -92.5 39t-22.5 117 q0 254 -211 254q-184 0 -294.5 -178.5t-110.5 -413.5q0 -242 123 -399.5t295 -157.5q113 0 131 86l28 246q8 70 -20.5 93t-132.5 34zM575 -127q68 0 108 -44t40 -114q0 -102 -66.5 -197.5t-164.5 -156.5l-37 45q98 76 114 152q8 33 -24 32q-51 0 -88 39t-37 92 q0 68 42.5 110t112.5 42z" glyph-name="Gcommaaccent" horiz-adv-x="1347" unicode="Ģ"/><glyph d="M651 1575l37 -45q-98 -76 -115 -152q-8 -33 25 -32q51 0 88 -39t37 -93q0 -68 -43 -109.5t-113 -41.5q-68 0 -107.5 44t-39.5 114q0 102 66.5 197.5t164.5 156.5zM340 -410q-143 0 -235.5 53.5t-92.5 147.5q0 59 34 92t81 33q41 0 71.5 -27.5t30.5 -76.5q0 -147 146 -148 q129 0 205.5 94.5t99.5 268.5l8 67q2 20 -12 19q-12 -2 -33 -23q-102 -102 -252 -102q-139 0 -238.5 96t-99.5 281q0 238 159 407.5t384 169.5q55 0 111.5 -12t91.5 -23.5t91 -9.5t124 27l-109 -871q-29 -231 -191.5 -347t-373.5 -116zM504 123q82 0 143.5 66.5t77.5 199.5 l20 170q18 150 -26.5 227.5t-128.5 77.5q-123 0 -204 -137t-81 -311q0 -143 56.5 -218t142.5 -75z" glyph-name="gcommaaccent" horiz-adv-x="1058" unicode="ģ"/><glyph d="M946 1272h533l-9 -68q-135 -18 -149 -123l-109 -891q-14 -104 119 -122l-8 -68h-532l8 68q135 18 149 122l39 322q2 33 -18.5 48t-55.5 15h-356q-82 0 -90 -67l25 205l-64 -523q-14 -104 119 -122l-8 -68h-533l8 68q135 18 150 122l108 891q14 104 -118 123l8 68h532 l-8 -68q-135 -18 -149 -123l-11 -82q8 -45 80 -45h350q70 0 91 47l10 80q14 104 -119 123zM526 1020v2v-2zM924 678q84 0 92 67l-4 -32l12 92q-8 47 -78 47h-354q-70 0 -88 -45l-8 -66q-2 -31 18.5 -47t56.5 -16h353zM498 791v-7v7zM496 745v-2v2z" glyph-name="Hbar" horiz-adv-x="1441" unicode="Ħ"/><glyph d="M958 211q-8 -66 31 -90.5t98 2.5l-10 -64q-90 -72 -192 -71q-70 0 -119 48t-39 124l47 350q18 141 -9.5 207.5t-117.5 66.5q-98 0 -173 -94t-91 -233l-57 -457h-228l131 1024h-129l11 80h127q6 78 -22 104.5t-101 26.5l10 70q209 0 371 41l-31 -242h352l-10 -80h-352 l-33 -262q-4 -37 4 -35q4 0 57 59q147 160 305 160q113 0 177.5 -84t40.5 -282z" glyph-name="hbar" horiz-adv-x="1148" unicode="ħ"/><glyph d="M156 1642q2 35 45 35h579q20 0 29.5 -8t7.5 -27l-8 -65q-2 -35 -45 -35h-580q-20 0 -29.5 8.5t-7.5 26.5zM6 0l8 68q135 18 150 122l108 891q14 104 -118 123l8 68h532l-8 -68q-135 -18 -149 -123l-109 -891q-14 -104 119 -122l-8 -68h-533z" glyph-name="Imacron" horiz-adv-x="657" unicode="Ī"/><glyph d="M53 1294q2 35 45 35h580q20 0 29.5 -8t7.5 -27l-8 -65q-2 -35 -45 -35h-580q-20 0 -29.5 8t-7.5 27zM262 -12q-68 0 -116 48t-37 124l79 559q8 61 -29.5 85.5t-97.5 -1.5l11 63q86 72 194 72q68 0 116 -48t38 -124l-80 -559q-8 -61 30 -86t97 2l-10 -64q-93 -71 -195 -71 z" glyph-name="imacron" horiz-adv-x="538" unicode="ī"/><glyph d="M162 1272h532l-8 -68q-135 -18 -149 -123l-109 -891q-14 -104 119 -122l-8 -68h-172q-213 -129 -213 -250q0 -47 28.5 -73.5t79.5 -26.5q104 0 156 112h84q-12 -35 -32.5 -67.5t-59.5 -74.5t-105.5 -67.5t-150.5 -25.5q-104 0 -172 43t-68 129q0 96 86 181t236 120h-230 l8 68q135 18 150 122l108 891q14 104 -118 123z" glyph-name="Iogonek" horiz-adv-x="657" unicode="Į"/><glyph d="M364.5 1081q-59.5 0 -102.5 42t-43 102q0 61 43 103t102.5 42t101.5 -42t42 -103q0 -59 -42 -101.5t-101.5 -42.5zM426 -201h86q-12 -33 -32.5 -66.5t-58.5 -75.5t-102.5 -67.5t-144.5 -25.5q-104 0 -173 44t-69 134q0 84 73 154.5t194 113.5q-86 51 -72 150l80 559 q8 61 -30 85.5t-97 -1.5l10 63q86 72 195 72q68 0 116 -48t37 -124l-80 -559q-8 -61 30 -86t97 2l-10 -64q-41 -31 -86 -49v-2q-111 -31 -164 -94.5t-53 -124.5q0 -102 104 -102q99 -1 150 112z" glyph-name="iogonek" horiz-adv-x="624" unicode="į"/><glyph d="M475.5 1430q-59.5 0 -102.5 41.5t-43 101.5q0 61 43 103t102.5 42t101 -42t41.5 -103q0 -59 -41.5 -101t-101 -42zM6 0l8 68q135 18 150 122l108 891q14 104 -118 123l8 68h532l-8 -68q-135 -18 -149 -123l-109 -891q-14 -104 119 -122l-8 -68h-533z" glyph-name="Idotaccent" horiz-adv-x="657" unicode="İ"/><glyph d="M262 -12q-68 0 -116 48t-37 124l79 559q8 61 -29.5 85.5t-97.5 -1.5l11 63q86 72 194 72q68 0 116 -48t38 -124l-80 -559q-8 -61 30 -86t97 2l-10 -64q-93 -71 -195 -71z" glyph-name="dotlessi" horiz-adv-x="538" unicode="ı"/><glyph d="M6 0l8 68q135 18 150 122l108 891q14 104 -118 123l8 68h532l-8 -68q-135 -18 -149 -123l-109 -891q-14 -104 119 -122l-8 -68h-533zM866 -20q-127 0 -205.5 54t-78.5 146q0 68 41 112t108 44q113 0 96 -139q-16 -143 70 -144q76 0 90 137l111 891q6 57 -27 85t-113 38 l9 68h553l-9 -68q-70 -10 -105.5 -37.5t-43.5 -85.5l-94 -768q-14 -121 -83 -199.5t-149 -106t-170 -27.5z" glyph-name="IJ" horiz-adv-x="1480" unicode="Ĳ"/><glyph d="M331.5 1081q-59.5 0 -102.5 42t-43 102q0 61 43 103t102.5 42t101.5 -42t42 -103q0 -59 -42 -101.5t-101.5 -42.5zM917.5 1081q-59.5 0 -102.5 42t-43 102q0 61 43 103t102.5 42t101.5 -42t42 -103q0 -59 -42 -101.5t-101.5 -42.5zM262 -12q-68 0 -116 48t-37 124l79 559 q8 61 -29.5 85.5t-97.5 -1.5l11 63q86 72 194 72q68 0 116 -48t38 -124l-80 -559q-8 -61 30 -86t97 2l-10 -64q-93 -71 -195 -71zM510 -410q-125 0 -187.5 54.5t-62.5 130.5q0 57 35 90t82 33q41 0 69.5 -28t28.5 -77q0 -129 78 -129q59 0 85 79t44 228l92 748 q8 61 -29.5 85.5t-97.5 -1.5l10 63q88 72 195 72q68 0 115 -48t39 -124l-97 -774q-25 -199 -130 -300.5t-269 -101.5z" glyph-name="ij" horiz-adv-x="1101" unicode="ĳ"/><glyph d="M852 827q-43 -43 -45 -81.5t29 -81.5l241 -402q61 -100 115.5 -140t124.5 -54l-8 -68h-582l8 68q133 31 72 135l-156 262q-66 111 -123 53l-32 -33q-18 -18 -27.5 -38.5t-11.5 -34t-8 -54.5l-21 -168q-14 -104 119 -122l-8 -68h-533l8 68q135 18 150 122l108 891 q14 104 -118 123l8 68h532l-8 -68q-135 -18 -149 -123l-62 -512l529 506q51 53 31.5 89t-83.5 40l9 68h438l-8 -68q-66 -4 -146 -41t-141 -96zM606 -127q68 0 108 -44t40 -114q0 -102 -66.5 -197.5t-165.5 -156.5l-37 45q98 76 115 152q8 33 -25 32q-51 0 -87.5 39t-36.5 92 q0 68 42.5 110t112.5 42z" glyph-name="Kcommaaccent" horiz-adv-x="1406" unicode="Ķ"/><glyph d="M831 221q45 -53 67 -76.5t58.5 -48t75.5 -26.5l-10 -70h-264l-367 451q367 133 367 268q0 41 -28 65.5t-71 24.5q-92 0 -166.5 -85t-99.5 -187l-67 -537h-228l138 1073q12 98 -14.5 130t-106.5 32l10 70q209 0 371 41l-68 -529q0 -47 59 -16q14 10 56 35q170 106 262 110 q70 0 116 -42t46 -111q0 -156 -301 -293q-47 -20 -13 -64zM463 -127q68 0 107.5 -44t39.5 -114q0 -102 -66.5 -197.5t-164.5 -156.5l-37 45q98 76 115 152q8 33 -25 32q-51 0 -88 39t-37 92q0 68 43 110t113 42z" glyph-name="kcommaaccent" horiz-adv-x="1081" unicode="ķ"/><glyph d="M344 1522l193 223q102 117 182 35q41 -53 20.5 -99.5t-88.5 -87.5l-248 -147q-43 -27 -69.5 4t10.5 72zM6 0l8 68q135 18 150 122l108 891q14 104 -118 123l8 68h532l-8 -68q-135 -18 -149 -123l-109 -891q-8 -59 22.5 -87.5t108.5 -24.5l205 10q92 4 147.5 36t102.5 97 l49 72h61l-49 -125q-37 -96 -41 -168h-1028z" glyph-name="Lacute" horiz-adv-x="1185" unicode="Ĺ"/><glyph d="M276 1522l193 223q102 117 182 35q41 -53 20.5 -99.5t-87.5 -87.5l-248 -147q-43 -27 -70 4t10 72zM270 -12q-82 0 -121.5 46t-29.5 126l117 913q12 98 -14.5 130t-106.5 32l10 70q211 0 373 41l-146 -1139q-8 -61 30 -86t97 2l-10 -64q-86 -71 -199 -71z" glyph-name="lacute" horiz-adv-x="540" unicode="ĺ"/><glyph d="M6 0l8 68q135 18 150 122l108 891q14 104 -118 123l8 68h532l-8 -68q-135 -18 -149 -123l-109 -891q-8 -59 22.5 -87.5t108.5 -24.5l205 10q92 4 147.5 36t102.5 97l49 72h61l-49 -125q-37 -96 -41 -168h-1028zM412 -639l-37 45q98 76 114 152q8 33 -24 32q-51 0 -88 39 t-37 92q0 68 43 110t113 42q68 0 107.5 -44t39.5 -114q0 -102 -66.5 -197.5t-164.5 -156.5z" glyph-name="Lcommaaccent" horiz-adv-x="1185" unicode="Ļ"/><glyph d="M270 -12q-82 0 -121.5 46t-29.5 126l117 913q12 98 -14.5 130t-106.5 32l10 70q211 0 373 41l-146 -1139q-8 -61 30 -86t97 2l-10 -64q-86 -71 -199 -71zM98 -639l-37 45q98 76 115 152q8 33 -24 32q-51 0 -88 39t-37 92q0 68 43 110t112 42q68 0 108 -44t40 -114 q0 -102 -67 -197.5t-165 -156.5z" glyph-name="lcommaaccent" horiz-adv-x="540" unicode="ļ"/><glyph d="M879 776l-37 45q98 76 114 152q8 33 -24 33q-51 0 -88 38.5t-37 92.5q0 68 43 109.5t113 41.5q68 0 107.5 -44t39.5 -114q0 -102 -66.5 -197.5t-164.5 -156.5zM6 0l8 68q135 18 150 122l108 891q14 104 -118 123l8 68h532l-8 -68q-135 -18 -149 -123l-109 -891 q-8 -59 22.5 -87.5t108.5 -24.5l205 10q92 4 147.5 36t102.5 97l49 72h61l-49 -125q-37 -96 -41 -168h-1028z" glyph-name="Lcaron" horiz-adv-x="1185" unicode="Ľ"/><glyph d="M602 979q-59 0 -49 68l25 184q16 121 122 121q55 0 77 -39t-9 -105l-86 -170q-31 -59 -80 -59zM270 -12q-82 0 -121.5 46t-29.5 126l117 913q12 98 -14.5 130t-106.5 32l10 70q211 0 373 41l-146 -1139q-8 -61 30 -86t97 2l-10 -64q-86 -71 -199 -71z" glyph-name="lcaron" horiz-adv-x="665" unicode="ľ"/><glyph d="M6 0l8 68q135 18 150 122l108 891q14 104 -118 123l8 68h532l-8 -68q-135 -18 -149 -123l-109 -891q-8 -59 22.5 -87.5t108.5 -24.5l205 10q92 4 147.5 36t102.5 97l49 72h61l-49 -125q-37 -96 -41 -168h-1028zM839.5 555q-57.5 0 -98.5 42t-41 99.5t41 98.5t98.5 41 t98.5 -41t41 -98.5t-41 -99.5t-98.5 -42z" glyph-name="Ldot" horiz-adv-x="1185" unicode="Ŀ"/><glyph d="M270 -12q-82 0 -121.5 46t-29.5 126l117 913q12 98 -14.5 130t-106.5 32l10 70q211 0 373 41l-146 -1139q-8 -61 30 -86t97 2l-10 -64q-86 -71 -199 -71zM759.5 586q-57.5 0 -98 42t-40.5 99t40.5 98t98 41t98.5 -41t41 -98t-41 -99t-98.5 -42z" glyph-name="ldot" horiz-adv-x="737" unicode="ŀ"/><glyph d="M1063 293h61l-49 -125q-37 -96 -41 -168h-1028l8 68q135 18 150 122l41 332l-146 -73l11 81l145 74l57 477q14 104 -118 123l8 68h532l-8 -68q-135 -18 -149 -123l-41 -333l202 102l-10 -82l-203 -102l-57 -476q-8 -59 22.5 -87.5t108.5 -24.5l205 10q92 4 147.5 36 t102.5 97z" glyph-name="Lslash" horiz-adv-x="1185" unicode="Ł"/><glyph d="M410 651l-58 -444q-8 -61 30 -86t97 2l-10 -64q-86 -72 -199 -71q-82 0 -121.5 46t-29.5 126l45 358l-125 -69l8 81l129 70l60 473q12 98 -14.5 130t-106.5 32l10 70q211 0 373 41l-78 -611l172 94l-8 -81z" glyph-name="lslash" horiz-adv-x="569" unicode="ł"/><glyph d="M762 1446q-43 -27 -69.5 4t9.5 72l193 223q102 117 182 35q41 -53 20.5 -99.5t-87.5 -87.5zM1032 1272h383l-8 -68q-70 -10 -105.5 -37.5t-44.5 -85.5l-133 -1081h-104l-647 950l-94 -760q-14 -104 118 -122l-8 -68h-383l8 68q135 18 150 122l108 891q14 104 -118 123 l8 68h321l578 -852l82 661q14 104 -119 123z" glyph-name="Nacute" horiz-adv-x="1376" unicode="Ń"/><glyph d="M541 1174l192 223q102 117 182 35q41 -53 20.5 -99.5t-87.5 -87.5l-248 -147q-43 -27 -69.5 4t10.5 72zM883 -12q-70 0 -119 48t-39 124l47 350q18 145 -9.5 209.5t-117.5 64.5q-102 0 -176 -102t-92 -256l-51 -426h-226l88 719q8 61 -29.5 85.5t-97.5 -1.5l11 63 q90 72 192 72q68 0 112 -46t44 -130q0 -37 10 -35q8 0 62 59q141 160 294 160q113 0 177.5 -84t40.5 -282l-48 -369q-8 -66 31 -90.5t98 2.5l-10 -64q-90 -71 -192 -71z" glyph-name="nacute" unicode="ń"/><glyph d="M1032 1272h383l-8 -68q-70 -10 -105.5 -37.5t-44.5 -85.5l-133 -1081h-104l-647 950l-94 -760q-14 -104 118 -122l-8 -68h-383l8 68q135 18 150 122l108 891q14 104 -118 123l8 68h321l578 -852l82 661q14 104 -119 123zM590 -127q68 0 107.5 -44t39.5 -114 q0 -102 -66.5 -197.5t-164.5 -156.5l-37 45q98 76 115 152q8 33 -25 32q-51 0 -88 39t-37 92q0 68 43 110t113 42z" glyph-name="Ncommaaccent" horiz-adv-x="1376" unicode="Ņ"/><glyph d="M883 -12q-70 0 -119 48t-39 124l47 350q18 145 -9.5 209.5t-117.5 64.5q-102 0 -176 -102t-92 -256l-51 -426h-226l88 719q8 61 -29.5 85.5t-97.5 -1.5l11 63q90 72 192 72q68 0 112 -46t44 -130q0 -37 10 -35q8 0 62 59q141 160 294 160q113 0 177.5 -84t40.5 -282 l-48 -369q-8 -66 31 -90.5t98 2.5l-10 -64q-90 -71 -192 -71zM387 -639l-37 45q98 76 115 152q8 33 -25 32q-51 0 -88 39t-37 92q0 68 43 110t113 42q68 0 107.5 -44t39.5 -114q0 -102 -66.5 -197.5t-164.5 -156.5z" glyph-name="ncommaaccent" unicode="ņ"/><glyph d="M1130 1737l-319 -332l-240 332l45 45l220 -172l260 172zM1032 1272h383l-8 -68q-70 -10 -105.5 -37.5t-44.5 -85.5l-133 -1081h-104l-647 950l-94 -760q-14 -104 118 -122l-8 -68h-383l8 68q135 18 150 122l108 891q14 104 -118 123l8 68h321l578 -852l82 661 q14 104 -119 123z" glyph-name="Ncaron" horiz-adv-x="1376" unicode="Ň"/><glyph d="M649 1057l-239 332l45 45l219 -172l260 172l35 -45zM883 -12q-70 0 -119 48t-39 124l47 350q18 145 -9.5 209.5t-117.5 64.5q-102 0 -176 -102t-92 -256l-51 -426h-226l88 719q8 61 -29.5 85.5t-97.5 -1.5l11 63q90 72 192 72q68 0 112 -46t44 -130q0 -37 10 -35 q8 0 62 59q141 160 294 160q113 0 177.5 -84t40.5 -282l-48 -369q-8 -66 31 -90.5t98 2.5l-10 -64q-90 -71 -192 -71z" glyph-name="ncaron" unicode="ň"/><glyph d="M1032 1272h383l-8 -68q-70 -10 -105.5 -37.5t-44.5 -85.5l-133 -1081l-10 -76q-23 -176 -139.5 -255t-261.5 -79q-127 0 -206 54.5t-79 146.5q0 68 41 112t109 44q113 0 96 -140q-16 -143 69 -143q72 0 91 137l51 400l-512 749l-94 -760q-14 -104 118 -122l-8 -68h-383 l8 68q135 18 150 122l108 891q14 104 -118 123l8 68h321l578 -852l82 661q14 104 -119 123z" glyph-name="Eng" horiz-adv-x="1376" unicode="Ŋ"/><glyph d="M522 -410q-131 0 -195.5 54.5t-64.5 130.5q0 57 35 90t82 33q41 0 69.5 -28t28.5 -77q0 -129 84 -129q25 0 44.5 10.5t33.5 36t24.5 48t18.5 65.5t12 69.5t11 77.5l67 539q18 145 -9.5 209.5t-117.5 64.5q-102 0 -176 -102t-92 -256l-51 -426h-226l88 719 q8 61 -29.5 85.5t-97.5 -1.5l11 63q90 72 192 72q68 0 112 -46t44 -130q0 -37 10 -35q8 0 62 59q141 160 294 160q113 0 177.5 -84t40.5 -282l-72 -588q-25 -199 -132.5 -300.5t-277.5 -101.5z" glyph-name="eng" horiz-adv-x="1122" unicode="ŋ"/><glyph d="M526 1642q2 35 45 35h580q20 0 29.5 -8t7.5 -27l-8 -65q-2 -35 -45 -35h-580q-20 0 -29.5 8.5t-7.5 26.5zM627 -20q-233 0 -392 150.5t-159 401.5q0 322 216 547.5t525 225.5q233 0 392 -150.5t159 -402.5q0 -319 -217 -545.5t-524 -226.5zM698 76q123 0 209 96 t123 231.5t37 286.5q0 229 -89 373.5t-233 144.5q-123 0 -209.5 -97t-122.5 -231.5t-36 -287.5q0 -229 89 -372.5t232 -143.5z" glyph-name="Omacron" horiz-adv-x="1400" unicode="Ō"/><glyph d="M276 1294q2 35 46 35h579q20 0 29.5 -8t7.5 -27l-8 -65q-2 -35 -45 -35h-580q-20 0 -29.5 8t-7.5 27zM469 -12q-180 0 -296 111.5t-116 297.5q0 211 144.5 380t365.5 169q180 0 297 -111.5t117 -297.5q0 -211 -145.5 -380t-366.5 -169zM510 61q113 0 166 128t53 298 q0 166 -52 275.5t-151 109.5q-113 0 -166 -128t-53 -298q0 -166 52.5 -275.5t150.5 -109.5z" glyph-name="omacron" horiz-adv-x="1036" unicode="ō"/><glyph d="M518 1522l193 223q102 117 182 35q41 -53 20.5 -99.5t-88.5 -87.5l-247 -147q-43 -27 -70 4t10 72zM940 1522l193 223q102 117 182 35q41 -53 20.5 -99.5t-88.5 -87.5l-248 -147q-43 -27 -69.5 4t10.5 72zM627 -20q-233 0 -392 150.5t-159 401.5q0 322 216 547.5 t525 225.5q233 0 392 -150.5t159 -402.5q0 -319 -217 -545.5t-524 -226.5zM698 76q123 0 209 96t123 231.5t37 286.5q0 229 -89 373.5t-233 144.5q-123 0 -209.5 -97t-122.5 -231.5t-36 -287.5q0 -229 89 -372.5t232 -143.5z" glyph-name="Ohungarumlaut" horiz-adv-x="1400" unicode="Ő"/><glyph d="M250 1174l192 223q102 117 183 35q41 -53 20.5 -99.5t-88.5 -87.5l-248 -147q-43 -27 -69.5 4t10.5 72zM672 1174l192 223q102 117 183 35q41 -53 20.5 -99.5t-88.5 -87.5l-248 -147q-43 -27 -69.5 4t10.5 72zM469 -12q-180 0 -296 111.5t-116 297.5q0 211 144.5 380 t365.5 169q180 0 297 -111.5t117 -297.5q0 -211 -145.5 -380t-366.5 -169zM510 61q113 0 166 128t53 298q0 166 -52 275.5t-151 109.5q-113 0 -166 -128t-53 -298q0 -166 52.5 -275.5t150.5 -109.5z" glyph-name="ohungarumlaut" horiz-adv-x="1036" unicode="ő"/><glyph d="M1507 92q109 2 156 33t133 145h45q-59 -129 -86 -235q-10 -35 -47 -35h-915q-76 -20 -166 -20q-256 0 -418 179t-127 472q37 301 250 487.5t485 186.5q98 0 197 -33h815q39 0 39 -41q0 -100 14 -234h-45q-35 96 -85 139.5t-140 43.5h-201q-63 0 -95 -26t-40 -83l-35 -272 q-8 -57 19.5 -83t91.5 -26h127q100 0 140 32t62 114h37l-47 -383h-37q-4 80 -35.5 112.5t-132.5 32.5h-127q-63 0 -95 -25.5t-40 -83.5l-37 -290q-8 -57 21 -83t102 -26zM385 735q-35 -285 56 -472t257 -187q113 0 199 86l6 28l101 826q-92 193 -259 192q-125 0 -227 -116.5 t-133 -356.5z" glyph-name="OE" horiz-adv-x="1904" unicode="Œ"/><glyph d="M1063 383q-90 -16 -45 -113q72 -141 231 -141q135 0 215 80l39 -51q-53 -66 -147 -117t-215 -51q-207 0 -322 149q-147 -152 -350 -151q-180 0 -296 111.5t-116 297.5q0 211 144.5 380t365.5 169q215 0 330 -149q145 152 356 151q154 0 238 -72.5t84 -183.5 q0 -115 -100.5 -184.5t-319.5 -108.5zM1223 874q-100 0 -164 -76.5t-82 -201.5q4 -37 4 -59q0 -35 -2 -54q16 -37 80 -28l41 6q88 14 145.5 42.5t82 65.5t31.5 66t7 63q0 176 -143 176zM510 61q113 0 166 128t53 298q0 166 -52 275.5t-151 109.5q-113 0 -166 -128t-53 -298 q0 -166 52.5 -275.5t150.5 -109.5z" glyph-name="oe" horiz-adv-x="1609" unicode="œ"/><glyph d="M678 1522l192 223q102 117 183 35q41 -53 20.5 -99.5t-88.5 -87.5l-248 -147q-43 -27 -69.5 4t10.5 72zM6 0l8 68q135 18 150 122l108 891q14 104 -118 123l8 68h635q203 0 319.5 -78t116.5 -221q0 -145 -92 -242.5t-246 -120.5q-10 -2 -12 -12t8 -12q86 -29 130 -86.5 t71 -173.5q39 -170 65 -211q29 -47 78 -47l-10 -68h-105q-84 0 -139 18.5t-93 66.5t-59.5 105.5t-46.5 157.5q-29 115 -69.5 160t-124.5 45q-66 0 -94.5 -25.5t-34.5 -83.5l-31 -254q-8 -57 24.5 -84.5t114.5 -37.5l-8 -68h-553zM592 655h86q131 0 207 88t76 226 q0 201 -197 200h-131q-84 0 -96 -96l-39 -309q-8 -57 13.5 -83t80.5 -26z" glyph-name="Racute" horiz-adv-x="1325" unicode="Ŕ"/><glyph d="M389 1174l193 223q102 117 182 35q41 -53 20.5 -99.5t-88.5 -87.5l-247 -147q-43 -27 -70 4t10 72zM100 0l88 719q8 61 -29.5 85.5t-97.5 -1.5l11 63q90 72 192 72q68 0 112 -46t44 -130q0 -35 10 -35q8 0 55 57q133 162 271 162q61 0 97 -28.5t36 -75.5q0 -96 -160 -160 h-2q0 104 -92 104q-96 0 -168 -103t-90 -257l-51 -426h-226z" glyph-name="racute" horiz-adv-x="884" unicode="ŕ"/><glyph d="M6 0l8 68q135 18 150 122l108 891q14 104 -118 123l8 68h635q203 0 319.5 -78t116.5 -221q0 -145 -92 -242.5t-246 -120.5q-10 -2 -12 -12t8 -12q86 -29 130 -86.5t71 -173.5q39 -170 65 -211q29 -47 78 -47l-10 -68h-105q-84 0 -139 18.5t-93 66.5t-59.5 105.5 t-46.5 157.5q-29 115 -69.5 160t-124.5 45q-66 0 -94.5 -25.5t-34.5 -83.5l-31 -254q-8 -57 24.5 -84.5t114.5 -37.5l-8 -68h-553zM592 655h86q131 0 207 88t76 226q0 201 -197 200h-131q-84 0 -96 -96l-39 -309q-8 -57 13.5 -83t80.5 -26zM481 -639l-37 45q98 76 115 152 q8 33 -24 32q-51 0 -88 39t-37 92q0 68 43 110t112 42q68 0 108 -44t40 -114q0 -102 -67 -197.5t-165 -156.5z" glyph-name="Rcommaaccent" horiz-adv-x="1325" unicode="Ŗ"/><glyph d="M100 0l88 719q8 61 -29.5 85.5t-97.5 -1.5l11 63q90 72 192 72q68 0 112 -46t44 -130q0 -35 10 -35q8 0 55 57q133 162 271 162q61 0 97 -28.5t36 -75.5q0 -96 -160 -160h-2q0 104 -92 104q-96 0 -168 -103t-90 -257l-51 -426h-226zM98 -639l-37 45q98 76 115 152 q8 33 -24 32q-51 0 -88 39t-37 92q0 68 43 110t112 42q68 0 108 -44t40 -114q0 -102 -67 -197.5t-165 -156.5z" glyph-name="rcommaaccent" horiz-adv-x="884" unicode="ŗ"/><glyph d="M786 1405l-239 332l45 45l219 -172l260 172l35 -45zM6 0l8 68q135 18 150 122l108 891q14 104 -118 123l8 68h635q203 0 319.5 -78t116.5 -221q0 -145 -92 -242.5t-246 -120.5q-10 -2 -12 -12t8 -12q86 -29 130 -86.5t71 -173.5q39 -170 65 -211q29 -47 78 -47l-10 -68 h-105q-84 0 -139 18.5t-93 66.5t-59.5 105.5t-46.5 157.5q-29 115 -69.5 160t-124.5 45q-66 0 -94.5 -25.5t-34.5 -83.5l-31 -254q-8 -57 24.5 -84.5t114.5 -37.5l-8 -68h-553zM592 655h86q131 0 207 88t76 226q0 201 -197 200h-131q-84 0 -96 -96l-39 -309q-8 -57 13.5 -83 t80.5 -26z" glyph-name="Rcaron" horiz-adv-x="1325" unicode="Ř"/><glyph d="M498 1057l-240 332l45 45l219 -172l260 172l35 -45zM100 0l88 719q8 61 -29.5 85.5t-97.5 -1.5l11 63q90 72 192 72q68 0 112 -46t44 -130q0 -35 10 -35q8 0 55 57q133 162 271 162q61 0 97 -28.5t36 -75.5q0 -96 -160 -160h-2q0 104 -92 104q-96 0 -168 -103t-90 -257 l-51 -426h-226z" glyph-name="rcaron" horiz-adv-x="884" unicode="ř"/><glyph d="M569 1522l193 223q102 117 182 35q41 -53 20.5 -99.5t-87.5 -87.5l-248 -147q-43 -27 -70 4t10 72zM481 -20q-125 0 -234.5 30.5t-172.5 77.5q-33 109 -14.5 218.5t81.5 109.5q16 0 23.5 -9.5t13.5 -35.5q35 -143 128 -219t220 -76q111 0 173.5 57t62.5 150 q0 49 -21.5 84.5t-70.5 64.5t-87 44.5t-114 39.5q-340 113 -340 381q0 182 146.5 295t363.5 113q109 0 215.5 -29t167.5 -74q31 -109 13.5 -218.5t-81.5 -109.5q-18 0 -26 9.5t-13 36.5q-25 137 -115.5 212.5t-205.5 75.5q-102 0 -162.5 -58t-60.5 -151q0 -84 61.5 -132 t185.5 -91q70 -25 111 -40t104.5 -51t99.5 -73t63.5 -97t27.5 -132q0 -193 -158 -298t-385 -105z" glyph-name="Sacute" horiz-adv-x="1107" unicode="Ś"/><glyph d="M348 1174l193 223q102 117 182 35q41 -53 20.5 -99.5t-88.5 -87.5l-247 -147q-43 -27 -70 4t10 72zM348 -12q-156 0 -240.5 70.5t-84.5 162.5q0 45 22.5 80t73.5 35q35 0 52 -13.5t19.5 -27.5t2.5 -43v-6q0 -90 45 -142.5t122 -52.5q82 0 118 44t36 95q0 45 -43 88.5 t-103.5 82t-121 82.5t-103.5 108.5t-43 140.5q0 111 92.5 182.5t248 71.5t232.5 -68.5t77 -158.5q0 -98 -101 -98q-74 0 -74 71q0 86 -34.5 139.5t-106.5 53.5q-61 0 -89 -35t-28 -80q0 -53 44.5 -100t105.5 -84t123.5 -78t106.5 -101.5t44 -134.5q0 -117 -109.5 -200.5 t-283.5 -83.5z" glyph-name="sacute" horiz-adv-x="817" unicode="ś"/><glyph d="M618 776q70 -25 111 -40t104.5 -51t99.5 -73t63.5 -97t27.5 -132q0 -172 -126 -274.5t-318 -122.5l-45 -78q78 6 136 -37t58 -117q0 -100 -92 -162.5t-213 -62.5q-102 0 -163.5 41t-61.5 100q0 70 62.5 96.5t107.5 -26.5q-6 -49 9 -93t64 -44q53 0 87 50t34 109 q0 76 -69 76q-16 0 -47 -8t-48 -8q-33 0 -43 22.5t9 51.5l53 86q-219 14 -344 106q-33 109 -14.5 218.5t81.5 109.5q16 0 23.5 -9.5t13.5 -35.5q35 -143 128 -219t220 -76q111 0 173.5 57t62.5 150q0 49 -21.5 84.5t-70.5 64.5t-87 44.5t-114 39.5q-340 113 -340 381 q0 182 146.5 295t363.5 113q109 0 215.5 -29t167.5 -74q31 -109 13.5 -218.5t-81.5 -109.5q-18 0 -26 9.5t-13 36.5q-25 137 -115.5 212.5t-205.5 75.5q-102 0 -162.5 -58t-60.5 -151q0 -84 61 -132t186 -91z" glyph-name="Scedilla" horiz-adv-x="1107" unicode="Ş"/><glyph d="M317 770q0 -53 44.5 -100t105.5 -84t123.5 -78t106.5 -101.5t44 -134.5q0 -100 -85 -179t-224 -99l-49 -86q78 6 136.5 -37t58.5 -117q0 -100 -92.5 -162.5t-213.5 -62.5q-102 0 -163.5 41t-61.5 100q0 70 62.5 96.5t107.5 -26.5q-6 -49 9.5 -93t64.5 -44q53 0 87 50 t34 109q0 76 -70 76q-16 0 -47 -8t-47 -8q-33 0 -43 22.5t8 51.5l59 98q-121 16 -185 81.5t-64 145.5q0 45 22.5 80t73.5 35q35 0 52 -13.5t19.5 -27.5t2.5 -43v-6q0 -90 45 -142.5t122 -52.5q82 0 118 44t36 95q0 45 -43 88.5t-103.5 82t-121 82.5t-103.5 108.5t-43 140.5 q0 111 92.5 182.5t248 71.5t232.5 -68.5t77 -158.5q0 -98 -101 -98q-74 0 -74 71q0 86 -34.5 139.5t-106.5 53.5q-61 0 -89 -35t-28 -80z" glyph-name="scedilla" horiz-adv-x="817" unicode="ş"/><glyph d="M678 1405l-240 332l45 45l219 -172l261 172l34 -45zM481 -20q-125 0 -234.5 30.5t-172.5 77.5q-33 109 -14.5 218.5t81.5 109.5q16 0 23.5 -9.5t13.5 -35.5q35 -143 128 -219t220 -76q111 0 173.5 57t62.5 150q0 49 -21.5 84.5t-70.5 64.5t-87 44.5t-114 39.5 q-340 113 -340 381q0 182 146.5 295t363.5 113q109 0 215.5 -29t167.5 -74q31 -109 13.5 -218.5t-81.5 -109.5q-18 0 -26 9.5t-13 36.5q-25 137 -115.5 212.5t-205.5 75.5q-102 0 -162.5 -58t-60.5 -151q0 -84 61.5 -132t185.5 -91q70 -25 111 -40t104.5 -51t99.5 -73 t63.5 -97t27.5 -132q0 -193 -158 -298t-385 -105z" glyph-name="Scaron" horiz-adv-x="1107" unicode="Š"/><glyph d="M457 1057l-240 332l45 45l219 -172l260 172l35 -45zM348 -12q-156 0 -240.5 70.5t-84.5 162.5q0 45 22.5 80t73.5 35q35 0 52 -13.5t19.5 -27.5t2.5 -43v-6q0 -90 45 -142.5t122 -52.5q82 0 118 44t36 95q0 45 -43 88.5t-103.5 82t-121 82.5t-103.5 108.5t-43 140.5 q0 111 92.5 182.5t248 71.5t232.5 -68.5t77 -158.5q0 -98 -101 -98q-74 0 -74 71q0 86 -34.5 139.5t-106.5 53.5q-61 0 -89 -35t-28 -80q0 -53 44.5 -100t105.5 -84t123.5 -78t106.5 -101.5t44 -134.5q0 -117 -109.5 -200.5t-283.5 -83.5z" glyph-name="scaron" horiz-adv-x="817" unicode="š"/><glyph d="M1247 1343q43 0 72 -31.5t29 -80.5q0 -100 -105.5 -142t-281.5 -6l-74 15l-2 -13l-111 -895q-8 -57 28 -84.5t132 -37.5l-8 -68h-195l-53 -92q78 6 136 -37t58 -117q0 -100 -92 -162.5t-213 -62.5q-102 0 -163.5 41t-61.5 100q0 70 62.5 96.5t107.5 -26.5q-6 -49 9.5 -93 t64.5 -44q53 0 87 50t34 109q0 76 -70 76q-16 0 -47 -8t-47 -8q-33 0 -43.5 22.5t8.5 51.5l63 104h-258l9 68q96 8 138 35.5t50 86.5l104 834q8 72 -8 103.5t-63 41.5h-2q-231 47 -232 -28q0 -12 17.5 -41t17.5 -49q0 -47 -29.5 -70t-68.5 -23q-53 0 -89 37t-36 99 q0 109 117.5 156.5t298.5 11.5l419 -86q242 -49 242 16q0 12 -16.5 34.5t-16.5 47.5q0 29 23.5 49t58.5 20z" glyph-name="Tcommaaccent" horiz-adv-x="1296" unicode="Ţ"/><glyph d="M444 784l-63 -528q-18 -170 82 -170q63 0 110 33l27 -64q-86 -68 -217 -67h-21l-47 -80q78 6 136.5 -37t58.5 -117q0 -100 -92 -162.5t-213 -62.5q-102 0 -163.5 41t-61.5 100q0 70 62 96.5t108 -26.5q-6 -49 9 -93t64 -44q53 0 87 50t34 109q0 76 -70 76q-16 0 -46.5 -8 t-47.5 -8q-33 0 -43 22.5t8 51.5l64 104h84q-162 51 -133 303l59 481q4 31 -6 43.5t-41 12.5h-84l6 59q131 10 204 70.5t108 175.5h83l-20 -166q-8 -55 49 -55h180l-10 -84h-180q-56 -1 -64 -56z" glyph-name="tcommaaccent" horiz-adv-x="679" unicode="ţ"/><glyph d="M1112 1737l-319 -332l-240 332l45 45l219 -172l260 172zM1247 1343q43 0 72 -31.5t29 -80.5q0 -100 -105.5 -142t-281.5 -6l-74 15l-2 -13l-111 -895q-8 -57 28 -84.5t132 -37.5l-8 -68h-613l9 68q96 8 138 35.5t50 86.5l104 834q8 72 -8 103.5t-63 41.5h-2 q-231 47 -232 -28q0 -12 17.5 -41t17.5 -49q0 -47 -29.5 -70t-68.5 -23q-53 0 -89 37t-36 99q0 109 117.5 156.5t298.5 11.5l419 -86q242 -49 242 16q0 12 -16.5 34.5t-16.5 47.5q0 29 23.5 49t58.5 20z" glyph-name="Tcaron" horiz-adv-x="1296" unicode="Ť"/><glyph d="M588 979q-59 0 -49 68l24 184q16 121 123 121q55 0 76.5 -39t-8.5 -105l-86 -170q-29 -59 -80 -59zM383 -12q-262 0 -223 315l59 481q4 31 -6 43.5t-41 12.5h-84l6 59q131 10 204 70.5t108 175.5h83l-20 -166q-8 -55 49 -55h180l-10 -84h-180q-55 0 -64 -56l-63 -528 q-18 -170 82 -170q63 0 110 33l27 -64q-86 -67 -217 -67z" glyph-name="tcaron" horiz-adv-x="702" unicode="ť"/><glyph d="M1247 1343q43 0 72 -31.5t29 -80.5q0 -100 -105.5 -142t-281.5 -6l-74 15l-2 -13l-31 -251h227l-10 -103h-229l-68 -541q-8 -57 28 -84.5t132 -37.5l-8 -68h-613l9 68q96 8 138 35.5t50 86.5l68 541h-230l14 103h228l24 190q8 72 -8 103.5t-63 41.5h-2q-231 47 -232 -28 q0 -12 17.5 -41t17.5 -49q0 -47 -29.5 -70t-68.5 -23q-53 0 -89 37t-36 99q0 109 117.5 156.5t298.5 11.5l419 -86q242 -49 242 16q0 12 -16.5 34.5t-16.5 47.5q0 29 23.5 49t58.5 20z" glyph-name="Tbar" horiz-adv-x="1296" unicode="Ŧ"/><glyph d="M508 840q-55 0 -64 -56l-10 -88h230l-11 -84h-229l-43 -356q-18 -170 82 -170q63 0 110 33l27 -64q-86 -68 -217 -67q-262 0 -223 315l39 309h-140l11 84h139l10 88q4 31 -6 43.5t-41 12.5h-84l6 59q131 10 204 70.5t108 175.5h83l-20 -166q-8 -55 49 -55h180l-10 -84 h-180z" glyph-name="tbar" horiz-adv-x="679" unicode="ŧ"/><glyph d="M520 1642q2 35 45 35h580q20 0 29.5 -8t7.5 -27l-8 -65q-2 -35 -46 -35h-579q-20 0 -29.5 8.5t-7.5 26.5zM643 -20q-233 0 -357 139t-89 422l65 540q14 104 -119 123l9 68h534l-8 -68q-70 -10 -105.5 -37.5t-44.5 -85.5l-63 -512q-55 -457 254 -456q145 0 248.5 108.5 t130.5 335.5l63 524q14 102 -127 123l8 68h394l-9 -68q-141 -20 -155 -123l-70 -561q-31 -254 -175 -397t-384 -143z" glyph-name="Umacron" horiz-adv-x="1386" unicode="Ū"/><glyph d="M315 1294q2 35 45 35h580q20 0 29.5 -8t7.5 -27l-8 -65q-2 -35 -45 -35h-580q-20 0 -29.5 8t-7.5 27zM360 -12q-113 0 -177 82t-40 276l47 369q8 66 -30.5 90t-98.5 -2l11 63q90 72 192 72q70 0 119 -48t39 -124l-47 -350q-18 -139 9.5 -202.5t117.5 -63.5q104 0 177 98 t91 252l27 215q8 66 -31 90t-98 -2l10 63q90 72 192 72q70 0 118 -48t40 -124l-70 -559q-8 -61 30 -86t97 2l-10 -64q-90 -72 -192 -71q-68 0 -112 46t-44 130q0 37 -10 37q-8 0 -62 -60q-141 -153 -295 -153z" glyph-name="umacron" unicode="ū"/><glyph d="M637 1118q-121 0 -193.5 74t-56.5 201q2 23 21 22h53q14 0 16 -22q14 -119 178 -119q162 0 207 119q8 23 23 22h53q16 0 14 -22q-16 -127 -105 -201t-210 -74zM360 -12q-113 0 -177 82t-40 276l47 369q8 66 -30.5 90t-98.5 -2l11 63q90 72 192 72q70 0 119 -48t39 -124 l-47 -350q-18 -139 9.5 -202.5t117.5 -63.5q104 0 177 98t91 252l27 215q8 66 -31 90t-98 -2l10 63q90 72 192 72q70 0 118 -48t40 -124l-70 -559q-8 -61 30 -86t97 2l-10 -64q-90 -72 -192 -71q-68 0 -112 46t-44 130q0 37 -10 37q-8 0 -62 -60q-141 -153 -295 -153z" glyph-name="ubreve" unicode="ŭ"/><glyph d="M833.5 1454q-88.5 0 -148.5 58.5t-60 142.5t60 143.5t148.5 59.5t148.5 -59.5t60 -143.5t-60 -142.5t-148.5 -58.5zM833.5 1563q40.5 0 65.5 25.5t25 66.5q0 39 -25 66.5t-65.5 27.5t-65.5 -27.5t-25 -66.5q0 -41 25 -66.5t65.5 -25.5zM643 -20q-233 0 -357 139t-89 422 l65 540q14 104 -119 123l9 68h534l-8 -68q-70 -10 -105.5 -37.5t-44.5 -85.5l-63 -512q-55 -457 254 -456q145 0 248.5 108.5t130.5 335.5l63 524q14 102 -127 123l8 68h394l-9 -68q-141 -20 -155 -123l-70 -561q-31 -254 -175 -397t-384 -143z" glyph-name="Uring" horiz-adv-x="1386" unicode="Ů"/><glyph d="M629 1106q-88 0 -148.5 58.5t-60.5 142.5t60.5 143t148.5 59t148.5 -59t60.5 -143t-60.5 -142.5t-148.5 -58.5zM629 1214q41 0 65.5 26t24.5 67q0 39 -24.5 66.5t-65.5 27.5t-65.5 -27.5t-24.5 -66.5q0 -41 24.5 -67t65.5 -26zM360 -12q-113 0 -177 82t-40 276l47 369 q8 66 -30.5 90t-98.5 -2l11 63q90 72 192 72q70 0 119 -48t39 -124l-47 -350q-18 -139 9.5 -202.5t117.5 -63.5q104 0 177 98t91 252l27 215q8 66 -31 90t-98 -2l10 63q90 72 192 72q70 0 118 -48t40 -124l-70 -559q-8 -61 30 -86t97 2l-10 -64q-90 -72 -192 -71 q-68 0 -112 46t-44 130q0 37 -10 37q-8 0 -62 -60q-141 -153 -295 -153z" glyph-name="uring" unicode="ů"/><glyph d="M512 1522l193 223q102 117 182 35q41 -53 20.5 -99.5t-88.5 -87.5l-248 -147q-43 -27 -69.5 4t10.5 72zM934 1522l192 223q102 117 183 35q41 -53 20.5 -99.5t-88.5 -87.5l-248 -147q-43 -27 -69.5 4t10.5 72zM643 -20q-233 0 -357 139t-89 422l65 540q14 104 -119 123 l9 68h534l-8 -68q-70 -10 -105.5 -37.5t-44.5 -85.5l-63 -512q-55 -457 254 -456q145 0 248.5 108.5t130.5 335.5l63 524q14 102 -127 123l8 68h394l-9 -68q-141 -20 -155 -123l-70 -561q-31 -254 -175 -397t-384 -143z" glyph-name="Uhungarumlaut" horiz-adv-x="1386" unicode="Ű"/><glyph d="M307 1174l193 223q102 117 182 35q41 -53 20.5 -99.5t-88.5 -87.5l-247 -147q-43 -27 -70 4t10 72zM729 1174l193 223q102 117 182 35q41 -53 20.5 -99.5t-88.5 -87.5l-248 -147q-43 -27 -69.5 4t10.5 72zM360 -12q-113 0 -177 82t-40 276l47 369q8 66 -30.5 90t-98.5 -2 l11 63q90 72 192 72q70 0 119 -48t39 -124l-47 -350q-18 -139 9.5 -202.5t117.5 -63.5q104 0 177 98t91 252l27 215q8 66 -31 90t-98 -2l10 63q90 72 192 72q70 0 118 -48t40 -124l-70 -559q-8 -61 30 -86t97 2l-10 -64q-90 -72 -192 -71q-68 0 -112 46t-44 130q0 37 -10 37 q-8 0 -62 -60q-141 -153 -295 -153z" glyph-name="uhungarumlaut" unicode="ű"/><glyph d="M1042 1272h394l-9 -68q-141 -20 -155 -123l-70 -561q-25 -205 -124 -339t-265 -179q-215 -129 -215 -252q0 -47 28.5 -73.5t80.5 -26.5q104 0 155 112h84q-12 -35 -32.5 -67.5t-59.5 -74.5t-105.5 -67.5t-150.5 -25.5q-104 0 -172 43t-68 129q0 84 68 162t186 119 q-221 10 -334.5 149t-80.5 412l65 540q14 104 -119 123l9 68h534l-8 -68q-70 -10 -105.5 -37.5t-44.5 -85.5l-63 -512q-55 -457 254 -456q145 0 248.5 108.5t130.5 335.5l63 524q14 102 -127 123z" glyph-name="Uogonek" horiz-adv-x="1386" unicode="Ų"/><glyph d="M1085 123l-10 -64q-51 -39 -102 -55l4 -2q-332 -92 -332 -219q0 -96 103 -96q98 0 149 112h86q-12 -33 -32.5 -66.5t-58.5 -75.5t-102.5 -67.5t-144.5 -25.5q-104 0 -171.5 44t-67.5 134q0 92 102 169t278 109q-59 47 -59 144q0 37 -10 37q-8 0 -62 -60 q-141 -154 -295 -153q-113 0 -177 82t-40 276l47 369q8 66 -30.5 90t-98.5 -2l11 63q90 72 192 72q70 0 119 -48t39 -124l-47 -350q-18 -139 9.5 -202.5t117.5 -63.5q104 0 177 98t91 252l27 215q8 66 -31 90t-98 -2l10 63q90 72 192 72q70 0 118 -48t40 -124l-70 -559 q-8 -61 30 -86t97 2z" glyph-name="uogonek" unicode="ų"/><glyph d="M1192 1782l240 -332l-46 -45l-219 172l-260 -172l-35 45zM543 0l-258 965q-35 135 -59.5 180t-92.5 61l8 66h508l-8 -68q-84 -12 -104.5 -55t2.5 -107l163 -630q4 -16 13.5 -22.5t19.5 -0.5t19 23l157 325q47 94 62.5 154.5t-2.5 128.5q-25 94 -51.5 133t-85.5 53l8 66 h508l-9 -68q-84 -12 -104 -55t2 -107l164 -630q4 -16 13 -22.5t19.5 -0.5t18.5 23l301 618q72 147 -108 174l8 68h432l-8 -68q-80 -16 -127 -59t-92 -131l-400 -811q-63 -127 -76 -203h-141l-205 768l-278 -565q-63 -127 -76 -203h-141z" glyph-name="Wcircumflex" horiz-adv-x="2027" unicode="Ŵ"/><glyph d="M920 1434l239 -332l-45 -45l-219 172l-260 -172l-35 45zM391 0l-158 713q-14 70 -59 94t-102 -4l10 63q86 72 188 72q78 0 122 -50t65 -151l108 -512q4 -25 20.5 -27.5t32.5 17.5q102 143 187 348q27 66 30 118t-10.5 81t-37 44t-52 13t-53.5 -16l10 63q86 72 189 72 q78 0 122 -50t64 -151l109 -512q4 -25 20 -27.5t33 17.5q109 152 205 397q49 125 -5.5 175.5t-134.5 15.5l11 63q100 72 186 72q63 0 88 -44t16.5 -102.5t-36.5 -121.5q-70 -158 -196 -353.5t-253 -316.5h-109l-118 541q-182 -348 -383 -541h-109z" glyph-name="wcircumflex" horiz-adv-x="1615" unicode="ŵ"/><glyph d="M834 1782l239 -332l-45 -45l-219 172l-260 -172l-35 45zM295 0l8 68q96 8 138 35.5t51 86.5l34 275q10 82 -22 149l-189 381q-53 109 -92 155t-100 54l8 68h533l-9 -68q-72 -10 -91 -46t16 -116l170 -352q8 -20 26 0l262 354q49 66 32 109t-95 51l8 68h395l-8 -68 q-66 -6 -117 -51t-112 -127l-295 -401q-43 -59 -55 -160l-35 -275q-8 -57 28.5 -84.5t130.5 -37.5l-8 -68h-612z" glyph-name="Ycircumflex" horiz-adv-x="1308" unicode="Ŷ"/><glyph d="M684 1434l240 -332l-45 -45l-220 172l-260 -172l-34 45zM-10 -410q-63 0 -110.5 43t-47.5 113q0 57 35 96t96 39q47 0 68.5 -24.5t20.5 -53t8.5 -53t35.5 -24.5q139 0 332 243l-182 744q-16 72 -59.5 95t-102.5 -5l10 63q86 72 191 72q78 0 121 -50t65 -151l119 -512 q6 -25 21.5 -27.5t31.5 17.5q131 184 215 397q49 125 -5 175.5t-134 15.5l10 63q100 72 186 72q63 0 88 -44t17 -102.5t-37 -121.5q-86 -195 -266 -444t-389 -442.5t-338 -193.5z" glyph-name="ycircumflex" horiz-adv-x="1040" unicode="ŷ"/><glyph d="M567.5 1430q-59.5 0 -102.5 41.5t-43 101.5q0 61 43 103t102.5 42t101.5 -42t42 -103q0 -59 -42 -101t-101.5 -42zM1007.5 1430q-59.5 0 -102.5 41.5t-43 101.5q0 61 43 103t102.5 42t101.5 -42t42 -103q0 -59 -42 -101t-101.5 -42zM295 0l8 68q96 8 138 35.5t51 86.5 l34 275q10 82 -22 149l-189 381q-53 109 -92 155t-100 54l8 68h533l-9 -68q-72 -10 -91 -46t16 -116l170 -352q8 -20 26 0l262 354q49 66 32 109t-95 51l8 68h395l-8 -68q-66 -6 -117 -51t-112 -127l-295 -401q-43 -59 -55 -160l-35 -275q-8 -57 28.5 -84.5t130.5 -37.5 l-8 -68h-612z" glyph-name="Ydieresis" horiz-adv-x="1308" unicode="Ÿ"/><glyph d="M610 1522l193 223q102 117 182 35q41 -53 20.5 -99.5t-87.5 -87.5l-248 -147q-43 -27 -70 4t10 72zM-27 0l916 1188l-369 -2q-115 0 -177 -49.5t-128 -161.5h-68l101 297h1001l-915 -1188l414 2q121 0 178 48t139 183h68l-113 -317h-1047z" glyph-name="Zacute" horiz-adv-x="1191" unicode="Ź"/><glyph d="M446 1174l193 223q102 117 182 35q41 -53 20.5 -99.5t-87.5 -87.5l-248 -147q-43 -27 -70 4t10 72zM-6 0l637 840h-172q-154 0 -210 -36t-93 -126h-64l70 246h792l-637 -840h187q154 0 210 36t93 126h63l-69 -246h-807z" glyph-name="zacute" horiz-adv-x="937" unicode="ź"/><glyph d="M741.5 1430q-59.5 0 -102.5 41.5t-43 101.5q0 61 43 103t102.5 42t101.5 -42t42 -103q0 -59 -42 -101t-101.5 -42zM-27 0l916 1188l-369 -2q-115 0 -177 -49.5t-128 -161.5h-68l101 297h1001l-915 -1188l414 2q121 0 178 48t139 183h68l-113 -317h-1047z" glyph-name="Zdotaccent" horiz-adv-x="1191" unicode="Ż"/><glyph d="M577.5 1081q-59.5 0 -102.5 42t-43 102q0 61 43 103t102.5 42t101.5 -42t42 -103q0 -59 -42 -101.5t-101.5 -42.5zM-6 0l637 840h-172q-154 0 -210 -36t-93 -126h-64l70 246h792l-637 -840h187q154 0 210 36t93 126h63l-69 -246h-807z" glyph-name="zdotaccent" horiz-adv-x="937" unicode="ż"/><glyph d="M719 1405l-240 332l45 45l219 -172l261 172l34 -45zM-27 0l916 1188l-369 -2q-115 0 -177 -49.5t-128 -161.5h-68l101 297h1001l-915 -1188l414 2q121 0 178 48t139 183h68l-113 -317h-1047z" glyph-name="Zcaron" horiz-adv-x="1191" unicode="Ž"/><glyph d="M555 1057l-240 332l45 45l220 -172l260 172l34 -45zM-6 0l637 840h-172q-154 0 -210 -36t-93 -126h-64l70 246h792l-637 -840h187q154 0 210 36t93 126h63l-69 -246h-807z" glyph-name="zcaron" horiz-adv-x="937" unicode="ž"/><glyph d="M770 1376q123 0 202 -58t68 -147q-6 -51 -41.5 -82.5t-87.5 -31.5q-57 0 -79.5 38t-20.5 84t-15.5 83.5t-64.5 37.5q-61 0 -90 -59t-45 -176l-12 -86q-8 -55 47 -55h194l-10 -84h-194q-51 0 -60 -56l-102 -837q-23 -182 -141.5 -285.5t-276.5 -103.5q-123 0 -202 58 t-68 146q6 51 40.5 83t86.5 32q57 0 79.5 -38t20.5 -84t15.5 -84t64.5 -38q63 0 93 60.5t44 175.5l113 915q8 55 -47 56h-80l8 59q66 2 100.5 17.5t40.5 60.5l2 12q31 184 145.5 285.5t272.5 101.5z" glyph-name="florin" horiz-adv-x="931" unicode="ƒ"/><glyph d="M481 -20q-125 0 -234.5 30.5t-172.5 77.5q-33 109 -14.5 218.5t81.5 109.5q16 0 23.5 -9.5t13.5 -35.5q35 -143 128 -219t220 -76q111 0 173.5 57t62.5 150q0 49 -21.5 84.5t-70.5 64.5t-87 44.5t-114 39.5q-340 113 -340 381q0 182 146.5 295t363.5 113q109 0 215.5 -29 t167.5 -74q31 -109 13.5 -218.5t-81.5 -109.5q-18 0 -26 9.5t-13 36.5q-25 137 -115.5 212.5t-205.5 75.5q-102 0 -162.5 -58t-60.5 -151q0 -84 61.5 -132t185.5 -91q70 -25 111 -40t104.5 -51t99.5 -73t63.5 -97t27.5 -132q0 -193 -158 -298t-385 -105zM373 -639l-37 45 q98 76 115 152q8 33 -25 32q-51 0 -88 39t-37 92q0 68 43 110t113 42q68 0 107.5 -44t39.5 -114q0 -102 -66.5 -197.5t-164.5 -156.5z" glyph-name="Scommaaccent" horiz-adv-x="1107" unicode="Ș"/><glyph d="M348 -12q-156 0 -240.5 70.5t-84.5 162.5q0 45 22.5 80t73.5 35q35 0 52 -13.5t19.5 -27.5t2.5 -43v-6q0 -90 45 -142.5t122 -52.5q82 0 118 44t36 95q0 45 -43 88.5t-103.5 82t-121 82.5t-103.5 108.5t-43 140.5q0 111 92.5 182.5t248 71.5t232.5 -68.5t77 -158.5 q0 -98 -101 -98q-74 0 -74 71q0 86 -34.5 139.5t-106.5 53.5q-61 0 -89 -35t-28 -80q0 -53 44.5 -100t105.5 -84t123.5 -78t106.5 -101.5t44 -134.5q0 -117 -109.5 -200.5t-283.5 -83.5zM221 -639l-37 45q98 76 115 152q8 33 -25 32q-51 0 -87.5 39t-36.5 92q0 68 43 110 t112 42q68 0 108 -44t40 -114q0 -102 -67 -197.5t-165 -156.5z" glyph-name="scommaaccent" horiz-adv-x="817" unicode="ș"/><glyph d="M1247 1343q43 0 72 -31.5t29 -80.5q0 -100 -105.5 -142t-281.5 -6l-74 15l-2 -13l-111 -895q-8 -57 28 -84.5t132 -37.5l-8 -68h-613l9 68q96 8 138 35.5t50 86.5l104 834q8 72 -8 103.5t-63 41.5h-2q-231 47 -232 -28q0 -12 17.5 -41t17.5 -49q0 -47 -29.5 -70 t-68.5 -23q-53 0 -89 37t-36 99q0 109 117.5 156.5t298.5 11.5l419 -86q242 -49 242 16q0 12 -16.5 34.5t-16.5 47.5q0 29 23.5 49t58.5 20zM600 -127q68 0 108 -44t40 -114q0 -102 -67 -197.5t-165 -156.5l-37 45q98 76 115 152q8 33 -25 32q-51 0 -88 39t-37 92 q0 68 43 110t113 42z" glyph-name="uni021A" horiz-adv-x="1296" unicode="Ț"/><glyph d="M383 -12q-262 0 -223 315l59 481q4 31 -6 43.5t-41 12.5h-84l6 59q131 10 204 70.5t108 175.5h83l-20 -166q-8 -55 49 -55h180l-10 -84h-180q-55 0 -64 -56l-63 -528q-18 -170 82 -170q63 0 110 33l27 -64q-86 -67 -217 -67zM154 -639l-37 45q98 76 114 152q8 33 -24 32 q-51 0 -88 39t-37 92q0 68 43 110t113 42q68 0 107.5 -44t39.5 -114q0 -102 -66.5 -197.5t-164.5 -156.5z" glyph-name="uni021B" horiz-adv-x="679" unicode="ț"/><glyph d="M-29 -410q-125 0 -187.5 54.5t-62.5 130.5q0 57 35 90t82 33q41 0 70 -28t29 -77q0 -129 77 -129q59 0 85 79t44 228l93 748q8 61 -30 85.5t-97 -1.5l10 63q86 72 194 72q68 0 115 -48t39 -124l-96 -774q-25 -199 -130.5 -300.5t-269.5 -101.5z" glyph-name="uni0237" horiz-adv-x="563" unicode="ȷ"/><glyph d="M500 1434l239 -332l-45 -45l-219 172l-260 -172l-35 45z" glyph-name="circumflex" horiz-adv-x="763" unicode="ˆ"/><glyph d="M457 1057l-240 332l45 45l219 -172l260 172l35 -45z" glyph-name="caron" horiz-adv-x="763" unicode="ˇ"/><glyph d="M459 1118q-121 0 -193.5 74t-56.5 201q2 23 20 22h54q14 0 16 -22q14 -119 178 -119q162 0 207 119q8 23 23 22h53q16 0 14 -22q-16 -127 -105 -201t-210 -74z" glyph-name="breve" horiz-adv-x="688" unicode="˘"/><glyph d="M342 1081q-59 0 -102 42t-43 102q0 61 43 103t102 42t101 -42t42 -103q0 -59 -42 -101.5t-101 -42.5z" glyph-name="dotaccent" horiz-adv-x="495" unicode="˙"/><glyph d="M416 1106q-88 0 -148.5 58.5t-60.5 142.5t60.5 143t148.5 59t148.5 -59t60.5 -143t-60.5 -142.5t-148.5 -58.5zM416 1214q41 0 65.5 26t24.5 67q0 39 -24.5 66.5t-65.5 27.5t-65.5 -27.5t-24.5 -66.5q0 -41 24.5 -67t65.5 -26z" glyph-name="ring" horiz-adv-x="624" unicode="˚"/><glyph d="M604 -195q-12 -35 -32.5 -67.5t-59.5 -74.5t-105.5 -67.5t-150.5 -25.5q-104 0 -172 43t-68 129q0 98 89.5 184t242.5 119h125q-217 -127 -217 -252q0 -47 28.5 -73.5t80.5 -26.5q104 0 155 112h84z" glyph-name="ogonek" horiz-adv-x="786" unicode="˛"/><glyph d="M745 1098q-92 0 -215.5 69.5t-169.5 69.5q-39 0 -70.5 -24.5t-37.5 -69.5h-66q14 115 84 178t174 63q92 0 216 -69.5t169 -69.5q41 0 72 22.5t37 71.5h66q-14 -115 -83.5 -178t-175.5 -63z" glyph-name="tilde" horiz-adv-x="997" unicode="˜"/><glyph d="M207 1174l192 223q102 117 183 35q41 -53 20.5 -99.5t-88.5 -87.5l-248 -147q-43 -27 -69.5 4t10.5 72zM629 1174l192 223q102 117 183 35q41 -53 20.5 -99.5t-88.5 -87.5l-248 -147q-43 -27 -69.5 4t10.5 72z" glyph-name="hungarumlaut" horiz-adv-x="1024" unicode="˝"/><glyph d="M-395 1174l192 223q102 117 183 35q41 -53 20.5 -99.5t-88.5 -87.5l-248 -147q-43 -27 -69.5 4t10.5 72z" glyph-name="acutecomb" horiz-adv-x="0" unicode="́"/><glyph d="M-426 -639l-37 45q98 76 115 152q8 33 -25 32q-51 0 -88 39t-37 92q0 68 43 110t113 42q68 0 107.5 -44t39.5 -114q0 -102 -66.5 -197.5t-164.5 -156.5z" glyph-name="uni0326" horiz-adv-x="0" unicode="̦"/><glyph d="M25 0l710 1298l422 -1298h-1132zM233 199h654l-236 743z" glyph-name="Delta" horiz-adv-x="1257" unicode="Δ"/><glyph d="M176 0q-16 0 -30.5 15.5t-16.5 37.5l-41 207h119l24 -61q6 -14 13.5 -23.5t13.5 -13.5t19.5 -7t20.5 -4t26.5 -2.5t29.5 -1.5l99 -6q25 0 32 27q-158 53 -244.5 201.5t-62.5 345.5q29 236 220.5 413t449.5 177q176 0 305 -88.5t185.5 -228.5t35.5 -298 q-23 -180 -147.5 -326.5t-294.5 -197.5q0 -25 22 -25l101 6q37 2 56 6.5t41 17.5t40 40l39 49h121l-90 -219q-18 -41 -62 -41h-393l39 317q104 10 179 122t97 296q27 209 -48 321.5t-234 112.5q-164 0 -271.5 -119.5t-134.5 -338.5q-23 -174 22.5 -276.5t151.5 -117.5 l-39 -317h-393z" glyph-name="Omega" horiz-adv-x="1470" unicode="Ω"/><glyph d="M958 207q-8 -61 30 -86t97 2l-10 -64q-90 -72 -192 -71q-68 0 -112 46t-44 130q0 37 -10 37q-8 0 -62 -60q-141 -154 -295 -153q-55 0 -102 20q0 -74 15.5 -129t33 -78.5t29.5 -45t8 -40.5q-20 -82 -104 -114q-84 -33 -125 20q-25 33 -19 88l54 434q-20 76 -7 203l47 369 q8 66 -30.5 90t-98.5 -2l11 63q90 72 192 72q70 0 119 -48t39 -124l-47 -350q-18 -139 9.5 -202.5t117.5 -63.5q104 0 177 98t91 252l27 215q8 66 -31 90t-98 -2l10 63q90 72 192 72q70 0 118 -48t40 -124z" glyph-name="mu" unicode="μ"/><glyph d="M1241 242q76 -31 31 -170q-31 -68 -128 -86.5t-183 22.5q-156 61 -130 264l60 473h-209l-66 -514q-16 -113 -91.5 -178t-153.5 -65q-96 0 -148 22l-16 111q72 -18 138.5 33t78.5 145l57 446h-82q-61 0 -94 -47t-24 -125l-58 80q-12 72 -6 125q8 66 57.5 106t131.5 40h897 l-25 -179h-133q-55 0 -64 -69l-59 -463q-10 -84 25 -111q16 -4 30.5 14.5t30.5 55.5t22 47q48 56 111 23z" glyph-name="pi" horiz-adv-x="1441" unicode="π"/><glyph d="M842 1522q37 -41 10 -72t-70 -4l-247 147q-68 41 -88.5 87t20.5 100q80 82 182 -35zM6 0l8 68q135 18 150 122l108 891q14 104 -118 123l8 68h928q39 0 38 -41q0 -100 15 -234h-45q-35 96 -85 139.5t-141 43.5h-200q-63 0 -95 -26t-40 -83l-35 -272q-8 -57 19.5 -83 t90.5 -26h127q100 0 140.5 32t62.5 114h37l-47 -383h-37q-4 80 -36 112.5t-132 32.5h-127q-63 0 -95 -25.5t-40 -83.5l-37 -290q-8 -57 20.5 -83t102.5 -26l217 2q109 2 156 33t133 145h45q-59 -129 -86 -235q-10 -35 -47 -35h-963z" glyph-name="uni0400" horiz-adv-x="1165" unicode="Ѐ"/><glyph d="M495.5 1430q-59.5 0 -102.5 41.5t-43 101.5q0 61 43 103t102.5 42t101.5 -42t42 -103q0 -59 -42 -101t-101.5 -42zM936 1430q-59 0 -102 41.5t-43 101.5q0 61 43 103t102 42t101 -42t42 -103q0 -59 -42 -101t-101 -42zM6 0l8 68q135 18 150 122l108 891q14 104 -118 123 l8 68h928q39 0 38 -41q0 -100 15 -234h-45q-35 96 -85 139.5t-141 43.5h-200q-63 0 -95 -26t-40 -83l-35 -272q-8 -57 19.5 -83t90.5 -26h127q100 0 140.5 32t62.5 114h37l-47 -383h-37q-4 80 -36 112.5t-132 32.5h-127q-63 0 -95 -25.5t-40 -83.5l-37 -290q-8 -57 20.5 -83 t102.5 -26l217 2q109 2 156 33t133 145h45q-59 -129 -86 -235q-10 -35 -47 -35h-963z" glyph-name="afii10023" horiz-adv-x="1165" unicode="Ё"/><glyph d="M571 1522l193 223q102 117 182 35q41 -53 20.5 -99.5t-87.5 -87.5l-248 -147q-43 -27 -70 4t10 72zM6 0l8 68q135 18 150 122l108 891q14 104 -118 123l8 68h942l24 -281h-65q-39 113 -80 156t-102 43h-197q-70 0 -104.5 -22.5t-42.5 -86.5l-109 -891q-8 -57 24.5 -84.5 t114.5 -37.5l-8 -68h-553z" glyph-name="afii10052" horiz-adv-x="1114" unicode="Ѓ"/><glyph d="M778 1229q-156 0 -259 -131t-134 -322q-12 -96 66 -96h403l-12 -102h-383q-82 0 -66 -89q39 -166 154 -257t264 -91q190 0 342 158l41 -39q-66 -102 -205 -191t-334 -89q-246 0 -411.5 153.5t-165.5 419.5q0 315 224 533.5t542 218.5q207 0 322.5 -92.5t115.5 -215.5 q0 -78 -45 -137t-127 -59q-63 0 -97 36.5t-34 96.5q0 156 -43 225.5t-158 69.5z" glyph-name="afii10053" horiz-adv-x="1290" unicode="Є"/><glyph d="M481 -20q-125 0 -234.5 30.5t-172.5 77.5q-33 109 -14.5 218.5t81.5 109.5q16 0 23.5 -9.5t13.5 -35.5q35 -143 128 -219t220 -76q111 0 173.5 57t62.5 150q0 49 -21.5 84.5t-70.5 64.5t-87 44.5t-114 39.5q-340 113 -340 381q0 182 146.5 295t363.5 113q109 0 215.5 -29 t167.5 -74q31 -109 13.5 -218.5t-81.5 -109.5q-18 0 -26 9.5t-13 36.5q-25 137 -115.5 212.5t-205.5 75.5q-102 0 -162.5 -58t-60.5 -151q0 -84 61.5 -132t185.5 -91q70 -25 111 -40t104.5 -51t99.5 -73t63.5 -97t27.5 -132q0 -193 -158 -298t-385 -105z" glyph-name="afii10054" horiz-adv-x="1107" unicode="Ѕ"/><glyph d="M6 0l8 68q135 18 150 122l108 891q14 104 -118 123l8 68h532l-8 -68q-135 -18 -149 -123l-109 -891q-14 -104 119 -122l-8 -68h-533z" glyph-name="afii10055" horiz-adv-x="657" unicode="І"/><glyph d="M241.5 1430q-59.5 0 -102.5 41.5t-43 101.5q0 61 43 103t102.5 42t101.5 -42t42 -103q0 -59 -42 -101t-101.5 -42zM682 1430q-59 0 -102 41.5t-43 101.5q0 61 43 103t102 42t101 -42t42 -103q0 -59 -42 -101t-101 -42zM6 0l8 68q135 18 150 122l108 891q14 104 -118 123 l8 68h532l-8 -68q-135 -18 -149 -123l-109 -891q-14 -104 119 -122l-8 -68h-533z" glyph-name="afii10056" horiz-adv-x="657" unicode="Ї"/><glyph d="M209 -20q-127 0 -206 54t-79 146q0 68 41 112t109 44q113 0 96 -139q-16 -143 70 -144q76 0 90 137l110 891q6 57 -26.5 85t-112.5 38l8 68h553l-8 -68q-70 -10 -105.5 -37.5t-43.5 -85.5l-95 -768q-14 -121 -82.5 -199.5t-148.5 -106t-170 -27.5z" glyph-name="afii10057" horiz-adv-x="823" unicode="Ј"/><glyph d="M686 1593q-68 41 -88 87t20 100q80 82 183 -35l192 -223q37 -41 10.5 -72t-69.5 -4zM973 1272h532l-8 -68q-135 -18 -149 -123l-109 -891q-14 -104 119 -122l-8 -68h-533l8 68q135 18 150 122l86 707l-627 -651l-6 -56q-14 -104 119 -122l-8 -68h-533l8 68 q135 18 150 122l108 891q14 104 -118 123l8 68h532l-8 -68q-135 -18 -149 -123l-86 -712l624 649l8 63q14 104 -118 123z" glyph-name="uni040D" horiz-adv-x="1468" unicode="Ѝ"/><glyph d="M797 1466q-121 0 -194 74t-56 201q2 23 20 22h54q14 0 16 -22q14 -119 178 -119q162 0 207 119q8 23 22 22h54q16 0 14 -22q-16 -127 -105 -201t-210 -74zM969 1272h397l-8 -68q-61 -8 -99 -47t-83 -113l-433 -708q-121 -199 -220 -283t-222 -84q-98 0 -159.5 47 t-61.5 119q0 57 39 97t98 40q47 0 66.5 -28.5t18.5 -64.5t12.5 -64.5t50.5 -28.5q84 0 204 160l-284 747q-6 16 -17.5 47t-15.5 42.5t-14.5 33t-16.5 29.5t-16 21.5t-21.5 19.5t-27 11t-33.5 7l8 68h524l-8 -68q-68 -10 -90 -55t8 -133l183 -488l311 516q33 63 1 106.5 t-99 53.5z" glyph-name="afii10062" horiz-adv-x="1296" unicode="Ў"/><glyph d="M-16 0l8 68q80 16 126 59t93 131l438 811q59 111 74 203l147 14l297 -979q31 -100 42.5 -132t40 -65.5t75.5 -43.5l-8 -66h-520l8 68q84 12 105.5 55t-5.5 106l-22 72q-18 55 -101 55h-321q-82 0 -117 -63l-29 -51q-82 -145 109 -174l-8 -68h-432zM475 449h316 q47 0 34 45l-114 376q-8 27 -24.5 28t-29.5 -21l-206 -381q-10 -23 -3 -35t27 -12z" glyph-name="afii10017" horiz-adv-x="1415" unicode="А"/><glyph d="M688 813q238 0 364 -95t126 -261q0 -223 -162 -340t-428 -117h-582l8 68q135 18 150 122l108 891q14 104 -118 123l8 68h942l24 -281h-65q-39 113 -80 156t-102 43h-197q-70 0 -104.5 -22.5t-42.5 -86.5l-23 -186q-2 -43 21.5 -62.5t74.5 -19.5h78zM600 102 q160 0 237.5 99.5t77.5 271.5q0 238 -241 238h-78q-53 0 -78.5 -20.5t-36.5 -67.5l-53 -433q-2 -20 0 -38q12 -49 74 -50h98z" glyph-name="afii10018" horiz-adv-x="1232" unicode="Б"/><glyph d="M6 0l8 68q135 18 150 122l108 891q14 104 -118 123l8 68h586q481 0 481 -275q0 -125 -89 -203.5t-237 -105.5q317 -49 318 -297q0 -174 -141.5 -282.5t-348.5 -108.5q-35 0 -180 9t-289.5 9t-255.5 -18zM616 727h91q119 0 182 75t63 189q0 199 -204 199h-74 q-125 0 -137 -109l-29 -245q-6 -57 19.5 -83t88.5 -26zM496 90h141q152 0 229.5 81t77.5 220q0 133 -85 194.5t-271 61.5q-102 0 -117 -108l-45 -367q-10 -82 70 -82z" glyph-name="afii10019" horiz-adv-x="1304" unicode="В"/><glyph d="M6 0l8 68q135 18 150 122l108 891q14 104 -118 123l8 68h942l24 -281h-65q-39 113 -80 156t-102 43h-197q-70 0 -104.5 -22.5t-42.5 -86.5l-109 -891q-8 -57 24.5 -84.5t114.5 -37.5l-8 -68h-553z" glyph-name="afii10020" horiz-adv-x="1114" unicode="Г"/><glyph d="M-35 -236l37 306q4 20 23 22q164 23 256 277t149 714q8 61 -22.5 87t-116.5 34l8 68h1149l-8 -68q-80 -8 -121 -34.5t-49 -88.5l-107 -882q-6 -49 21.5 -78t93.5 -29q35 0 22 -47l-75 -281h-66q20 156 -50.5 196t-334.5 40h-303q-252 0 -339 -48t-103 -188h-64zM182 92 h590q51 0 85 29t40 80l109 878q6 63 -17.5 82t-83.5 19h-284q-100 0 -111 -95q-103 -860 -328 -993z" glyph-name="afii10021" horiz-adv-x="1415" unicode="Д"/><glyph d="M6 0l8 68q135 18 150 122l108 891q14 104 -118 123l8 68h928q39 0 38 -41q0 -100 15 -234h-45q-35 96 -85 139.5t-141 43.5h-200q-63 0 -95 -26t-40 -83l-35 -272q-8 -57 19.5 -83t90.5 -26h127q100 0 140.5 32t62.5 114h37l-47 -383h-37q-4 80 -36 112.5t-132 32.5h-127 q-63 0 -95 -25.5t-40 -83.5l-37 -290q-8 -57 20.5 -83t102.5 -26l217 2q109 2 156 33t133 145h45q-59 -129 -86 -235q-10 -35 -47 -35h-963z" glyph-name="afii10022" horiz-adv-x="1165" unicode="Е"/><glyph d="M1800 1083l-235 -256q-43 -47 -48.5 -86t21.5 -77l231 -402q57 -102 111.5 -141t128.5 -53l-8 -68h-582l8 68q129 29 72 135l-162 291q-33 59 -60.5 79.5t-66.5 20.5h-12l-49 -404q-14 -104 119 -122l-8 -68h-533l8 68q135 18 150 122l49 404h-12q-72 0 -152 -100 l-233 -291q-84 -106 38 -135l-8 -68h-581l8 68q76 14 139.5 54t147.5 140l329 402q37 43 42 77.5t-27 85.5l-172 256q-16 33 -42 26t-45.5 -27.5t-56.5 -43t-73 -22.5q-53 0 -85 38t-26 93q8 61 60.5 100t123.5 39q55 0 100.5 -28.5t66 -55t59.5 -86.5l200 -299 q47 -70 91 -96.5t106 -26.5h14l47 387q14 104 -119 123l9 68h532l-8 -68q-135 -18 -150 -123l-47 -387h15q61 0 111 27t116 96l274 299q55 61 80 86t77 54.5t108 29.5q70 0 111.5 -33.5t41.5 -89.5q0 -57 -43 -102t-102 -45q-37 0 -67.5 22.5t-44 43t-38 27.5t-49.5 -26z " glyph-name="afii10024" horiz-adv-x="2099" unicode="Ж"/><glyph d="M494 -25q-184 0 -312.5 88.5t-128.5 235.5q0 78 37 127t107 49q47 0 69.5 -21.5t24.5 -47t3 -72.5t7 -76q49 -203 215 -203q131 0 217 121t86 266q0 104 -49 160.5t-133 56.5q-68 0 -143 -38l-17 71q190 66 277.5 139.5t87.5 210.5q0 168 -174 168q-117 0 -225.5 -75.5 t-172.5 -214.5q-20 -45 -49 -46q-41 0 -51 52.5t9.5 127t56.5 148.5q72 45 190.5 74t232.5 29q184 0 297 -74t113 -197q0 -104 -82 -177t-201 -103q102 6 192.5 -71t90.5 -224q0 -205 -172 -344.5t-403 -139.5z" glyph-name="afii10025" horiz-adv-x="1155" unicode="З"/><glyph d="M973 1272h532l-8 -68q-135 -18 -149 -123l-109 -891q-14 -104 119 -122l-8 -68h-533l8 68q135 18 150 122l86 707l-627 -651l-6 -56q-14 -104 119 -122l-8 -68h-533l8 68q135 18 150 122l108 891q14 104 -118 123l8 68h532l-8 -68q-135 -18 -149 -123l-86 -712l624 649 l8 63q14 104 -118 123z" glyph-name="afii10026" horiz-adv-x="1468" unicode="И"/><glyph d="M883 1466q-121 0 -194 74t-56 201q2 23 20 22h54q14 0 16 -22q14 -119 178 -119q162 0 207 119q8 23 22 22h54q16 0 14 -22q-16 -127 -105 -201t-210 -74zM973 1272h532l-8 -68q-135 -18 -149 -123l-109 -891q-14 -104 119 -122l-8 -68h-533l8 68q135 18 150 122l86 707 l-627 -651l-6 -56q-14 -104 119 -122l-8 -68h-533l8 68q135 18 150 122l108 891q14 104 -118 123l8 68h532l-8 -68q-135 -18 -149 -123l-86 -712l624 649l8 63q14 104 -118 123z" glyph-name="afii10027" horiz-adv-x="1468" unicode="Й"/><glyph d="M1079 1083l-235 -256q-43 -47 -48 -86t21 -77l232 -402q57 -102 111 -141t128 -53l-8 -68h-582l9 68q129 29 71 135l-162 291q-33 59 -60.5 79.5t-66.5 20.5h-12l-49 -404q-14 -104 119 -122l-8 -68h-533l8 68q135 18 150 122l108 891q14 104 -118 123l8 68h532l-8 -68 q-135 -18 -149 -123l-48 -387h15q61 0 111.5 27t115.5 96l275 299q55 61 79.5 86t76.5 54.5t108 29.5q70 0 111.5 -33.5t41.5 -89.5q0 -57 -43 -102t-102 -45q-37 0 -67.5 22.5t-44 43t-38 27.5t-49.5 -26z" glyph-name="afii10028" horiz-adv-x="1378" unicode="К"/><glyph d="M184 -23q-92 0 -143 39t-51 107q0 57 34.5 97t90.5 40q43 0 58 -28.5t11 -63.5t6.5 -63.5t42.5 -28.5q61 0 90 89t58 316l72 600q8 59 -24 87t-118 36l8 68h1184l-8 -68q-139 -18 -149 -123l-111 -891q-6 -57 22.5 -84.5t96.5 -37.5l-8 -68h-533l8 68q70 10 106 37.5 t44 84.5l108 891q8 55 -22.5 77t-100.5 22h-249q-66 0 -99 -21.5t-39 -77.5l-69 -555q-31 -252 -49 -323q-59 -207 -232 -223q-17 -3 -35 -3z" glyph-name="afii10029" horiz-adv-x="1464" unicode="Л"/><glyph d="M1339 1272h400l-8 -68q-70 -10 -106 -37.5t-44 -85.5l-111 -891q-14 -104 119 -122l-8 -68h-532l8 68q70 10 105.5 37.5t43.5 84.5l103 840l-529 -911h-78l-321 903l-102 -832q-14 -104 120 -122l-8 -68h-385l8 68q135 18 150 122l108 891q14 104 -118 123l8 68h399 l297 -836z" glyph-name="afii10030" horiz-adv-x="1699" unicode="М"/><glyph d="M946 1272h533l-9 -68q-135 -18 -149 -123l-109 -891q-14 -104 119 -122l-8 -68h-532l8 68q135 18 149 122l39 322q2 33 -18.5 48t-55.5 15h-356q-82 0 -90 -67l25 205l-64 -523q-14 -104 119 -122l-8 -68h-533l8 68q135 18 150 122l108 891q14 104 -118 123l8 68h532 l-8 -68q-135 -18 -149 -123l-41 -340q-2 -31 18.5 -47t56.5 -16h353q84 0 92 67l-4 -32l45 368q14 104 -119 123zM496 745v-2v2z" glyph-name="afii10031" horiz-adv-x="1441" unicode="Н"/><glyph d="M627 -20q-233 0 -392 150.5t-159 401.5q0 322 216 547.5t525 225.5q233 0 392 -150.5t159 -402.5q0 -319 -217 -545.5t-524 -226.5zM698 76q123 0 209 96t123 231.5t37 286.5q0 229 -89 373.5t-233 144.5q-123 0 -209.5 -97t-122.5 -231.5t-36 -287.5q0 -229 89 -372.5 t232 -143.5z" glyph-name="afii10032" horiz-adv-x="1400" unicode="О"/><glyph d="M1520 1272l-9 -68q-135 -18 -149 -123l-109 -891q-14 -104 119 -122l-8 -68h-533l9 68q135 18 149 122l109 891q4 33 -2 52q-14 37 -74 36h-387q-55 0 -78 -28q-10 -18 -16 -37v-2v2q-4 -16 -4 -23l-109 -891q-14 -104 119 -122l-8 -68h-533l8 68q135 18 150 122l108 891 q14 104 -118 123l8 68h1358z" glyph-name="afii10033" horiz-adv-x="1482" unicode="П"/><glyph d="M6 0l8 68q135 18 150 122l108 891q14 104 -118 123l8 68h583q244 0 368 -91t124 -266q0 -213 -165 -334.5t-427 -121.5h-78q-59 0 -85.5 -25.5t-32.5 -83.5l-21 -160q-8 -57 24.5 -84.5t114.5 -37.5l-8 -68h-553zM580 561h77q158 0 238 100.5t80 260.5q0 123 -56.5 185 t-185.5 62h-100q-84 0 -96 -96l-50 -403q-8 -57 14 -83t79 -26z" glyph-name="afii10034" horiz-adv-x="1236" unicode="Р"/><glyph d="M655 -20q-246 0 -411.5 153.5t-165.5 419.5q0 315 224 533.5t542 218.5q207 0 322.5 -92.5t115.5 -215.5q0 -78 -45 -137t-127 -59q-63 0 -97 36.5t-34 96.5q0 156 -43 225.5t-158 69.5q-123 0 -218 -89t-140 -219t-45 -272q0 -238 126 -373t310 -135q190 0 342 158 l41 -39q-66 -102 -205 -191t-334 -89z" glyph-name="afii10035" horiz-adv-x="1290" unicode="С"/><glyph d="M1247 1343q43 0 72 -31.5t29 -80.5q0 -100 -105.5 -142t-281.5 -6l-74 15l-2 -13l-111 -895q-8 -57 28 -84.5t132 -37.5l-8 -68h-613l9 68q96 8 138 35.5t50 86.5l104 834q8 72 -8 103.5t-63 41.5h-2q-231 47 -232 -28q0 -12 17.5 -41t17.5 -49q0 -47 -29.5 -70 t-68.5 -23q-53 0 -89 37t-36 99q0 109 117.5 156.5t298.5 11.5l419 -86q242 -49 242 16q0 12 -16.5 34.5t-16.5 47.5q0 29 23.5 49t58.5 20z" glyph-name="afii10036" horiz-adv-x="1296" unicode="Т"/><glyph d="M969 1272h397l-8 -68q-61 -8 -99 -47t-83 -113l-433 -708q-121 -199 -220 -283t-222 -84q-98 0 -159.5 47t-61.5 119q0 57 39 97t98 40q47 0 66.5 -28.5t18.5 -64.5t12.5 -64.5t50.5 -28.5q84 0 204 160l-284 747q-6 16 -17.5 47t-15.5 42.5t-14.5 33t-16.5 29.5 t-16 21.5t-21.5 19.5t-27 11t-33.5 7l8 68h524l-8 -68q-68 -10 -90 -55t8 -133l183 -488l311 516q33 63 1 106.5t-99 53.5z" glyph-name="afii10037" horiz-adv-x="1296" unicode="У"/><glyph d="M469 0l8 68q137 20 148 106q6 47 -16.5 68.5t-78.5 21.5h-36q-188 0 -291 82t-103 234q0 201 132.5 315.5t351.5 114.5h37q106 0 118 88q6 47 -25.5 71.5t-95.5 34.5l9 68h532l-8 -68q-137 -20 -147 -106q-12 -88 96 -88h37q186 0 288.5 -81t102.5 -233 q0 -203 -132 -317.5t-352 -114.5h-36q-109 0 -117 -90q-6 -47 25.5 -71.5t95.5 -34.5l-8 -68h-535zM506 367h37q59 0 85.5 25.5t33.5 82.5l40 324q6 57 -14 82.5t-80 25.5h-37q-111 0 -174 -98t-63 -229q0 -96 44 -154.5t128 -58.5zM1020 367h37q113 0 175 97t62 234 q0 94 -43 151.5t-127 57.5h-37q-59 0 -85.5 -25.5t-34.5 -82.5l-39 -324q-8 -57 12.5 -82.5t79.5 -25.5z" glyph-name="afii10038" horiz-adv-x="1585" unicode="Ф"/><glyph d="M1415 1204q-80 -6 -201.5 -99t-339.5 -345l-53 -64l242 -428q106 -188 217 -200l-8 -68h-555l8 68q70 8 92.5 46t-8.5 89l-174 309q-346 -365 -270 -428q16 -14 49 -16l-8 -68h-422l8 68q80 6 201.5 99t338.5 345l62 72l-236 417q-109 190 -221 203l8 68h557l-8 -68 q-70 -8 -92 -46t8 -89l170 -301q348 371 254 426q-16 8 -41 10l8 68h422z" glyph-name="afii10039" horiz-adv-x="1370" unicode="Х"/><glyph d="M1251 -236q20 156 -51.5 196t-349.5 40h-844l8 68q135 18 150 122l108 891q14 104 -118 123l8 68h532l-8 -68q-135 -18 -149 -123l-111 -919q-4 -31 26.5 -50.5t77.5 -19.5h336q47 0 82 22.5t39 63.5l111 903q14 104 -119 123l8 68h533l-9 -68q-135 -18 -149 -123 l-111 -903q-4 -41 27 -63.5t92 -22.5q35 0 23 -47l-78 -281h-64z" glyph-name="afii10040" horiz-adv-x="1497" unicode="Ц"/><glyph d="M776 0l8 68q70 10 106 37.5t44 84.5l24 207q10 76 -22 76q-12 0 -25 -14q-47 -49 -149.5 -96.5t-216.5 -47.5q-152 0 -248 91.5t-72 287.5l47 387q14 104 -118 123l8 68h530l-8 -68q-133 -18 -147 -123l-41 -333q-14 -121 46 -195t193 -74q109 0 180.5 72t85.5 188 l41 342q14 104 -118 123l8 68h534l-8 -68q-139 -18 -149 -123l-111 -891q-6 -57 22.5 -84.5t96.5 -37.5l-8 -68h-533z" glyph-name="afii10041" horiz-adv-x="1427" unicode="Ч"/><glyph d="M1944 1204q-135 -18 -150 -123l-108 -891q-14 -104 118 -122l-8 -68h-1790l8 68q135 18 150 122l108 891q14 104 -118 123l8 68h532l-8 -68q-135 -18 -149 -123l-109 -882q-4 -49 22.5 -78t81.5 -29h132q115 0 129 107l108 882q14 104 -119 123l9 68h532l-8 -68 q-135 -18 -150 -123l-108 -882q-6 -49 21.5 -78t82.5 -29h131q55 0 89 29t40 78l109 882q14 104 -119 123l8 68h533z" glyph-name="afii10042" horiz-adv-x="1914" unicode="Ш"/><glyph d="M1686 190q-2 -10 -3 -28q16 -70 121 -70q35 0 23 -47l-78 -281h-63q20 156 -52.5 196t-351.5 40h-1276l8 68q135 18 150 122l108 891q14 104 -118 123l8 68h532l-8 -68q-135 -18 -149 -123l-109 -882q-4 -49 22.5 -78t81.5 -29h132q115 0 129 107l108 882 q14 104 -119 123l9 68h532l-8 -68q-135 -18 -150 -123l-108 -882q-6 -49 21.5 -78t82.5 -29h131q55 0 89 29t40 78l109 882q14 104 -119 123l8 68h533l-8 -68q-135 -18 -150 -123z" glyph-name="afii10043" horiz-adv-x="1931" unicode="Щ"/><glyph d="M895 813q240 0 365.5 -95t125.5 -261q0 -223 -162.5 -340t-428.5 -117h-584l10 68q137 18 148 122l110 891q4 45 -22.5 77t-73.5 32q-57 0 -105.5 -42t-115.5 -157h-66l94 281h711l-8 -68q-70 -10 -105.5 -37.5t-44.5 -85.5l-20 -159q-6 -57 14.5 -83t79.5 -26h78z M809 102q158 0 236.5 99.5t78.5 269.5q0 240 -241 240h-78q-59 0 -86 -26t-35 -83l-49 -403q-12 -96 74 -97h100z" glyph-name="afii10044" horiz-adv-x="1441" unicode="Ъ"/><glyph d="M6 0l8 68q135 18 150 122l108 891q14 104 -118 123l8 68h532l-8 -68q-135 -18 -149 -123l-23 -186q-4 -43 19.5 -62.5t76.5 -19.5h78q238 0 364 -95t126 -261q0 -223 -162 -340t-428 -117h-582zM1174 0l8 68q135 18 149 122l109 891q14 104 -119 123l8 68h533l-9 -68 q-135 -18 -149 -123l-109 -891q-14 -104 119 -122l-8 -68h-532zM502 102h98q160 0 237.5 99.5t77.5 271.5q0 238 -241 238h-78q-102 0 -115 -88l-53 -433q-10 -88 74 -88z" glyph-name="afii10045" horiz-adv-x="1824" unicode="Ы"/><glyph d="M6 0l8 68q135 18 150 122l108 891q14 104 -118 123l8 68h532l-8 -68q-135 -18 -149 -123l-23 -186q-4 -43 19.5 -62.5t76.5 -19.5h78q238 0 364 -95t126 -261q0 -223 -162 -340t-428 -117h-582zM502 102h98q160 0 237.5 99.5t77.5 271.5q0 238 -241 238h-78 q-102 0 -115 -88l-53 -433q-10 -88 74 -88z" glyph-name="afii10046" horiz-adv-x="1232" unicode="Ь"/><glyph d="M653 1305q254 0 428 -156t174 -420q0 -315 -216 -532t-523 -217q-135 0 -241.5 52t-154.5 110.5t-73 117.5l49 39q117 -158 303 -158q154 0 295.5 95.5t218.5 265.5q14 43 1 59.5t-46 16.5h-364l14 102h379q74 0 84 84q20 213 -58.5 339t-222.5 126q-121 0 -188.5 -81 t-81.5 -190q-8 -70 -53 -113.5t-113 -43.5q-74 0 -105.5 49t-23.5 117q14 131 156.5 234.5t361.5 103.5z" glyph-name="afii10047" horiz-adv-x="1290" unicode="Э"/><glyph d="M1430 1305q233 0 391.5 -150.5t158.5 -402.5q0 -319 -217 -545.5t-524 -226.5q-233 0 -392 150.5t-159 401.5q0 31 2 46h-215l-47 -388q-14 -104 119 -122l-8 -68h-533l8 68q135 18 150 122l108 891q14 104 -118 123l8 68h532l-8 -68q-135 -18 -149 -123l-50 -401h213 q49 270 254.5 447.5t475.5 177.5zM1311 76q123 0 209 96t122.5 231.5t36.5 286.5q0 229 -89 373.5t-232 144.5q-123 0 -210 -97t-123 -231.5t-36 -287.5q0 -229 89.5 -372.5t232.5 -143.5z" glyph-name="afii10048" horiz-adv-x="2013" unicode="Ю"/><glyph d="M1204 0h-553l8 68q82 10 122 37.5t48 84.5l31 254q6 59 -16.5 84t-85.5 25q-84 0 -136.5 -45t-107.5 -160q-92 -197 -177 -272.5t-247 -75.5h-106l8 68q41 0 79 37.5t59.5 78.5t57.5 123q6 12 9 19q53 117 113.5 175t152.5 85q10 4 11 13t-9 11q-129 18 -194.5 90 t-65.5 179q0 188 146.5 290.5t375.5 102.5h633l-8 -68q-135 -18 -150 -123l-108 -891q-14 -104 118 -122zM778 655q59 0 86 26t35 83l39 309q12 96 -74 96h-131q-123 0 -190.5 -84t-67.5 -213q0 -94 51.5 -155.5t165.5 -61.5h86z" glyph-name="afii10049" horiz-adv-x="1323" unicode="Я"/><glyph d="M391 -12q-139 0 -238.5 96t-99.5 281q0 238 159 407.5t384 169.5q55 0 111.5 -12t91.5 -23.5t91 -9.5t124 27l-88 -709q-8 -63 29.5 -91t97.5 -1l-11 -64q-86 -72 -198 -71q-111 0 -146 100q-6 16 -11 21.5t-16.5 1t-27.5 -20.5q-102 -102 -252 -102zM504 123 q82 0 143.5 66.5t77.5 199.5l20 170q18 150 -26.5 227.5t-128.5 77.5q-123 0 -204 -137t-81 -311q0 -143 56.5 -218t142.5 -75z" glyph-name="afii10065" horiz-adv-x="1124" unicode="а"/><glyph d="M479 -12q-72 0 -135 20.5t-127.5 70.5t-102.5 153.5t-38 248.5q0 358 150.5 574.5t455.5 216.5h88q74 0 104.5 7t55.5 32h65q-14 -131 -95 -190.5t-236 -59.5h-103q-160 0 -246 -42t-98 -149q-12 -102 59 -102q23 0 64 27.5t82 59.5t107.5 59.5t136.5 27.5 q145 0 240 -102.5t95 -282.5q0 -242 -148.5 -405.5t-373.5 -163.5zM512 76q109 0 172.5 124t63.5 277q0 147 -61.5 236.5t-149.5 89.5q-111 0 -175.5 -124t-64.5 -278q0 -147 62.5 -236t152.5 -89z" glyph-name="afii10066" horiz-adv-x="1056" unicode="б"/><glyph d="M6 0l8 70q63 10 87 30.5t30 71.5l74 588q6 49 -15.5 67.5t-78.5 26.5l8 70h489q340 0 340 -189q0 -92 -58.5 -154.5t-156.5 -82.5q209 -39 209 -209q0 -147 -122 -218t-322 -71q-94 0 -173 4t-94 4q-135 0 -225 -8zM459 539h82q176 0 176 182q0 121 -139 121h-82 q-49 0 -54 -51l-26 -201q-4 -51 43 -51zM418 84h90q100 0 152.5 58.5t52.5 162.5q0 78 -54.5 117t-179.5 39h-30q-47 0 -54 -51l-30 -250q-10 -76 53 -76z" glyph-name="afii10067" horiz-adv-x="1028" unicode="в"/><glyph d="M352 -12q-174 0 -263 84t-60 200q23 88 105.5 161t170.5 114t168 100.5t96 122.5q12 45 -7 80t-81 35q-74 0 -123 -53.5t-67 -139.5q-14 -72 -90 -71q-80 0 -80 65q0 109 112.5 184.5t255.5 75.5q156 0 230 -71.5t47 -182.5q-23 -92 -105.5 -170t-170 -122t-165 -100 t-89.5 -110q-12 -51 12 -95t106 -44q78 0 136.5 52.5t80.5 142.5q16 61 39 76q20 14 58 14q74 0 73 -74q0 -115 -118.5 -194.5t-270.5 -79.5z" glyph-name="afii10068" horiz-adv-x="819" unicode="г"/><glyph d="M-43 -225l35 286q4 20 22 23q279 41 359 694q4 37 -27 52.5t-117 23.5l9 70h981l-9 -70q-158 -16 -163 -74l-74 -604q-6 -49 23.5 -71.5t105.5 -22.5q25 0 18 -25l-82 -282h-65q8 61 10 90t-7 60.5t-24.5 41.5t-59.5 20.5t-93 11.5t-142 1h-264q-156 0 -229.5 -20.5 t-101 -63.5t-39.5 -141h-66zM178 82h436q113 0 125 94l74 598q4 37 -10.5 52.5t-50.5 15.5h-228q-35 0 -50 -13.5t-19 -50.5q-68 -575 -277 -696z" glyph-name="afii10069" horiz-adv-x="1230" unicode="д"/><glyph d="M383 381q-90 -16 -45 -113q72 -141 231 -141q135 0 215 80l39 -51q-53 -66 -147 -117t-215 -51q-170 0 -287 111.5t-117 295.5q0 94 34 190.5t97.5 177.5t164 132t220.5 51q154 0 238 -72.5t84 -183.5q0 -115 -100.5 -184.5t-319.5 -108.5zM543 872q-117 0 -182.5 -101 t-69.5 -257q2 -74 88 -61l41 6q88 14 145.5 42.5t82 65.5t31.5 66t7 63q0 176 -143 176z" glyph-name="afii10070" horiz-adv-x="929" unicode="е"/><glyph d="M1370 760l-168 -174q-35 -37 -8 -76l213 -307q49 -70 87 -97.5t89 -35.5l-8 -70h-442l8 70q45 8 57 24.5t-12 57.5l-160 231q-18 29 -55 29h-19l-30 -248q-6 -49 15 -67.5t77 -26.5l-10 -70h-441l8 70q59 8 85 26.5t32 67.5l31 248h-31q-33 0 -61 -29l-217 -231 q-33 -41 -26 -57.5t50 -24.5l-8 -70h-442l8 70q98 14 211 133l286 307q39 39 11 76l-125 174q-12 23 -30.5 19.5t-31 -15.5t-39 -25.5t-55.5 -13.5q-43 0 -69.5 29.5t-20.5 77t40 76t87 28.5q41 0 75 -19.5t52 -41t49 -66.5l174 -248q41 -61 88 -61h35l33 260 q6 49 -15.5 67.5t-78.5 26.5l8 70h442l-8 -70q-57 -8 -83 -27.5t-32 -66.5l-32 -260h24q47 0 105 61l233 248q45 47 66.5 66.5t60.5 40t80 20.5q49 0 75.5 -24.5t26.5 -65.5q0 -53 -34.5 -87t-81.5 -34q-29 0 -52.5 13.5t-33 25.5t-28 15.5t-34.5 -19.5z" glyph-name="afii10072" horiz-adv-x="1673" unicode="ж"/><glyph d="M358 -16q-158 0 -241.5 69.5t-83.5 167.5q0 135 117 135q33 0 51 -14t23 -28.5t10.5 -54.5t9.5 -56q33 -143 149 -144q94 0 149.5 77t55.5 179q0 131 -115 131q-49 0 -112 -26l-19 76q125 47 191.5 108.5t66.5 155.5q0 106 -106 106q-78 0 -151.5 -53t-104.5 -151 q-14 -49 -51 -50q-33 0 -46.5 27t-8.5 69t16.5 80.5t25.5 73.5q166 80 330 80q141 0 222 -52t81 -140q0 -145 -184 -224q82 4 146.5 -50t64.5 -142q0 -152 -150 -251t-336 -99z" glyph-name="afii10073" horiz-adv-x="923" unicode="з"/><glyph d="M737 924h443l-9 -70q-57 -8 -82.5 -27.5t-31.5 -66.5l-74 -596q-6 -49 15.5 -67.5t76.5 -26.5l-8 -70h-442l8 70q59 8 84.5 26.5t32.5 67.5l57 454l-436 -407l-6 -47q-6 -49 15 -67.5t77 -26.5l-11 -70h-440l8 70q59 8 85 26.5t32 67.5l74 596q6 49 -15.5 67.5 t-78.5 26.5l8 70h442l-8 -70q-57 -8 -83 -27.5t-32 -66.5l-57 -457l436 414l6 43q6 49 -15.5 67.5t-78.5 26.5z" glyph-name="afii10074" horiz-adv-x="1185" unicode="и"/><glyph d="M692 1118q-121 0 -193.5 74t-56.5 201q2 23 21 22h53q14 0 16 -22q14 -119 179 -119q162 0 207 119q8 23 22 22h53q16 0 15 -22q-16 -127 -105.5 -201t-210.5 -74zM737 924h443l-9 -70q-57 -8 -82.5 -27.5t-31.5 -66.5l-74 -596q-6 -49 15.5 -67.5t76.5 -26.5l-8 -70 h-442l8 70q59 8 84.5 26.5t32.5 67.5l57 454l-436 -407l-6 -47q-6 -49 15 -67.5t77 -26.5l-11 -70h-440l8 70q59 8 85 26.5t32 67.5l74 596q6 49 -15.5 67.5t-78.5 26.5l8 70h442l-8 -70q-57 -8 -83 -27.5t-32 -66.5l-57 -457l436 414l6 43q6 49 -15.5 67.5t-78.5 26.5z" glyph-name="afii10075" horiz-adv-x="1185" unicode="й"/><glyph d="M813 760l-168 -174q-35 -37 -8 -76l213 -307q49 -70 87 -97.5t89 -35.5l-8 -70h-443l9 70q45 8 57 24.5t-12 57.5l-160 231q-18 29 -55 29h-19l-30 -248q-6 -49 15 -67.5t77 -26.5l-11 -70h-440l8 70q59 8 85 26.5t32 67.5l74 596q6 49 -15.5 67.5t-78.5 26.5l8 70h442 l-8 -70q-57 -8 -83 -27.5t-32 -66.5l-32 -260h24q47 0 105 61l233 248q45 47 66.5 66.5t60.5 40t80 20.5q49 0 75.5 -24.5t26.5 -65.5q0 -53 -34.5 -87t-81.5 -34q-29 0 -52.5 13.5t-33 25.5t-28 15.5t-34.5 -19.5z" glyph-name="afii10076" horiz-adv-x="1116" unicode="к"/><glyph d="M182 -23q-82 0 -132 37t-50 103q0 55 31.5 94t83.5 39q43 0 58 -28.5t9 -63.5t3.5 -63.5t43.5 -28.5q72 0 105 92t59 303l37 299q6 47 -31 65.5t-129 28.5l9 70h938l-9 -70q-57 -8 -82.5 -27.5t-31.5 -66.5l-74 -596q-6 -49 15.5 -67.5t76.5 -26.5l-8 -70h-442l8 70 q59 8 84.5 26.5t31.5 67.5l74 596q6 49 -16.5 65.5t-79.5 16.5h-137q-57 0 -83 -16.5t-32 -65.5l-39 -305q-31 -238 -65 -322q-68 -156 -226 -156z" glyph-name="afii10077" horiz-adv-x="1222" unicode="л"/><glyph d="M983 924h336l-8 -70q-57 -8 -83 -27.5t-32 -66.5l-74 -596q-6 -47 15.5 -66.5t76.5 -27.5l-8 -70h-442l8 70q59 8 85 26.5t32 67.5l67 553l-344 -633h-129l-204 623l-66 -543q-6 -49 15.5 -67.5t76.5 -26.5l-10 -70h-289l8 70q59 8 85 26.5t32 67.5l74 596 q6 49 -15.5 67.5t-78.5 26.5l8 70h325l199 -615z" glyph-name="afii10078" horiz-adv-x="1325" unicode="м"/><glyph d="M768 924h440l-8 -70q-57 -8 -82.5 -27.5t-32.5 -66.5l-73 -596q-6 -49 15.5 -67.5t76.5 -26.5l-8 -70h-443l9 70q59 8 84.5 26.5t31.5 67.5l31 252h-414l-30 -252q-6 -49 15 -67.5t77 -26.5l-11 -70h-440l8 70q59 8 85 26.5t32 67.5l74 596q6 49 -15.5 67.5t-78.5 26.5 l8 70h442l-8 -70q-57 -8 -83 -27.5t-32 -66.5l-32 -262h413l33 262q6 49 -15.5 67.5t-78.5 26.5z" glyph-name="afii10079" horiz-adv-x="1214" unicode="н"/><glyph d="M469 -12q-180 0 -296 111.5t-116 297.5q0 211 144.5 380t365.5 169q180 0 297 -111.5t117 -297.5q0 -211 -145.5 -380t-366.5 -169zM510 61q113 0 166 128t53 298q0 166 -52 275.5t-151 109.5q-113 0 -166 -128t-53 -298q0 -166 52.5 -275.5t150.5 -109.5z" glyph-name="afii10080" horiz-adv-x="1036" unicode="о"/><glyph d="M6 0l8 70q59 8 85 26.5t32 67.5l74 596q6 49 -15.5 67.5t-78.5 26.5l8 70h1100l-9 -70q-57 -8 -82.5 -27.5t-31.5 -66.5l-74 -596q-6 -49 15.5 -67.5t76.5 -26.5l-8 -70h-442l8 70q59 8 84.5 26.5t31.5 67.5l74 596q6 49 -16.5 65.5t-79.5 16.5h-215q-55 0 -81 -16.5 t-32 -65.5l-73 -596q-6 -49 15 -67.5t77 -26.5l-11 -70h-440z" glyph-name="afii10081" horiz-adv-x="1224" unicode="п"/><glyph d="M45 -410l143 1129q8 61 -29.5 85.5t-97.5 -1.5l11 63q86 72 194 72q61 0 105.5 -41t46.5 -90q2 -29 10 -29q4 0 49 49q115 119 258 119q135 0 230.5 -101.5t95.5 -277.5q0 -229 -154.5 -404t-351.5 -175q-57 0 -110.5 20.5t-73 32.5t-33.5 -4.5t-23 -81.5l-10 -92 q-12 -98 14.5 -130t106.5 -32l-10 -70q-201 0 -371 -41zM528 61q121 0 202 135.5t81 313.5q0 139 -50 227t-136 88q-78 0 -147.5 -78.5t-92.5 -254.5l-18 -144q-14 -137 30.5 -212t130.5 -75z" glyph-name="afii10082" horiz-adv-x="1114" unicode="р"/><glyph d="M463 -12q-172 0 -289 111.5t-117 295.5q0 94 34 190.5t96.5 177.5t163 132t220.5 51q150 0 230 -70.5t80 -168.5q0 -57 -29 -98.5t-90 -41.5q-49 0 -72.5 27t-23.5 65q0 14 5 43t5 41q0 43 -36 86t-112 43q-113 0 -175 -107.5t-62 -268.5q0 -166 69.5 -267.5 t208.5 -101.5q135 0 215 80l39 -51q-53 -66 -147 -117t-213 -51z" glyph-name="afii10083" horiz-adv-x="911" unicode="с"/><glyph d="M1487 -12q-70 0 -118 48t-38 124l47 350q18 145 -9.5 209.5t-117.5 64.5q-100 0 -175 -98t-91 -246l-53 -440h-225l65 510q18 145 -9.5 209.5t-117.5 64.5q-102 0 -176 -102t-92 -256l-51 -426h-226l88 719q8 61 -29.5 85.5t-97.5 -1.5l11 63q90 72 192 72q68 0 112 -46 t44 -130q0 -37 10 -35q8 0 62 59q141 160 294 160q178 0 215 -184q12 -63 48 -37q12 8 47 47q109 123 196 156q49 18 101 18q113 0 177 -84t40 -282l-47 -369q-8 -66 30.5 -90.5t98.5 2.5l-11 -64q-90 -71 -194 -71z" glyph-name="afii10084" horiz-adv-x="1763" unicode="т"/><glyph d="M-10 -410q-63 0 -110.5 43t-47.5 113q0 57 35 96t96 39q47 0 68.5 -24.5t20.5 -53t8.5 -53t35.5 -24.5q139 0 332 243l-182 744q-16 72 -59.5 95t-102.5 -5l10 63q86 72 191 72q78 0 121 -50t65 -151l119 -512q6 -25 21.5 -27.5t31.5 17.5q131 184 215 397 q49 125 -5 175.5t-134 15.5l10 63q100 72 186 72q63 0 88 -44t17 -102.5t-37 -121.5q-86 -195 -266 -444t-389 -442.5t-338 -193.5z" glyph-name="afii10085" horiz-adv-x="1040" unicode="у"/><glyph d="M1348 942q147 0 243.5 -102.5t96.5 -278.5q0 -233 -142.5 -403t-349.5 -170q-49 0 -95 12t-73 24.5t-49.5 19.5t-33.5 -2t-15 -42l-25 -195q-8 -66 16.5 -92t92.5 -32l-8 -70h-482l8 70q70 6 101 32.5t39 91.5l43 338q-133 -156 -322 -155q-147 0 -242.5 100t-95.5 279 q0 233 142.5 404t349.5 171q53 0 102 -14.5t75 -27.5t46.5 -18t29.5 11t15 65l16 148q8 70 -17.5 93.5t-92.5 17.5l8 69l281 53q43 8 61.5 -10t13.5 -61l-49 -406q-2 -23 10.5 -27t30.5 13q39 37 112 65.5t159 28.5zM524 131q76 0 138.5 53.5t76.5 167.5l23 176 q20 158 -47.5 242t-159.5 84q-115 0 -178.5 -115.5t-63.5 -275.5q0 -143 57.5 -237.5t153.5 -94.5zM1188 76q119 0 181.5 121.5t62.5 281.5q0 141 -54.5 230.5t-152.5 89.5q-82 0 -146.5 -60.5t-83.5 -203.5l-22 -181q-16 -141 52.5 -209.5t162.5 -68.5z" glyph-name="afii10086" horiz-adv-x="1740" unicode="ф"/><glyph d="M852 938q61 0 94 -29.5t33 -72.5q0 -31 -21.5 -54.5t-56.5 -23.5q-33 0 -60.5 39t-45.5 39q-53 0 -183 -222l-45 -75l144 -326q61 -139 166 -86l-11 -64q-88 -72 -186 -71q-39 0 -66.5 11t-51 47t-33 54.5t-37.5 83.5l-56 125l-63 -106q-68 -117 -122 -166t-128 -49 q-63 0 -95 26.5t-32 67.5q0 31 21.5 54.5t56.5 23.5q33 0 60.5 -35t45.5 -35q53 0 182 221l41 72l-145 330q-61 139 -166 86l10 63q88 72 187 72q39 0 66.5 -11.5t51 -47t33 -54t37.5 -84.5l58 -131l67 113q68 117 122 166t128 49z" glyph-name="afii10087" horiz-adv-x="974" unicode="х"/><glyph d="M1022 -225q8 61 10 90t-8 60.5t-26.5 41.5t-63.5 20.5t-101.5 11.5t-156.5 1h-670l8 70q59 8 85 26.5t32 67.5l74 596q6 49 -15.5 67.5t-78.5 26.5l8 70h442l-8 -70q-57 -8 -83 -27.5t-32 -66.5l-73 -596q-6 -49 15 -65.5t77 -16.5h229q92 0 105 96l71 582 q6 49 -15.5 67.5t-78.5 26.5l8 70h443l-9 -70q-57 -8 -82.5 -27.5t-31.5 -66.5l-72 -582q-6 -47 24.5 -71.5t104.5 -24.5q23 0 18 -25l-81 -282h-68z" glyph-name="afii10088" horiz-adv-x="1282" unicode="ц"/><glyph d="M770 367q4 31 -4 28q-2 0 -55 -51q-133 -129 -297 -129q-131 0 -203 92t-47 297l20 170q8 55 -11 74.5t-81 30.5l6 45h424l-6 -45q-63 -10 -86.5 -30t-30.5 -75l-20 -170q-16 -119 25.5 -191.5t127.5 -72.5q92 0 171 64.5t94 170.5zM735 924h424l-6 -45q-63 -10 -87 -30 t-32 -75l-76 -624q-8 -55 11.5 -75t81.5 -30l-7 -45h-423l6 45q63 10 86.5 29.5t29.5 75.5l78 624q6 55 -12 74.5t-80 30.5zM797 575v3v-3z" glyph-name="afii10089" horiz-adv-x="1163" unicode="ч"/><glyph d="M6 0l8 70q59 8 85 26.5t32 67.5l74 596q6 49 -15.5 67.5t-78.5 26.5l8 70h442l-8 -70q-57 -8 -83 -27.5t-32 -66.5l-73 -596q-6 -49 15 -65.5t77 -16.5h98q55 0 81 16.5t32 65.5l73 596q6 49 -15 67.5t-77 26.5l8 70h441l-8 -70q-57 -8 -83 -27.5t-32 -66.5l-74 -596 q-6 -49 15.5 -65.5t78.5 -16.5h97q55 0 80.5 16.5t31.5 65.5l74 596q6 49 -15.5 67.5t-76.5 26.5l10 70h440l-8 -70q-59 -8 -84.5 -26.5t-32.5 -67.5l-73 -596q-6 -49 15.5 -67.5t78.5 -26.5l-8 -70h-1518z" glyph-name="afii10090" horiz-adv-x="1642" unicode="ш"/><glyph d="M1569 82q25 0 18 -25l-82 -282h-65q8 61 10 90t-9 60.5t-27.5 41.5t-63.5 20.5t-101.5 11.5t-156.5 1h-1086l8 70q59 8 85 26.5t32 67.5l74 596q6 49 -15.5 67.5t-78.5 26.5l8 70h442l-8 -70q-57 -8 -83 -27.5t-32 -66.5l-73 -596q-6 -49 15 -65.5t77 -16.5h98 q55 0 81 16.5t32 65.5l73 596q6 49 -15 67.5t-77 26.5l8 70h441l-8 -70q-57 -8 -83 -27.5t-32 -66.5l-74 -596q-6 -49 15.5 -65.5t78.5 -16.5h119q41 0 63.5 28.5t28.5 67.5l72 582q6 49 -15.5 67.5t-76.5 26.5l10 70h440l-8 -70q-59 -8 -84.5 -26.5t-32.5 -67.5l-71 -582 q-6 -47 24.5 -71.5t104.5 -24.5z" glyph-name="afii10091" horiz-adv-x="1697" unicode="щ"/><glyph d="M694 686q211 0 318.5 -75.5t107.5 -217.5q0 -193 -140 -293t-370 -100h-450l8 70q59 8 85 26.5t32 67.5l73 590q10 88 -77 88q-51 0 -83 -25.5t-67 -93.5h-68l60 201h592l-8 -70q-57 -8 -83 -27.5t-32 -66.5l-4 -33q-2 -16 8 -28.5t27 -12.5h71zM621 82q129 0 193.5 89 t64.5 235q0 199 -193 198h-74q-16 0 -29.5 -12t-15.5 -29l-49 -399q-6 -47 19 -64.5t84 -17.5z" glyph-name="afii10092" horiz-adv-x="1193" unicode="ъ"/><glyph d="M6 0l8 70q59 8 85 26.5t32 67.5l74 596q6 49 -15.5 67.5t-78.5 26.5l8 70h442l-8 -70q-57 -8 -83 -27.5t-32 -66.5l-4 -33q-2 -16 7.5 -28.5t25.5 -12.5h72q211 0 319.5 -77t108.5 -216q0 -190 -141.5 -291.5t-370.5 -101.5h-449zM967 0l8 70q59 8 84.5 26.5t32.5 67.5 l71 596q6 49 -15.5 67.5t-76.5 26.5l8 70h443l-11 -70q-57 -8 -82.5 -27.5t-31.5 -66.5l-72 -596q-6 -47 14.5 -66.5t75.5 -27.5l-8 -70h-440zM465 82q133 0 195.5 88t62.5 240q0 195 -193 194h-73q-16 0 -28.5 -12t-14.5 -29l-49 -399q-6 -47 18.5 -64.5t81.5 -17.5z" glyph-name="afii10093" horiz-adv-x="1525" unicode="ы"/><glyph d="M6 0l8 70q59 8 85 26.5t32 67.5l74 596q6 49 -15.5 67.5t-78.5 26.5l8 70h442l-8 -70q-57 -8 -83 -27.5t-32 -66.5l-4 -33q-2 -16 7.5 -28.5t25.5 -12.5h72q211 0 319.5 -77t108.5 -216q0 -190 -141.5 -291.5t-370.5 -101.5h-449zM465 82q133 0 195.5 88t62.5 240 q0 195 -193 194h-73q-16 0 -28.5 -12t-14.5 -29l-49 -399q-6 -47 18.5 -64.5t81.5 -17.5z" glyph-name="afii10094" horiz-adv-x="1040" unicode="ь"/><glyph d="M479 942q178 0 308.5 -108.5t130.5 -305.5q0 -233 -160 -386.5t-389 -153.5q-139 0 -226.5 65.5t-113.5 139.5l53 43q66 -106 190 -107q133 0 231.5 81t143.5 214h-252l8 74h265q12 61 12 125q0 111 -46 176t-136 65q-154 0 -172 -188q-6 -47 -43 -83t-93 -36 q-57 0 -79.5 37t-16.5 92q12 98 122.5 177t262.5 79z" glyph-name="afii10095" horiz-adv-x="974" unicode="э"/><glyph d="M1075 946q180 0 297 -111.5t117 -297.5q0 -211 -145.5 -380t-366.5 -169q-180 0 -296 111.5t-116 297.5v17h-170l-30 -250q-6 -49 15 -67.5t77 -26.5l-8 -70h-443l8 70q59 8 85 26.5t32 67.5l74 596q6 49 -15.5 67.5t-78.5 26.5l8 70h442l-8 -70q-57 -8 -83 -27.5 t-32 -66.5l-28 -240h170q41 178 175 302t320 124zM1018 61q113 0 166 128t53 298q0 166 -52 275.5t-151 109.5q-113 0 -166 -128t-53 -298q0 -166 52.5 -275.5t150.5 -109.5z" glyph-name="afii10096" horiz-adv-x="1544" unicode="ю"/><glyph d="M500 924h518l-8 -70q-57 -8 -83 -27.5t-32 -66.5l-74 -596q-6 -49 15.5 -67.5t76.5 -26.5l-10 -70h-440l8 70q59 8 85 26.5t32 67.5l28 231h-92q-61 0 -94 -32.5t-68 -126.5q-43 -119 -113.5 -177.5t-199.5 -58.5h-76l9 70q55 10 81.5 42.5t65.5 135.5q57 152 195 174 q-229 49 -209 233q14 125 121.5 197t263.5 72zM461 477h166l35 283q6 49 -16.5 65.5t-80.5 16.5h-22q-178 0 -205 -183q-8 -76 19.5 -129t103.5 -53z" glyph-name="afii10097" horiz-adv-x="1024" unicode="я"/><glyph d="M395 1245q-68 41 -88 87t21 100q80 82 182 -35l192 -223q37 -41 10.5 -72t-69.5 -4zM383 381q-90 -16 -45 -113q72 -141 231 -141q135 0 215 80l39 -51q-53 -66 -147 -117t-215 -51q-170 0 -287 111.5t-117 295.5q0 94 34 190.5t97.5 177.5t164 132t220.5 51 q154 0 238 -72.5t84 -183.5q0 -115 -100.5 -184.5t-319.5 -108.5zM543 872q-117 0 -182.5 -101t-69.5 -257q2 -74 88 -61l41 6q88 14 145.5 42.5t82 65.5t31.5 66t7 63q0 176 -143 176z" glyph-name="uni0450" horiz-adv-x="929" unicode="ѐ"/><glyph d="M356.5 1081q-59.5 0 -102.5 42t-43 102q0 61 43 103t102.5 42t101.5 -42t42 -103q0 -59 -42 -101.5t-101.5 -42.5zM796.5 1370q59.5 0 101.5 -42t42 -103q0 -59 -42 -101.5t-101.5 -42.5t-102.5 42t-43 102q0 61 43 103t102.5 42zM573 946q154 0 238 -72.5t84 -183.5 q0 -115 -100.5 -184.5t-319.5 -108.5l-92 -16q-90 -16 -45 -113q72 -141 231 -141q135 0 215 80l39 -51q-53 -66 -147 -117t-215 -51q-170 0 -287 111.5t-117 295.5q0 94 34 190.5t97.5 177.5t163.5 132t221 51zM420 459q88 14 145.5 42.5t82 65.5t31.5 66t7 63 q0 176 -143 176q-117 0 -182.5 -101t-69.5 -257q2 -74 88 -61z" glyph-name="afii10071" horiz-adv-x="929" unicode="ё"/><glyph d="M381 1174l192 223q102 117 183 35q41 -53 20.5 -99.5t-88.5 -87.5l-248 -147q-43 -27 -69.5 4t10.5 72zM352 -12q-174 0 -263 84t-60 200q23 88 105.5 161t170.5 114t168 100.5t96 122.5q12 45 -7 80t-81 35q-74 0 -123 -53.5t-67 -139.5q-14 -72 -90 -71q-80 0 -80 65 q0 109 112.5 184.5t255.5 75.5q156 0 230 -71.5t47 -182.5q-23 -92 -105.5 -170t-170 -122t-165 -100t-89.5 -110q-12 -51 12 -95t106 -44q78 0 136.5 52.5t80.5 142.5q16 61 39 76q20 14 58 14q74 0 73 -74q0 -115 -118.5 -194.5t-270.5 -79.5z" glyph-name="afii10100" horiz-adv-x="819" unicode="ѓ"/><glyph d="M762 567q-49 0 -72.5 27t-23.5 65q0 14 5 43t5 41q0 43 -36 86t-112 43q-113 0 -175 -106.5t-62 -267.5h315l-8 -74h-303q14 -135 82.5 -216t191.5 -81q135 0 215 80l39 -51q-53 -66 -147 -117t-213 -51q-172 0 -289 111.5t-117 295.5q0 94 34 190.5t96.5 177.5t163 132 t220.5 51q150 0 230 -70.5t80 -168.5q0 -57 -29 -98.5t-90 -41.5z" glyph-name="afii10101" horiz-adv-x="921" unicode="є"/><glyph d="M348 -12q-156 0 -240.5 70.5t-84.5 162.5q0 45 22.5 80t73.5 35q35 0 52 -13.5t19.5 -27.5t2.5 -43v-6q0 -90 45 -142.5t122 -52.5q82 0 118 44t36 95q0 45 -43 88.5t-103.5 82t-121 82.5t-103.5 108.5t-43 140.5q0 111 92.5 182.5t248 71.5t232.5 -68.5t77 -158.5 q0 -98 -101 -98q-74 0 -74 71q0 86 -34.5 139.5t-106.5 53.5q-61 0 -89 -35t-28 -80q0 -53 44.5 -100t105.5 -84t123.5 -78t106.5 -101.5t44 -134.5q0 -117 -109.5 -200.5t-283.5 -83.5z" glyph-name="afii10102" horiz-adv-x="817" unicode="ѕ"/><glyph d="M331.5 1081q-59.5 0 -102.5 42t-43 102q0 61 43 103t102.5 42t101.5 -42t42 -103q0 -59 -42 -101.5t-101.5 -42.5zM262 -12q-68 0 -116 48t-37 124l79 559q8 61 -29.5 85.5t-97.5 -1.5l11 63q86 72 194 72q68 0 116 -48t38 -124l-80 -559q-8 -61 30 -86t97 2l-10 -64 q-93 -71 -195 -71z" glyph-name="afii10103" horiz-adv-x="538" unicode="і"/><glyph d="M139.5 1081q-59.5 0 -102.5 42t-43 102q0 61 43 103t102.5 42t101.5 -42t42 -103q0 -59 -42 -101.5t-101.5 -42.5zM579.5 1081q-59.5 0 -102.5 42t-43 102q0 61 43 103t102.5 42t101.5 -42t42 -103q0 -59 -42 -101.5t-101.5 -42.5zM262 -12q-68 0 -116 48t-37 124l79 559 q8 61 -29.5 85.5t-97.5 -1.5l11 63q86 72 194 72q68 0 116 -48t38 -124l-80 -559q-8 -61 30 -86t97 2l-10 -64q-93 -71 -195 -71z" glyph-name="afii10104" horiz-adv-x="538" unicode="ї"/><glyph d="M378.5 1081q-59.5 0 -102.5 42t-43 102q0 61 43 103t102.5 42t101.5 -42t42 -103q0 -59 -42 -101.5t-101.5 -42.5zM-29 -410q-125 0 -187.5 54.5t-62.5 130.5q0 57 35 90t82 33q41 0 70 -28t29 -77q0 -129 77 -129q59 0 85 79t44 228l93 748q8 61 -30 85.5t-97 -1.5 l10 63q86 72 194 72q68 0 115 -48t39 -124l-96 -774q-25 -199 -130.5 -300.5t-269.5 -101.5z" glyph-name="afii10105" horiz-adv-x="563" unicode="ј"/><glyph d="M659.5 1118q-120.5 0 -193.5 74t-56 201q2 23 20 22h53q14 0 17 -22q14 -119 178 -119q162 0 207 119q8 23 22 22h54q16 0 14 -22q-16 -127 -105.5 -201t-210 -74zM-10 -410q-63 0 -110.5 43t-47.5 113q0 57 35 96t96 39q47 0 68.5 -24.5t20.5 -53t8.5 -53t35.5 -24.5 q139 0 332 243l-182 744q-16 72 -59.5 95t-102.5 -5l10 63q86 72 191 72q78 0 121 -50t65 -151l119 -512q6 -25 21.5 -27.5t31.5 17.5q131 184 215 397q49 125 -5 175.5t-134 15.5l10 63q100 72 186 72q63 0 88 -44t17 -102.5t-37 -121.5q-86 -195 -266 -444t-389 -442.5 t-338 -193.5z" glyph-name="afii10110" horiz-adv-x="1040" unicode="ў"/><glyph d="M6 0l8 68q135 18 150 122l108 891q14 104 -118 123l8 68h690q86 0 139 26.5t103 90.5h65l-65 -199h-410q-70 0 -104.5 -22.5t-42.5 -86.5l-109 -891q-8 -57 24.5 -84.5t114.5 -37.5l-8 -68h-553z" glyph-name="afii10050" horiz-adv-x="1095" unicode="Ґ"/><glyph d="M6 0l8 70q59 8 85 26.5t32 67.5l74 596q6 49 -15.5 67.5t-78.5 26.5l8 70h512q106 0 150 23.5t87 94.5h68l-59 -200h-381q-49 0 -54 -51l-77 -627q-6 -49 15 -67.5t77 -26.5l-11 -70h-440z" glyph-name="afii10098" horiz-adv-x="905" unicode="ґ"/><glyph d="M817 1305q233 0 392 -150.5t159 -402.5q0 -319 -217 -545.5t-524 -226.5q-233 0 -392 150.5t-159 401.5q0 322 216 547.5t525 225.5zM745 1208q-160 0 -253 -149.5t-111 -364.5h686q-2 229 -90.5 371.5t-231.5 142.5zM698 76q160 0 253 150.5t112 365.5h-686 q0 -229 89 -372.5t232 -143.5z" glyph-name="uni04E8" horiz-adv-x="1400" unicode="Ө"/><glyph d="M567 946q180 0 297 -111.5t117 -297.5q0 -211 -145.5 -380t-366.5 -169q-180 0 -296 111.5t-116 297.5q0 211 144.5 380t365.5 169zM526 872q-102 0 -155.5 -105t-61.5 -257h420q-4 158 -55.5 260t-147.5 102zM510 61q70 0 119 55.5t70.5 131.5t27.5 172h-420 q4 -156 56.5 -257.5t146.5 -101.5z" glyph-name="uni04E9" horiz-adv-x="1036" unicode="ө"/><glyph d="M1272 1522q37 -41 10 -72t-70 -4l-247 147q-68 41 -88.5 87t20.5 100q80 82 182 -35zM543 0l-258 965q-35 135 -59.5 180t-92.5 61l8 66h508l-8 -68q-84 -12 -104.5 -55t2.5 -107l163 -630q4 -16 13.5 -22.5t19.5 -0.5t19 23l157 325q47 94 62.5 154.5t-2.5 128.5 q-25 94 -51.5 133t-85.5 53l8 66h508l-9 -68q-84 -12 -104 -55t2 -107l164 -630q4 -16 13 -22.5t19.5 -0.5t18.5 23l301 618q72 147 -108 174l8 68h432l-8 -68q-80 -16 -127 -59t-92 -131l-400 -811q-63 -127 -76 -203h-141l-205 768l-278 -565q-63 -127 -76 -203h-141z" glyph-name="Wgrave" horiz-adv-x="2027" unicode="Ẁ"/><glyph d="M1036 1174q37 -41 10.5 -72t-69.5 -4l-248 147q-68 41 -88 87t21 100q80 82 182 -35zM391 0l-158 713q-14 70 -59 94t-102 -4l10 63q86 72 188 72q78 0 122 -50t65 -151l108 -512q4 -25 20.5 -27.5t32.5 17.5q102 143 187 348q27 66 30 118t-10.5 81t-37 44t-52 13 t-53.5 -16l10 63q86 72 189 72q78 0 122 -50t64 -151l109 -512q4 -25 20 -27.5t33 17.5q109 152 205 397q49 125 -5.5 175.5t-134.5 15.5l11 63q100 72 186 72q63 0 88 -44t16.5 -102.5t-36.5 -121.5q-70 -158 -196 -353.5t-253 -316.5h-109l-118 541q-182 -348 -383 -541 h-109z" glyph-name="wgrave" horiz-adv-x="1615" unicode="ẁ"/><glyph d="M1028 1522l193 223q102 117 182 35q41 -53 20.5 -99.5t-88.5 -87.5l-248 -147q-43 -27 -69.5 4t10.5 72zM543 0l-258 965q-35 135 -59.5 180t-92.5 61l8 66h508l-8 -68q-84 -12 -104.5 -55t2.5 -107l163 -630q4 -16 13.5 -22.5t19.5 -0.5t19 23l157 325q47 94 62.5 154.5 t-2.5 128.5q-25 94 -51.5 133t-85.5 53l8 66h508l-9 -68q-84 -12 -104 -55t2 -107l164 -630q4 -16 13 -22.5t19.5 -0.5t18.5 23l301 618q72 147 -108 174l8 68h432l-8 -68q-80 -16 -127 -59t-92 -131l-400 -811q-63 -127 -76 -203h-141l-205 768l-278 -565 q-63 -127 -76 -203h-141z" glyph-name="Wacute" horiz-adv-x="2027" unicode="Ẃ"/><glyph d="M788 1174l193 223q102 117 182 35q41 -53 20.5 -99.5t-87.5 -87.5l-248 -147q-43 -27 -70 4t10 72zM391 0l-158 713q-14 70 -59 94t-102 -4l10 63q86 72 188 72q78 0 122 -50t65 -151l108 -512q4 -25 20.5 -27.5t32.5 17.5q102 143 187 348q27 66 30 118t-10.5 81t-37 44 t-52 13t-53.5 -16l10 63q86 72 189 72q78 0 122 -50t64 -151l109 -512q4 -25 20 -27.5t33 17.5q109 152 205 397q49 125 -5.5 175.5t-134.5 15.5l11 63q100 72 186 72q63 0 88 -44t16.5 -102.5t-36.5 -121.5q-70 -158 -196 -353.5t-253 -316.5h-109l-118 541 q-182 -348 -383 -541h-109z" glyph-name="wacute" horiz-adv-x="1615" unicode="ẃ"/><glyph d="M925.5 1430q-59.5 0 -102.5 41.5t-43 101.5q0 61 43 103t102.5 42t101.5 -42t42 -103q0 -59 -42 -101t-101.5 -42zM1366 1430q-59 0 -102 41.5t-43 101.5q0 61 43 103t102 42t101 -42t42 -103q0 -59 -42 -101t-101 -42zM543 0l-258 965q-35 135 -59.5 180t-92.5 61l8 66 h508l-8 -68q-84 -12 -104.5 -55t2.5 -107l163 -630q4 -16 13.5 -22.5t19.5 -0.5t19 23l157 325q47 94 62.5 154.5t-2.5 128.5q-25 94 -51.5 133t-85.5 53l8 66h508l-9 -68q-84 -12 -104 -55t2 -107l164 -630q4 -16 13 -22.5t19.5 -0.5t18.5 23l301 618q72 147 -108 174l8 68 h432l-8 -68q-80 -16 -127 -59t-92 -131l-400 -811q-63 -127 -76 -203h-141l-205 768l-278 -565q-63 -127 -76 -203h-141z" glyph-name="Wdieresis" horiz-adv-x="2027" unicode="Ẅ"/><glyph d="M690.5 1081q-59.5 0 -102.5 42t-43 102q0 61 43 103t102.5 42t101.5 -42t42 -103q0 -59 -42 -101.5t-101.5 -42.5zM1130.5 1081q-59.5 0 -102.5 42t-43 102q0 61 43 103t102.5 42t101.5 -42t42 -103q0 -59 -42 -101.5t-101.5 -42.5zM391 0l-158 713q-14 70 -59 94 t-102 -4l10 63q86 72 188 72q78 0 122 -50t65 -151l108 -512q4 -25 20.5 -27.5t32.5 17.5q102 143 187 348q27 66 30 118t-10.5 81t-37 44t-52 13t-53.5 -16l10 63q86 72 189 72q78 0 122 -50t64 -151l109 -512q4 -25 20 -27.5t33 17.5q109 152 205 397q49 125 -5.5 175.5 t-134.5 15.5l11 63q100 72 186 72q63 0 88 -44t16.5 -102.5t-36.5 -121.5q-70 -158 -196 -353.5t-253 -316.5h-109l-118 541q-182 -348 -383 -541h-109z" glyph-name="wdieresis" horiz-adv-x="1615" unicode="ẅ"/><glyph d="M885 1446q-92 0 -216 69.5t-169 69.5q-39 0 -71 -24.5t-38 -69.5h-65q14 115 83.5 178.5t174.5 63.5q92 0 216 -70t169 -70q41 0 71.5 22.5t36.5 72.5h66q-14 -115 -83 -178.5t-175 -63.5zM6 0l8 68q135 18 150 122l108 891q14 104 -118 123l8 68h928q39 0 38 -41 q0 -100 15 -234h-45q-35 96 -85 139.5t-141 43.5h-200q-63 0 -95 -26t-40 -83l-35 -272q-8 -57 19.5 -83t90.5 -26h127q100 0 140.5 32t62.5 114h37l-47 -383h-37q-4 80 -36 112.5t-132 32.5h-127q-63 0 -95 -25.5t-40 -83.5l-37 -290q-8 -57 20.5 -83t102.5 -26l217 2 q109 2 156 33t133 145h45q-59 -129 -86 -235q-10 -35 -47 -35h-963z" glyph-name="uni1EBC" horiz-adv-x="1165" unicode="Ẽ"/><glyph d="M938 1339h66q-14 -115 -83 -178t-176 -63q-92 0 -215.5 69.5t-169.5 69.5q-39 0 -70.5 -24.5t-37.5 -69.5h-66q14 115 84 178t174 63q92 0 216 -69.5t169 -69.5q41 0 72 22.5t37 71.5zM573 946q154 0 238 -72.5t84 -183.5q0 -115 -100.5 -184.5t-319.5 -108.5l-92 -16 q-90 -16 -45 -113q72 -141 231 -141q135 0 215 80l39 -51q-53 -66 -147 -117t-215 -51q-170 0 -287 111.5t-117 295.5q0 94 34 190.5t97.5 177.5t163.5 132t221 51zM420 459q88 14 145.5 42.5t82 65.5t31.5 66t7 63q0 176 -143 176q-117 0 -182.5 -101t-69.5 -257 q2 -74 88 -61z" glyph-name="uni1EBD" horiz-adv-x="929" unicode="ẽ"/><glyph d="M913 1522q37 -41 10.5 -72t-69.5 -4l-248 147q-68 41 -88 87t21 100q80 82 182 -35zM295 0l8 68q96 8 138 35.5t51 86.5l34 275q10 82 -22 149l-189 381q-53 109 -92 155t-100 54l8 68h533l-9 -68q-72 -10 -91 -46t16 -116l170 -352q8 -20 26 0l262 354q49 66 32 109 t-95 51l8 68h395l-8 -68q-66 -6 -117 -51t-112 -127l-295 -401q-43 -59 -55 -160l-35 -275q-8 -57 28.5 -84.5t130.5 -37.5l-8 -68h-612z" glyph-name="Ygrave" horiz-adv-x="1308" unicode="Ỳ"/><glyph d="M801 1174q37 -41 10 -72t-70 -4l-247 147q-68 41 -88.5 87t20.5 100q80 82 182 -35zM-10 -410q-63 0 -110.5 43t-47.5 113q0 57 35 96t96 39q47 0 68.5 -24.5t20.5 -53t8.5 -53t35.5 -24.5q139 0 332 243l-182 744q-16 72 -59.5 95t-102.5 -5l10 63q86 72 191 72 q78 0 121 -50t65 -151l119 -512q6 -25 21.5 -27.5t31.5 17.5q131 184 215 397q49 125 -5 175.5t-134 15.5l10 63q100 72 186 72q63 0 88 -44t17 -102.5t-37 -121.5q-86 -195 -266 -444t-389 -442.5t-338 -193.5z" glyph-name="ygrave" horiz-adv-x="1040" unicode="ỳ"/><glyph d="M119 588h1089l-18 -150h-1090z" glyph-name="endash" horiz-adv-x="1294" unicode="–"/><glyph d="M119 588h1677l-16 -129h-1678z" glyph-name="emdash" horiz-adv-x="1882" unicode="—"/><glyph d="M119 588h1677l-16 -129h-1678z" glyph-name="afii00208" horiz-adv-x="1882" unicode="―"/><glyph d="M354 1305l37 -45q-98 -76 -115 -152q-8 -33 25 -33q51 0 88 -39t37 -92q0 -68 -43 -109.5t-113 -41.5q-68 0 -107.5 44t-39.5 113q0 102 66.5 198t164.5 157z" glyph-name="quoteleft" horiz-adv-x="430" unicode="‘"/><glyph d="M219 793l-37 45q98 76 115 151q8 33 -25 33q-51 0 -88 39t-37 92q0 68 43 110t113 42q68 0 108 -44t40 -114q0 -102 -67 -197.5t-165 -156.5z" glyph-name="quoteright" horiz-adv-x="430" unicode="’"/><glyph d="M92 -244l-37 45q98 76 115 152q8 33 -25 33q-51 0 -88 38.5t-37 92.5q0 68 43 109.5t113 41.5q68 0 108 -44t40 -113q0 -102 -67 -198t-165 -157z" glyph-name="quotesinglbase" horiz-adv-x="430" unicode="‚"/><glyph d="M354 1305l37 -45q-98 -76 -115 -152q-8 -33 25 -33q51 0 88 -39t37 -92q0 -68 -43 -109.5t-113 -41.5q-68 0 -107.5 44t-39.5 113q0 102 66.5 198t164.5 157zM745 1305l37 -45q-98 -76 -114 -152q-8 -33 24 -33q51 0 88 -39t37 -92q0 -68 -43 -109.5t-112 -41.5 q-68 0 -108 44t-40 113q0 102 66.5 198t164.5 157z" glyph-name="quotedblleft" horiz-adv-x="821" unicode="“"/><glyph d="M219 793l-37 45q98 76 115 151q8 33 -25 33q-51 0 -88 39t-37 92q0 68 43 110t113 42q68 0 108 -44t40 -114q0 -102 -67 -197.5t-165 -156.5zM610 793l-37 45q98 76 115 151q8 33 -24 33q-51 0 -88 39t-37 92q0 68 43 110t112 42q68 0 108 -44t40 -114q0 -102 -67 -197.5 t-165 -156.5z" glyph-name="quotedblright" horiz-adv-x="821" unicode="”"/><glyph d="M92 -244l-37 45q98 76 115 152q8 33 -25 33q-51 0 -88 38.5t-37 92.5q0 68 43 109.5t113 41.5q68 0 108 -44t40 -113q0 -102 -67 -198t-165 -157zM483 -244l-37 45q98 76 115 152q8 33 -24 33q-51 0 -88 38.5t-37 92.5q0 68 43 109.5t112 41.5q68 0 108 -44t40 -113 q0 -102 -67 -198t-165 -157z" glyph-name="quotedblbase" horiz-adv-x="821" unicode="„"/><glyph d="M815 1053q55 0 87 -38t24 -91q-6 -53 -47 -91t-97 -38q-31 0 -89 35.5t-99 41.5l-4 -67l84 -100l-180 -445h-64l-72 445l111 100l12 67q-43 -6 -110.5 -41.5t-98.5 -35.5q-55 0 -86.5 36.5t-25.5 92.5q6 53 48 91t97 38q31 0 90.5 -37t102.5 -43q4 51 -25 119.5t-27 95.5 q8 55 49.5 92t96.5 37t87 -37t26 -92q-4 -27 -49.5 -95.5t-53.5 -119.5q43 6 112.5 43t100.5 37z" glyph-name="dagger" horiz-adv-x="970" unicode="†"/><glyph d="M739 438q55 0 87 -36.5t26 -92.5q-8 -55 -49 -92t-96 -37q-31 0 -91.5 39t-103.5 45q-2 -51 26.5 -120.5t24.5 -98.5q-6 -53 -47 -91t-96 -38t-87 37t-26 92q4 29 50 98.5t57 120.5q-43 -6 -115 -45t-102 -39q-55 0 -87 37t-26 92q8 55 49 92t96 37q31 0 91.5 -39 t103.5 -45l8 62l-84 202l133 199l8 62q-45 -6 -115.5 -45t-101.5 -39q-55 0 -86.5 36.5t-25.5 92.5q6 53 48 91t97 38q31 0 91.5 -39t103.5 -45q2 51 -27 120.5t-27 98.5q8 55 49.5 92t96.5 37t87 -37t26 -92q-4 -29 -50.5 -98.5t-56.5 -120.5q43 6 114.5 45t102.5 39 q55 0 87 -38t24 -91q-6 -53 -47 -91t-97 -38q-29 0 -90 38.5t-106 45.5l-6 -62l84 -201l-134 -200l-8 -62q43 6 114.5 45t102.5 39z" glyph-name="daggerdbl" horiz-adv-x="972" unicode="‡"/><glyph d="M403.5 336q-108.5 0 -185.5 76.5t-77 185.5t77 185.5t185.5 76.5t185.5 -76.5t77 -185.5t-77 -185.5t-185.5 -76.5z" glyph-name="bullet" horiz-adv-x="774" unicode="•"/><glyph d="M172 -12q-57 0 -98 42t-41 99t41 98t98 41t98 -41t41 -98t-41 -99t-98 -42zM571.5 -12q-57.5 0 -98.5 42t-41 99t41 98t98.5 41t98.5 -41t41 -98t-41 -99t-98.5 -42zM970.5 -12q-57.5 0 -98.5 42t-41 99t41 98t98.5 41t98.5 -41t41 -98t-41 -99t-98.5 -42z" glyph-name="ellipsis" horiz-adv-x="1222" unicode="…"/><glyph d="M526 1286q88 0 174 -23.5t136.5 -42t128 -10t170.5 61.5h100l-961 -1272h-198l985 1184q-59 -45 -125 -55.5t-109 0t-114 36.5q10 -37 10 -75q0 -154 -110.5 -271t-254.5 -117q-100 0 -149 55.5t-49 145.5q0 154 111.5 268.5t254.5 114.5zM399 776q70 0 113 100.5 t43 219.5q0 117 -74 116q-72 0 -113.5 -101t-41.5 -212q-1 -123 73 -123zM1026 561q98 0 147.5 -54t49.5 -142q0 -154 -111 -271t-254 -117q-100 0 -149.5 55.5t-49.5 145.5q0 154 112 268.5t255 114.5zM1642 561q98 0 147.5 -54t49.5 -142q0 -154 -110.5 -271t-253.5 -117 q-100 0 -149.5 55.5t-49.5 145.5q0 154 111.5 268.5t254.5 114.5zM899 51q70 0 113 100.5t43 219.5q0 117 -74 116q-72 0 -114 -101t-42 -212q0 -123 74 -123zM1516 51q70 0 112.5 100.5t42.5 219.5q0 117 -74 116q-72 0 -113.5 -101t-41.5 -212q0 -123 74 -123z" glyph-name="perthousand" horiz-adv-x="1955" unicode="‰"/><glyph d="M102 469l351 295l36 -43l-192 -252l131 -252l-47 -43z" glyph-name="guilsinglleft" horiz-adv-x="561" unicode="‹"/><glyph d="M461 469l-350 -295l-37 43l192 252l-131 252l47 43z" glyph-name="guilsinglright" horiz-adv-x="563" unicode="›"/><glyph d="M-334 -10l973 1313h129l-973 -1313h-129z" glyph-name="fraction" horiz-adv-x="307" unicode="⁄"/><glyph d="M881 1229q-166 0 -271.5 -144.5t-128.5 -347.5h447l-6 -55h-445v-33q0 -49 6 -92h422l-6 -55h-407q37 -172 152.5 -266.5t268.5 -94.5q190 0 342 158l41 -39q-66 -102 -205 -191t-333 -89q-233 0 -396 140t-180 382h-114l6 55h106q0 57 10 125h-100l6 55h107 q63 250 270 409t473 159q207 0 322.5 -92.5t115.5 -215.5q0 -78 -45 -137t-127 -59q-63 0 -97 36.5t-34 96.5q0 156 -42.5 225.5t-157.5 69.5z" glyph-name="Euro" horiz-adv-x="1392" unicode="€"/><glyph d="M145 1147l31 125h434v-125h-39q-8 25 -13 35t-19.5 22.5t-34.5 12.5q-53 0 -62 -54l-28 -239q-6 -41 8 -55.5t51 -20.5l-4 -41h-266l4 41q37 4 55.5 19.5t24.5 56.5l28 239q8 53 -47 54q-47 0 -84 -70h-39zM1094 1272h166l-7 -41q-33 -4 -43 -17.5t-16 -58.5l-29 -231 q-4 -43 3.5 -57.5t37.5 -18.5l-4 -41h-229l4 41q35 4 46 18.5t15 57.5l25 196l-152 -264h-57l-96 264l-25 -196q-4 -43 4 -57.5t39 -18.5l-4 -41h-160l6 41q33 4 44.5 18.5t17.5 57.5l29 231q4 43 -4.5 57.5t-38.5 18.5l4 41h168l100 -271z" glyph-name="trademark" horiz-adv-x="1220" unicode="™"/><glyph d="M106 803l9 67q53 4 59 43l37 287l-61 -20l10 80l110 53q27 12 49.5 -4.5t18.5 -34.5l-47 -373q0 -6 1 -10t2 -7t5 -5t6 -3.5t8 -2.5t8.5 -1t9.5 -1t9 -1l-6 -67h-228zM20 -10l973 1313h129l-972 -1313h-130zM874 -23q-96 0 -142 49.5t-36 127.5q4 39 35 74.5t72 43.5 q-61 27 -51 111q6 45 53 81t123 36q78 0 122 -41t37 -99q-8 -61 -79 -92q41 -10 64.5 -52t14.5 -97q-6 -59 -64.5 -100.5t-148.5 -41.5zM938 305q14 -2 31.5 25.5t21.5 52.5q4 20 -7 35.5t-50 15.5q-63 0 -74 -74q-4 -41 39 -49zM872 45q82 0 93 100q6 51 -58 68l-53 12 q-14 2 -31.5 -28.5t-23.5 -69.5q-4 -33 14 -57.5t59 -24.5z" glyph-name="oneeighth" horiz-adv-x="1202" unicode="⅛"/><glyph d="M311 784q-90 0 -138 52.5t-40 121.5q6 39 51 39q25 0 36 -9t13.5 -24.5t2.5 -33v-33.5q16 -45 71 -45q41 0 73 36t36 77q6 39 -10.5 55t-43 12t-63.5 -22l-23 63l48 25q74 27 82 100q4 23 -8.5 35t-41.5 12q-37 0 -58.5 -41t-14.5 -82l-86 21q-23 10 -19 39q4 57 54.5 95 t129.5 38q84 0 126 -43t36 -94q-8 -51 -65 -80q86 -31 71 -144q-10 -74 -70.5 -122t-148.5 -48zM244 -10l973 1313h129l-973 -1313h-129zM1118 -23q-96 0 -142 49.5t-36 127.5q4 39 35 74.5t72 43.5q-61 27 -52 111q6 45 54.5 81t121.5 36q78 0 122 -41t38 -99 q-8 -61 -80 -92q41 -10 64.5 -52t15.5 -97q-6 -59 -64.5 -100.5t-148.5 -41.5zM1182 305q14 -2 31.5 25.5t21.5 52.5q4 20 -7 35.5t-50 15.5q-63 0 -74 -74q-4 -41 39 -49zM1116 45q82 0 92 100q6 51 -57 68l-53 12q-14 2 -31.5 -28.5t-24.5 -69.5q-4 -33 14.5 -57.5 t59.5 -24.5z" glyph-name="threeeighths" horiz-adv-x="1456" unicode="⅜"/><glyph d="M315 797q-94 0 -141 46t-41 126q4 47 57 47q27 0 40.5 -12.5t16.5 -23.5t3 -36.5t2 -34.5q10 -47 61 -47q31 0 59.5 35t37.5 92q4 39 -18.5 68.5t-53.5 29.5q-29 0 -102 -30l-66 2l51 256h250l14 10h50l-17 -90l-26 -21h-207l-15 -73q37 29 104.5 28.5t121 -55.5 t41.5 -141q-10 -82 -72 -129t-150 -47zM242 -10l972 1313h129l-972 -1313h-129zM1116 -23q-96 0 -142 49.5t-36 127.5q4 39 35 74.5t71 43.5q-61 27 -51 111q6 45 53.5 81t122.5 36q78 0 122 -41t38 -99q-8 -61 -80 -92q41 -10 64.5 -52t15.5 -97q-6 -59 -64.5 -100.5 t-148.5 -41.5zM1180 305q14 -2 31.5 25.5t21.5 52.5q4 20 -7.5 35.5t-49.5 15.5q-63 0 -74 -74q-4 -41 39 -49zM1114 45q82 0 92 100q6 51 -57 68l-53 12q-14 2 -31.5 -28.5t-24.5 -69.5q-4 -33 14.5 -57.5t59.5 -24.5z" glyph-name="fiveeighths" horiz-adv-x="1443" unicode="⅝"/><glyph d="M229 799q-23 0 -33 20.5t7 48.5l217 342h-170l-14 -34h-76l37 112q8 23 41 23h333l-301 -512h-41zM190 -10l973 1313h129l-973 -1313h-129zM1065 -23q-96 0 -142 49.5t-36 127.5q4 39 34.5 74.5t71.5 43.5q-61 27 -51 111q6 45 54 81t122 36q78 0 122 -41t38 -99 q-8 -61 -80 -92q41 -10 64.5 -52t15.5 -97q-6 -59 -64.5 -100.5t-148.5 -41.5zM1128 305q14 -2 32 25.5t22 52.5q4 20 -7.5 35.5t-50.5 15.5q-63 0 -73 -74q-4 -41 39 -49zM1063 45q82 0 92 100q6 51 -57 68l-54 12q-14 2 -31.5 -28.5t-23.5 -69.5q-4 -33 14.5 -57.5 t59.5 -24.5z" glyph-name="seveneighths" horiz-adv-x="1372" unicode="⅞"/><glyph d="M475 -20q-186 0 -299 102t-113 274q0 199 130.5 335t318.5 136q111 0 186.5 -47t106.5 -94q16 94 7 188.5t-33.5 171t-89 125t-161.5 48.5q-74 0 -174 -50l-30 60q98 76 258 76q229 0 347 -159t118 -411q0 -326 -151 -540.5t-421 -214.5zM475 59q129 0 216 133.5 t87 288.5q0 98 -53 168t-150 70q-131 0 -205.5 -124t-74.5 -286q0 -250 180 -250z" glyph-name="partialdiff" horiz-adv-x="1083" unicode="∂"/><glyph d="M891 817q100 -111 100 -280q0 -211 -145.5 -380t-366.5 -169q-170 0 -280 98l-80 -84l-35 33l80 84q-96 113 -96 278q0 211 144 380t366 169q166 0 280 -96l70 74l35 -33zM317 446q0 -82 13 -151l383 401q-51 176 -176 176q-113 0 -166.5 -128t-53.5 -298zM520 61 q113 0 166 128t53 298q0 88 -14 154l-381 -401q51 -179 176 -179z" glyph-name="emptyset" horiz-adv-x="1048" unicode="∅"/><glyph d="M1163 1638l-252 -2048h-75l241 1969h-764l-241 -1969h-76l252 2048h915z" glyph-name="product" horiz-adv-x="1120" unicode="∏"/><glyph d="M1085 1638l-10 -79h-735l502 -947l-733 -942h735l-10 -80h-838l10 80l731 944l-499 945l10 79h837z" glyph-name="summation" horiz-adv-x="1042" unicode="∑"/><glyph d="M115 555h757l-8 -80h-758z" glyph-name="minus" horiz-adv-x="964" unicode="−"/><glyph d="M375 -410l-185 684q-23 82 -51 114t-100 61l8 65l344 -4l164 -633l821 1761h219l-8 -65q-102 -25 -136 -57.5t-89 -145.5l-844 -1780h-143z" glyph-name="radical" horiz-adv-x="1490" unicode="√"/><glyph d="M391 94q-127 0 -206 99.5t-79 261.5q0 188 99.5 332.5t251.5 144.5q156 0 243 -184q139 186 316 186q125 0 204.5 -98.5t79.5 -260.5q0 -188 -100 -333.5t-250 -145.5q-156 0 -243 185q-138 -187 -316 -187zM344 305q139 0 221 176l84 178q-74 119 -203 119 q-119 0 -188.5 -85t-69.5 -210q0 -90 45 -134t111 -44zM961 250q117 0 187.5 85t70.5 210q0 90 -45.5 134t-112.5 44q-135 0 -219 -178l-84 -176q74 -119 203 -119z" glyph-name="infinity" horiz-adv-x="1392" unicode="∞"/><glyph d="M770 1376q123 0 202 -58t68 -147q-6 -51 -41.5 -82.5t-87.5 -31.5q-57 0 -79.5 38t-20.5 84t-15.5 83.5t-64.5 37.5q-63 0 -92 -60t-43 -175l-137 -1118q-23 -182 -141.5 -285.5t-276.5 -103.5q-123 0 -202 58t-68 146q6 51 40.5 83t86.5 32q57 0 79.5 -38t20.5 -84 t15.5 -84t64.5 -38q63 0 93 60.5t44 175.5l137 1118q23 184 140.5 286.5t277.5 102.5z" glyph-name="integral" horiz-adv-x="931" unicode="∫"/><glyph d="M1047 797q-16 -121 -95.5 -186.5t-197.5 -65.5q-104 0 -244.5 72.5t-194.5 72.5q-45 0 -79.5 -25.5t-40.5 -72.5h-76q16 121 95 186.5t198 65.5q104 0 244.5 -73t193.5 -73q47 0 81 25t40 74h76zM1004 449q-16 -121 -95.5 -186.5t-197.5 -65.5q-104 0 -244.5 72.5 t-194.5 72.5q-45 0 -79.5 -25.5t-40.5 -72.5h-76q16 121 95 186.5t198 65.5q104 0 244.5 -73t193.5 -73q47 0 81 24.5t40 74.5h76z" glyph-name="approxequal" horiz-adv-x="1107" unicode="≈"/><glyph d="M887 659h-279l-155 -288h397l-8 -80h-432l-156 -291h-90l155 291h-235l8 80h270l156 288h-389l8 80h424l150 277h90l-150 -277h244z" glyph-name="notequal" horiz-adv-x="964" unicode="≠"/><glyph d="M125 627l12 110l809 336l-10 -88l-719 -303l645 -303l-10 -88zM72 123h757l-8 -80h-758z" glyph-name="lessequal" horiz-adv-x="974" unicode="≤"/><glyph d="M905 737l-12 -110l-809 -336l10 88l719 303l-645 303l10 88zM61 123h758l-8 -80h-758z" glyph-name="greaterequal" horiz-adv-x="974" unicode="≥"/><glyph d="M758 635l-355 -635h-114l-197 635l354 637h113zM631 635l-146 495l-268 -495l145 -496z" glyph-name="lozenge" horiz-adv-x="808" unicode="◊"/><glyph d="M321.5 1081q-59.5 0 -102.5 42t-43 102q0 61 43 103t102.5 42t101.5 -42t42 -103q0 -59 -42 -101.5t-101.5 -42.5zM262 -12q-68 0 -116 48t-37 124l79 559q8 61 -29.5 85.5t-97.5 -1.5l11 63q86 72 194 72q68 0 116 -48t38 -124l-80 -559q-8 -61 30 -86t97 2l-10 -64 q-93 -71 -195 -71z" glyph-name="i.aalt" horiz-adv-x="538"/><glyph d="M1524 946q113 0 210 -105.5t97 -279.5q0 -223 -160 -398t-409 -175q-162 0 -269.5 78.5t-87.5 232.5l94 733q16 139 -46 215t-156 76q-199 0 -240 -336q-4 -37 13.5 -50t54.5 -13h192l-14 -84h-201q-35 0 -51 -13.5t-21 -52.5l-104 -833q-25 -188 -131.5 -285.5 t-274.5 -97.5q-131 0 -191 53t-60 129q0 59 32.5 92t79.5 33q41 0 70 -27.5t29 -79.5q0 -23 6 -49t27.5 -52t56 -26t57.5 19.5t38 76t18 79t14 102.5q2 18 4 29l104 837q4 37 -6 51.5t-41 14.5h-127l8 49l117 20q68 10 76 74q25 197 160 305.5t323 108.5q180 0 307 -93.5 t103 -271.5l-11 -74q-4 -61 10.5 -82.5t47.5 -13.5t68.5 26.5t88 38t95.5 19.5zM1298 61q121 0 202 135.5t81 313.5q0 137 -52 226t-138 89q-78 0 -145.5 -78.5t-90.5 -254.5l2 10l-18 -137q-18 -145 26.5 -224.5t132.5 -79.5z" glyph-name="f_b.dlig" horiz-adv-x="1884"/><glyph d="M20 -442q-131 0 -191 53t-60 129q0 59 32.5 92t79.5 33q41 0 70 -27.5t29 -79.5q0 -23 6 -49t27.5 -52t56 -26t57.5 19.5t38 76t18 79t14 102.5q2 18 4 29l104 837q4 37 -6 51.5t-41 14.5h-127l8 49l117 20q68 10 76 74q27 197 161 305.5t322 108.5q180 0 307 -93.5 t105 -271.5l-35 -270q-4 -37 4 -35q4 0 57 59q147 160 306 160q113 0 177 -84t40 -282l-47 -369q-8 -66 30.5 -90.5t98.5 2.5l-11 -64q-90 -72 -192 -71q-70 0 -119 48t-39 124l47 350q18 141 -9.5 207.5t-117.5 66.5q-98 0 -173 -94t-91 -233l-57 -457h-228l131 1032 q16 139 -46 215t-156 76q-199 0 -240 -336q-4 -37 13.5 -50t54.5 -13h192l-14 -84h-201q-35 0 -51 -13.5t-21 -52.5l-104 -833q-25 -188 -131.5 -285.5t-274.5 -97.5z" glyph-name="f_h.dlig" horiz-adv-x="1918"/><glyph d="M20 -442q-131 0 -191 53t-60 129q0 59 32.5 92t79.5 33q41 0 70 -27.5t29 -79.5q0 -23 6 -49t27.5 -52t56 -26t57.5 19.5t38 76t18 79t14 102.5q2 18 4 29l104 837q4 37 -6 51.5t-41 14.5h-127l8 49l117 20q68 10 76 74q25 188 131 285.5t274 97.5q131 0 191.5 -53 t60.5 -129q0 -59 -32.5 -92t-79.5 -33q-41 0 -70 27.5t-29 78.5q0 23 -6 49.5t-27.5 52t-56.5 25.5q-16 0 -30.5 -5t-25.5 -18.5t-19.5 -25.5t-15.5 -34.5t-11 -38t-9.5 -45t-7.5 -45t-6 -48.5t-6 -45q-4 -37 13.5 -50t54.5 -13h192l-14 -84h-201q-35 0 -51 -13.5t-21 -52.5 l-104 -833q-25 -188 -131.5 -285.5t-274.5 -97.5zM780 -410q-125 0 -187.5 54.5t-62.5 130.5q0 57 35 90t82 33q41 0 69.5 -28t28.5 -77q0 -129 78 -129q59 0 85 79t44 228l92 748q8 61 -29.5 85.5t-96.5 -1.5l10 63q88 72 194 72q68 0 115 -48t39 -124l-96 -774 q-25 -199 -130.5 -300.5t-269.5 -101.5z" glyph-name="f_j.dlig" horiz-adv-x="1372"/><glyph d="M1602 221q45 -53 66.5 -76.5t58 -48t75.5 -26.5l-10 -70h-264l-367 451q367 133 367 268q0 41 -27.5 65.5t-70.5 24.5q-94 0 -171 -89t-98 -192l-65 -528h-228l131 1032q16 139 -46 215t-156 76q-199 0 -240 -336q-4 -37 13.5 -50t54.5 -13h192l-14 -84h-201 q-35 0 -51 -13.5t-21 -52.5l-104 -833q-25 -188 -131.5 -285.5t-274.5 -97.5q-131 0 -191 53t-60 129q0 59 32.5 92t79.5 33q41 0 70 -27.5t29 -79.5q0 -23 6 -49t27.5 -52t56 -26t57.5 19.5t38 76t18 79t14 102.5q2 18 4 29l104 837q4 37 -6 51.5t-41 14.5h-127l8 49 l117 20q68 10 76 74q25 197 160 305.5t323 108.5q180 0 307 -93.5t103 -271.5l-25 -196q-6 -49 21 -48q16 0 118 66q143 92 236 92q70 0 116 -42t46 -111q0 -158 -301 -293q-47 -20 -13 -64z" glyph-name="f_k.dlig" horiz-adv-x="1851"/><glyph d="M479 -12q-180 0 -295.5 111.5t-115.5 297.5q0 211 144 380t366 169q180 0 296.5 -111.5t116.5 -297.5q0 -211 -145.5 -380t-366.5 -169zM520 61q113 0 166 128t53 298q0 166 -52 275.5t-150 109.5q-113 0 -166.5 -128t-53.5 -298q0 -166 52.5 -275.5t150.5 -109.5z" glyph-name="zero.oldstyle" horiz-adv-x="1048"/><glyph d="M14 0l9 70q86 6 122.5 32.5t44.5 92.5l58 460q6 51 -8.5 70.5t-57.5 11.5l-88 -16l8 70l332 143q35 14 58.5 3t19.5 -36l-88 -706q-8 -66 21.5 -92.5t115.5 -32.5l-8 -70h-539z" glyph-name="one.oldstyle" horiz-adv-x="671"/><glyph d="M25 0q449 373 507 428q150 139 173 234l4 24q10 80 -28 130t-122 50q-80 0 -131 -43t-59 -108q-4 -35 4 -78t6 -68q-8 -57 -51 -88.5t-95 -31.5q-57 0 -89.5 39.5t-32.5 103.5q0 160 142 257t343 97q188 0 277.5 -79t74.5 -193q-10 -76 -63.5 -147.5t-132 -125 t-153.5 -93.5t-153.5 -76.5t-103.5 -53.5l254 6q115 2 159 24.5t119 113.5h66l-31 -86q-57 -166 -47 -236h-837z" glyph-name="two.oldstyle" horiz-adv-x="1038"/><glyph d="M438 -379q-184 0 -306 86t-122 236q0 82 37 130t107 48q59 0 78.5 -27.5t19.5 -94.5t6 -95q10 -39 21.5 -68t33 -63.5t59.5 -53t89 -18.5q133 0 220 121t87 266q0 100 -49 156.5t-133 56.5q-68 0 -144 -39l-16 72q178 61 256 131t78 205q0 92 -45 144t-133 52 q-180 0 -203 -219q-14 -133 -129 -133q-51 0 -75.5 30.5t-24.5 78.5q0 141 139 232t338 91q176 0 269 -72.5t93 -191.5q0 -106 -70.5 -180t-183.5 -107q102 6 192.5 -69.5t90.5 -223.5q0 -205 -173.5 -343t-406.5 -138z" glyph-name="three.oldstyle" horiz-adv-x="1146"/><glyph d="M795 0l-19 -147q-8 -66 21.5 -92.5t115.5 -32.5l-8 -70h-540l10 70q86 6 123 32.5t45 92.5l18 147h-530l-21 133l672 830l227 -33l-92 -742h201l-23 -188h-200zM211 188h373l80 648l-476 -586q-20 -27 -13 -44.5t36 -17.5z" glyph-name="four.oldstyle" horiz-adv-x="1134"/><glyph d="M430 -371q-180 0 -300 85t-120 231q0 84 36 135t108 51q47 0 68.5 -21.5t23.5 -48t3 -73.5t7 -76q8 -39 19.5 -68.5t32 -63.5t57 -52.5t86.5 -18.5q135 0 211.5 121t76.5 287q0 137 -66.5 224t-185.5 87q-80 0 -157.5 -39t-126.5 -110h-60l127 643h572l153 28l-55 -252 h-643l-57 -297q141 123 344 123q164 0 290.5 -94t126.5 -278q0 -231 -163.5 -377t-407.5 -146z" glyph-name="five.oldstyle" horiz-adv-x="1116"/><glyph d="M500 -20q-211 0 -314.5 134t-103.5 363q0 215 74.5 401.5t224 306.5t340.5 120q162 0 240 -76l-46 -60q-90 49 -163 50q-96 0 -171 -47.5t-122 -127t-74 -168t-39 -188.5q43 47 130 94t198 47q147 0 247.5 -93t100.5 -263q0 -207 -150.5 -350t-371.5 -143zM522 59 q121 0 189.5 119t68.5 275q0 125 -50 196.5t-146 71.5q-121 0 -198 -105.5t-77 -259.5q0 -123 52 -210t161 -87z" glyph-name="six.oldstyle" horiz-adv-x="1085"/><glyph d="M121 -348l721 1048h-363q-135 0 -203.5 -25.5t-130.5 -99.5h-59l156 365l157 -16h648l-773 -1272h-153z" glyph-name="seven.oldstyle" horiz-adv-x="1040"/><glyph d="M825 715q227 -100 228 -301q0 -195 -160 -314.5t-395 -119.5q-205 0 -324 90t-119 239q0 238 248 369q-102 96 -102 235q0 180 143 286t332 106q158 0 262 -76t104 -203q0 -196 -217 -311zM668 1225q-121 0 -176.5 -72t-55.5 -160q0 -141 170 -200l105 -37 q150 98 149 272q0 80 -43 138.5t-149 58.5zM514 59q102 0 171 55.5t91.5 116t22.5 113.5q0 63 -43 109.5t-146 81.5l-155 53q-31 10 -68 28q-131 -102 -131 -280q0 -117 64.5 -197t193.5 -80z" glyph-name="eight.oldstyle" horiz-adv-x="1132"/><glyph d="M586 946q211 0 314.5 -134t103.5 -363q0 -215 -75 -401.5t-224.5 -306.5t-339.5 -120q-162 0 -240 76l45 59q90 -49 164 -49q96 0 171 47t122 127t73.5 168t38.5 189q-43 -47 -130 -94.5t-197 -47.5q-147 0 -248 93.5t-101 263.5q0 207 151 350t372 143zM563 866 q-121 0 -189.5 -118.5t-68.5 -274.5q0 -125 50.5 -196.5t146.5 -71.5q121 0 197.5 105.5t76.5 258.5q0 123 -52 210t-161 87z" glyph-name="nine.oldstyle" horiz-adv-x="1085"/><glyph d="M657 -20q-213 0 -330.5 154.5t-117.5 389.5q0 311 172 546t438 235q213 0 331 -155t118 -390q0 -201 -75 -378t-217.5 -289.5t-318.5 -112.5zM668 76q115 0 196.5 124t115.5 290.5t34 347.5q0 371 -207 370q-88 0 -156.5 -70.5t-108.5 -185t-60.5 -244.5t-20.5 -264 q0 -368 207 -368z" glyph-name="zero.tnum" horiz-adv-x="1433"/><glyph d="M371 0l8 70q100 6 140 32.5t48 92.5l99 792q8 57 -6.5 77.5t-59.5 12.5l-90 -14l8 67l334 150q35 14 58.5 3t19.5 -36l-129 -1052q-8 -66 24.5 -92.5t130.5 -32.5l-8 -70h-577z" glyph-name="one.tnum" horiz-adv-x="1433"/><glyph d="M188 0q14 115 77 220.5t146 180t179 152.5t178 141.5t141.5 144.5t69.5 162q10 88 -31 156t-137 68q-88 0 -150.5 -60.5t-72.5 -150.5q-4 -37 4 -81t4 -69q-6 -57 -47 -84.5t-90 -27.5q-61 0 -96 42t-35 113q0 178 148.5 288t359.5 110q199 0 308 -95.5t89 -259.5 q-12 -111 -86 -197.5t-180.5 -148t-219 -116t-226 -128t-177.5 -157.5h459q137 0 203.5 29.5t103.5 113.5h66l-60 -217q-29 -94 -8 -129h-920z" glyph-name="two.tnum" horiz-adv-x="1433"/><glyph d="M631 -20q-184 0 -306 86t-122 235q0 82 36.5 130t106.5 48q59 0 78.5 -27.5t19.5 -94t7 -95.5q10 -39 21 -67.5t32.5 -63.5t59.5 -53.5t89 -18.5q133 0 220.5 121t87.5 266q0 100 -49.5 156.5t-133.5 56.5q-68 0 -143 -38l-17 71q178 61 256 131t78 205q0 92 -45 144.5 t-133 52.5q-180 0 -203 -219q-14 -133 -129 -134q-51 0 -75.5 31t-24.5 78q0 141 139.5 232.5t337.5 91.5q176 0 269.5 -73t93.5 -192q0 -106 -71 -180t-183 -106q102 6 192 -70t90 -223q0 -205 -173 -343t-406 -138z" glyph-name="three.tnum" horiz-adv-x="1433"/><glyph d="M1001 342l-18 -147q-8 -66 21.5 -92.5t115.5 -32.5l-8 -70h-541l11 70q86 6 122.5 32.5t45.5 92.5l18 147h-530l-21 133l672 830l227 -33l-92 -742h201l-23 -188h-201zM418 530h373l79 648l-475 -586q-20 -27 -13 -44.5t36 -17.5z" glyph-name="four.tnum" horiz-adv-x="1433"/><glyph d="M631 -25q-180 0 -300 85t-120 231q0 84 36 135t107 51q47 0 68.5 -21.5t24 -48t3.5 -73.5t7 -76q8 -39 19 -68.5t31.5 -63.5t57.5 -52.5t86 -18.5q135 0 212 121t77 287q0 137 -66.5 224t-185.5 87q-80 0 -157.5 -39t-127.5 -110h-59l127 643h571l154 28l-55 -252h-643 l-58 -296q141 123 344 122q164 0 291 -94t127 -278q0 -231 -163.5 -377t-407.5 -146z" glyph-name="five.tnum" horiz-adv-x="1433"/><glyph d="M668 -20q-211 0 -314.5 134t-103.5 363q0 215 74.5 401.5t224 306.5t340.5 120q162 0 239 -76l-45 -60q-90 49 -163 50q-96 0 -171 -47.5t-122 -127t-74 -168t-39 -188.5q43 47 130 94t198 47q147 0 247.5 -93t100.5 -263q0 -207 -150.5 -350t-371.5 -143zM690 59 q121 0 189.5 119t68.5 275q0 125 -50 196.5t-146 71.5q-121 0 -198 -105.5t-77 -259.5q0 -123 52 -210t161 -87z" glyph-name="six.tnum" horiz-adv-x="1433"/><glyph d="M350 0l721 1049h-362q-135 0 -204 -26t-130 -99h-60l156 364l158 -16h647l-772 -1272h-154z" glyph-name="seven.tnum" horiz-adv-x="1433"/><glyph d="M977 715q227 -100 227 -301q0 -195 -159.5 -314.5t-395.5 -119.5q-205 0 -323.5 90t-118.5 239q0 238 248 369q-102 96 -103 235q0 180 143.5 286t331.5 106q158 0 262.5 -76t104.5 -203q0 -196 -217 -311zM819 1225q-121 0 -176 -72t-55 -160q0 -141 170 -200l104 -37 q150 98 150 272q0 80 -43.5 138.5t-149.5 58.5zM666 59q102 0 170.5 55.5t91 116t22.5 113.5q0 63 -43 109.5t-145 81.5l-156 53q-31 10 -67 28q-131 -102 -131 -280q0 -117 64.5 -197t193.5 -80z" glyph-name="eight.tnum" horiz-adv-x="1433"/><glyph d="M807 1298q211 0 314.5 -134t103.5 -363q0 -215 -75 -401.5t-224.5 -306.5t-339.5 -120q-162 0 -240 76l45 60q90 -49 164 -50q96 0 171 47.5t122 127t73.5 167.5t39.5 189q-43 -47 -130.5 -94t-197.5 -47q-147 0 -247.5 93t-100.5 263q0 207 150.5 350t371.5 143z M784 1219q-121 0 -189.5 -119t-68.5 -275q0 -125 50.5 -196.5t146.5 -71.5q121 0 197.5 105.5t76.5 259.5q0 123 -52 210t-161 87z" glyph-name="nine.tnum" horiz-adv-x="1433"/><glyph d="M223 -23q-94 0 -142 81t-36 192q12 98 77.5 174t156.5 76q92 0 140 -83t36 -192q-12 -100 -78 -174t-154 -74zM225 76q94 0 115 174q4 37 2 70.5t-18.5 57t-47.5 23.5q-96 0 -116 -176q-21 -149 65 -149z" glyph-name="zero.dnom" horiz-adv-x="555"/><glyph d="M6 -12l8 67q53 4 60 43l37 287l-62 -20l10 79l111 54q27 12 49.5 -4.5t18.5 -34.5l-48 -373q0 -6 1.5 -10t2.5 -7t5 -5.5t6 -3.5t8 -2t8 -1t9.5 -1t9.5 -1l-7 -67h-227z" glyph-name="one.dnom" horiz-adv-x="352"/><glyph d="M373 -12l-348 6q45 147 217 260q96 53 104 121q2 27 -14.5 44t-40.5 17q-61 0 -78 -57q-8 -16 -5 -39t-1 -39q-25 -43 -76 -21.5t-45 66.5q8 70 61.5 116t141.5 46q86 0 127 -45t30 -123q-2 -14 -6 -27.5t-12 -27t-13 -22.5t-18.5 -20.5t-19.5 -17.5t-22.5 -17 t-20.5 -14.5t-23.5 -15.5t-21.5 -14q-49 -25 -69.5 -41.5t-33.5 -46.5l140 6q25 0 43 22l18 21h59l-34 -115q-8 -22 -39 -22z" glyph-name="two.dnom" horiz-adv-x="569"/></font>
</defs>
</svg>
